<svg xmlns="http://www.w3.org/2000/svg" enable-background="new 0 0 24 24" viewBox="0 0 24 24" id="AdobePhotoshop"><path d="M6.75 16.5C6.336 16.5 6 16.164 6 15.75v-10C6 5.336 6.336 5 6.75 5H9c1.93 0 3.5 1.57 3.5 3.5S10.93 12 9 12H7.5v3.75C7.5 16.164 7.164 16.5 6.75 16.5zM7.5 10.5H9c1.103 0 2-.897 2-2s-.897-2-2-2H7.5V10.5zM15.75 16.5h-1.5c-.414 0-.75-.336-.75-.75S13.836 15 14.25 15h1.5c.413 0 .75-.336.75-.75s-.337-.75-.75-.75c-1.24 0-2.25-1.009-2.25-2.25S14.51 9 15.75 9h1.5C17.664 9 18 9.336 18 9.75s-.336.75-.75.75h-1.5c-.413 0-.75.336-.75.75S15.337 12 15.75 12c1.24 0 2.25 1.009 2.25 2.25S16.99 16.5 15.75 16.5z" fill="#ff9600" class="color000000 svgShape"></path><path d="M21.249,24H2.751C1.234,24,0,22.766,0,21.249V2.751C0,1.234,1.234,0,2.751,0h18.498C22.766,0,24,1.234,24,2.751v18.497C24,22.766,22.766,24,21.249,24z M2.751,1.5C2.062,1.5,1.5,2.062,1.5,2.751v18.497c0,0.69,0.562,1.251,1.251,1.251h18.498c0.689,0,1.251-0.562,1.251-1.251V2.751c0-0.69-0.562-1.251-1.251-1.251H2.751z" fill="#ff9600" class="color000000 svgShape"></path></svg>