<svg xmlns="http://www.w3.org/2000/svg" enable-background="new 0 0 24 24" viewBox="0 0 24 24" id="AdobeIllustrator"><path d="M16.75 16.5c-.414 0-.75-.336-.75-.75v-7C16 8.336 16.336 8 16.75 8s.75.336.75.75v7C17.5 16.164 17.164 16.5 16.75 16.5zM16.75 7.5C16.336 7.5 16 7.164 16 6.75v-1C16 5.336 16.336 5 16.75 5s.75.336.75.75v1C17.5 7.164 17.164 7.5 16.75 7.5zM13.75 16.5c-.323 0-.621-.209-.719-.535L10.192 6.5H8.75C8.336 6.5 8 6.164 8 5.75S8.336 5 8.75 5h2c.331 0 .623.217.719.535l3 10c.118.396-.106.814-.503.934C13.894 16.49 13.821 16.5 13.75 16.5z" fill="#ff9600" class="color000000 svgShape"></path><path d="M6.75,16.5c-0.071,0-0.144-0.01-0.216-0.032c-0.396-0.119-0.621-0.537-0.503-0.934l3-10C9.15,5.137,9.564,4.912,9.966,5.032c0.396,0.119,0.621,0.537,0.503,0.934l-3,10C7.371,16.291,7.073,16.5,6.75,16.5z" fill="#ff9600" class="color000000 svgShape"></path><path d="M12.55,12.5H8.2c-0.414,0-0.75-0.336-0.75-0.75S7.786,11,8.2,11h4.35c0.414,0,0.75,0.336,0.75,0.75S12.964,12.5,12.55,12.5z" fill="#ff9600" class="color000000 svgShape"></path><path d="M21.249,24H2.751C1.234,24,0,22.766,0,21.249V2.751C0,1.234,1.234,0,2.751,0h18.498C22.766,0,24,1.234,24,2.751v18.497C24,22.766,22.766,24,21.249,24z M2.751,1.5C2.062,1.5,1.5,2.062,1.5,2.751v18.497c0,0.69,0.562,1.251,1.251,1.251h18.498c0.689,0,1.251-0.562,1.251-1.251V2.751c0-0.69-0.562-1.251-1.251-1.251H2.751z" fill="#ff9600" class="color000000 svgShape"></path></svg>