<?xml version="1.0" ?><!DOCTYPE svg  PUBLIC '-//W3C//DTD SVG 1.1//EN'  'http://www.w3.org/Graphics/SVG/1.1/DTD/svg11.dtd'><svg height="8.4666mm" style="shape-rendering:geometricPrecision; text-rendering:geometricPrecision; image-rendering:optimizeQuality; fill-rule:evenodd; clip-rule:evenodd" version="1.1" viewBox="0 0 846.66 846.66" width="8.4666mm" xml:space="preserve" xmlns="http://www.w3.org/2000/svg" xmlns:xlink="http://www.w3.org/1999/xlink"><defs><style type="text/css">
   <![CDATA[
    .fil0 {fill:black;fill-rule:nonzero}
   ]]>
  </style></defs><g id="Layer_x0020_1"><path class="fil0" d="M329.47 107.94l365.28 0c11.4,0 20.65,9.24 20.65,20.64l0 687.04c0,11.4 -9.25,20.64 -20.65,20.64l-542.84 0c-11.4,0 -20.64,-9.24 -20.64,-20.64l0 -687.04c0,-11.4 9.24,-20.64 20.64,-20.64l45.09 0 0 -76.9c0,-11.4 9.24,-20.65 20.64,-20.65l91.18 0c11.41,0 20.65,9.25 20.65,20.65l0 76.9zm176.56 164.31c23.41,0 42.39,18.98 42.39,42.4 0,15.92 -8.77,29.79 -21.75,37.03l0 61.32c40.34,-9.51 68.96,-45.64 68.96,-87.21 0,-49.5 -40.11,-89.61 -89.6,-89.61 -49.5,0 -89.61,40.11 -89.61,89.61 0,41.57 28.63,77.7 68.96,87.21l0 -61.31c-12.98,-7.25 -21.75,-21.12 -21.75,-37.04 0,-23.42 18.98,-42.4 42.4,-42.4zm-267.18 242.75c-27.16,0 -27.16,-41.29 0,-41.29l150.55 0c27.16,0 27.16,41.29 0,41.29l-150.55 0zm0 192.97c-27.16,0 -27.16,-41.29 0,-41.29l368.96 0c27.16,0 27.16,41.29 0,41.29l-368.96 0zm0 -128.64c-27.16,0 -27.16,-41.29 0,-41.29l150.55 0c27.16,0 27.16,41.29 0,41.29l-150.55 0zm0 64.32c-27.16,0 -27.16,-41.29 0,-41.29l368.96 0c27.16,0 27.16,41.29 0,41.29l-368.96 0zm267.18 -448.76c72.29,0 130.9,58.6 130.9,130.9 0,72.29 -58.61,130.9 -130.9,130.9 -72.29,0 -130.9,-58.61 -130.9,-130.9 0,-72.3 58.61,-130.9 130.9,-130.9zm-309.03 -45.66l-24.44 0 0 645.74 501.55 0 0 -645.74 -344.64 0 0 45.09c0,11.4 -9.24,20.64 -20.65,20.64l-91.18 0c-11.4,0 -20.64,-9.24 -20.64,-20.64l0 -45.09zm91.18 -97.54l-49.89 0 0 121.98 49.89 0 0 -121.98z"/></g></svg>