<svg xmlns="http://www.w3.org/2000/svg" enable-background="new 0 0 24 24" viewBox="0 0 24 24" id="Java"><path d="M11.435,13.891c-0.144,0-0.289-0.042-0.417-0.127c-0.112-0.076-2.756-1.88-2.756-4.209c0-2.457,1.764-3.776,3.182-4.836c1.116-0.834,2.08-1.555,2.08-2.6c0-0.51-0.299-0.768-0.302-0.771c-0.33-0.25-0.395-0.721-0.145-1.051c0.251-0.329,0.72-0.393,1.051-0.145c0.092,0.069,0.896,0.715,0.896,1.966c0,1.796-1.363,2.815-2.681,3.801c-1.327,0.992-2.58,1.93-2.58,3.635c0,1.269,1.512,2.57,2.094,2.965c0.343,0.232,0.433,0.698,0.202,1.041C11.912,13.774,11.675,13.891,11.435,13.891z" fill="#ff9600" class="color000000 svgShape"></path><path d="M13.315,13.728c-0.414,0-0.75-0.336-0.75-0.75c0-0.695-0.2-0.915-0.53-1.279c-0.382-0.421-0.905-0.997-0.905-2.233c0-2.285,3.912-4.542,4.696-4.971c0.363-0.2,0.818-0.066,1.018,0.297c0.199,0.363,0.066,0.819-0.297,1.018c-1.58,0.866-3.917,2.627-3.917,3.656c0,0.657,0.194,0.871,0.516,1.226c0.388,0.427,0.919,1.013,0.919,2.287C14.065,13.392,13.729,13.728,13.315,13.728z" fill="#ff9600" class="color000000 svgShape"></path><path d="M8.518 16.203c-1.703 0-3.167-.205-3.892-.651-.583-.358-.669-.827-.669-1.075 0-1.286 2.092-1.926 3.848-2.237.404-.073.796.2.869.608s-.2.797-.607.869c-.909.162-1.863.456-2.35.706 1.606.534 7.432.351 10.206-1.054.371-.186.821-.039 1.008.331.187.37.039.821-.331 1.008C14.73 15.652 11.305 16.203 8.518 16.203zM9.489 18.987c-2.631 0-3.092-1.199-3.164-1.478-.103-.401.14-.81.541-.913.374-.098.757.109.889.465.059.073.64.68 3.189.308 2.593-.379 3.263-.83 3.374-.918.195-.283.566-.405.898-.271.384.155.57.592.416.976-.296.736-1.8 1.307-4.471 1.697C10.524 18.947 9.97 18.987 9.489 18.987zM7.778 17.136c0 0 0 .001 0 .001C7.779 17.137 7.778 17.137 7.778 17.136zM7.778 17.134c0 0 0 .001 0 .001C7.778 17.135 7.778 17.135 7.778 17.134zM7.777 17.133L7.777 17.133 7.777 17.133zM14.241 16.595c0 0 0 .001 0 .001C14.241 16.596 14.241 16.595 14.241 16.595zM14.242 16.593C14.241 16.594 14.241 16.594 14.242 16.593 14.241 16.594 14.241 16.594 14.242 16.593zM14.242 16.591c0 0 0 .001 0 .001C14.242 16.592 14.242 16.592 14.242 16.591zM14.243 16.59C14.243 16.59 14.243 16.59 14.243 16.59 14.243 16.59 14.243 16.59 14.243 16.59z" fill="#ff9600" class="color000000 svgShape"></path><path d="M7.478,21.808c-1.762,0-3.179-0.114-3.732-0.334C3.097,21.214,3,20.769,3,20.526c0-1.104,1.534-1.728,2.448-2.001c0.398-0.119,0.815,0.106,0.933,0.502c0.119,0.396-0.105,0.814-0.502,0.934c-0.26,0.079-0.535,0.186-0.773,0.298c2.934,0.332,11.681-0.388,12.685-1.445c0.285-0.301,0.76-0.312,1.061-0.027c0.3,0.285,0.312,0.76,0.027,1.061C17.607,21.185,11.598,21.808,7.478,21.808z" fill="#ff9600" class="color000000 svgShape"></path><path d="M8.741 23.983c-1.837 0-3.301-.144-3.922-.367-.39-.14-.592-.57-.453-.959.139-.39.57-.593.959-.453 1.627.584 10.786.451 14.533-1.846.353-.215.815-.105 1.032.248.216.354.105.815-.248 1.032C17.792 23.384 12.49 23.983 8.741 23.983zM16.156 18.328c-.29 0-.566-.169-.688-.452-.165-.38.01-.821.39-.986 1.413-.612 3.403-1.925 3.403-2.925 0-.241-.068-.289-.094-.307-.321-.224-1.311-.046-1.874.161-.387.144-.82-.055-.963-.444s.055-.82.444-.963c.352-.13 2.167-.741 3.25.015.336.234.737.691.737 1.538 0 2.373-3.867 4.112-4.308 4.302C16.356 18.309 16.255 18.328 16.156 18.328z" fill="#ff9600" class="color000000 svgShape"></path></svg>