<svg id="visual" viewBox="0 0 900 600" width="900" height="600" xmlns="http://www.w3.org/2000/svg" xmlns:xlink="http://www.w3.org/1999/xlink" version="1.1"><g stroke-width="1" stroke-linejoin="bevel"><path d="M450 300L450 250L400 250Z" fill="#ffae75" stroke="#ffae75"></path><path d="M400 250L400 300L450 300Z" fill="#fff1e7" stroke="#fff1e7"></path><path d="M450 300L500 300L450 250Z" fill="#ffe4d0" stroke="#ffe4d0"></path><path d="M500 300L500 250L450 250Z" fill="#f7770f" stroke="#f7770f"></path><path d="M450 200L400 200L450 250Z" fill="#ffffff" stroke="#ffffff"></path><path d="M450 250L400 200L400 250Z" fill="#f7770f" stroke="#f7770f"></path><path d="M500 250L450 200L450 250Z" fill="#ffffff" stroke="#ffffff"></path><path d="M350 250L350 300L400 250Z" fill="#f7770f" stroke="#f7770f"></path><path d="M400 250L350 300L400 300Z" fill="#fff1e7" stroke="#fff1e7"></path><path d="M400 200L350 250L400 250Z" fill="#fea15f" stroke="#fea15f"></path><path d="M400 350L450 350L400 300Z" fill="#ffc8a2" stroke="#ffc8a2"></path><path d="M400 300L450 350L450 300Z" fill="#ffe4d0" stroke="#ffe4d0"></path><path d="M450 300L450 350L500 300Z" fill="#ffe4d0" stroke="#ffe4d0"></path><path d="M350 300L400 350L400 300Z" fill="#ffbb8c" stroke="#ffbb8c"></path><path d="M450 350L500 350L500 300Z" fill="#ffffff" stroke="#ffffff"></path><path d="M350 300L350 350L400 350Z" fill="#ffffff" stroke="#ffffff"></path><path d="M500 250L500 200L450 200Z" fill="#fc9348" stroke="#fc9348"></path><path d="M400 200L350 200L350 250Z" fill="#fc9348" stroke="#fc9348"></path><path d="M500 300L550 250L500 250Z" fill="#fea15f" stroke="#fea15f"></path><path d="M500 250L550 250L500 200Z" fill="#ffbb8c" stroke="#ffbb8c"></path><path d="M550 300L550 250L500 300Z" fill="#fea15f" stroke="#fea15f"></path><path d="M450 200L400 150L400 200Z" fill="#ffe4d0" stroke="#ffe4d0"></path><path d="M400 200L400 150L350 200Z" fill="#ffd6b9" stroke="#ffd6b9"></path><path d="M450 150L400 150L450 200Z" fill="#ffc8a2" stroke="#ffc8a2"></path><path d="M500 350L550 300L500 300Z" fill="#fff1e7" stroke="#fff1e7"></path><path d="M350 200L300 250L350 250Z" fill="#ffd6b9" stroke="#ffd6b9"></path><path d="M350 250L300 250L350 300Z" fill="#fc9348" stroke="#fc9348"></path><path d="M350 300L300 300L350 350Z" fill="#ffbb8c" stroke="#ffbb8c"></path><path d="M300 250L300 300L350 300Z" fill="#f7770f" stroke="#f7770f"></path><path d="M350 350L400 400L400 350Z" fill="#ffbb8c" stroke="#ffbb8c"></path><path d="M400 350L400 400L450 350Z" fill="#ffbb8c" stroke="#ffbb8c"></path><path d="M450 350L450 400L500 350Z" fill="#fff1e7" stroke="#fff1e7"></path><path d="M400 400L450 400L450 350Z" fill="#fa8530" stroke="#fa8530"></path><path d="M500 200L450 150L450 200Z" fill="#fff1e7" stroke="#fff1e7"></path><path d="M500 400L550 350L500 350Z" fill="#ffbb8c" stroke="#ffbb8c"></path><path d="M500 350L550 350L550 300Z" fill="#fea15f" stroke="#fea15f"></path><path d="M300 350L350 400L350 350Z" fill="#ffc8a2" stroke="#ffc8a2"></path><path d="M350 350L350 400L400 400Z" fill="#fc9348" stroke="#fc9348"></path><path d="M550 250L550 200L500 200Z" fill="#fa8530" stroke="#fa8530"></path><path d="M500 200L500 150L450 150Z" fill="#fc9348" stroke="#fc9348"></path><path d="M300 300L300 350L350 350Z" fill="#fff1e7" stroke="#fff1e7"></path><path d="M350 150L300 200L350 200Z" fill="#ffc8a2" stroke="#ffc8a2"></path><path d="M350 200L300 200L300 250Z" fill="#ffae75" stroke="#ffae75"></path><path d="M450 400L500 400L500 350Z" fill="#fc9348" stroke="#fc9348"></path><path d="M550 200L500 150L500 200Z" fill="#f7770f" stroke="#f7770f"></path><path d="M400 150L350 150L350 200Z" fill="#fa8530" stroke="#fa8530"></path><path d="M500 400L550 400L550 350Z" fill="#ffe4d0" stroke="#ffe4d0"></path><path d="M500 150L450 100L450 150Z" fill="#ffffff" stroke="#ffffff"></path><path d="M450 150L450 100L400 150Z" fill="#fea15f" stroke="#fea15f"></path><path d="M400 150L400 100L350 150Z" fill="#ffae75" stroke="#ffae75"></path><path d="M550 200L550 150L500 150Z" fill="#ffbb8c" stroke="#ffbb8c"></path><path d="M500 150L500 100L450 100Z" fill="#fa8530" stroke="#fa8530"></path><path d="M550 350L600 300L550 300Z" fill="#ffae75" stroke="#ffae75"></path><path d="M550 300L600 300L550 250Z" fill="#fa8530" stroke="#fa8530"></path><path d="M550 250L600 250L550 200Z" fill="#fff1e7" stroke="#fff1e7"></path><path d="M550 200L600 200L550 150Z" fill="#fff1e7" stroke="#fff1e7"></path><path d="M600 350L600 300L550 350Z" fill="#ffd6b9" stroke="#ffd6b9"></path><path d="M300 250L250 300L300 300Z" fill="#fc9348" stroke="#fc9348"></path><path d="M300 300L250 300L300 350Z" fill="#fea15f" stroke="#fea15f"></path><path d="M250 250L250 300L300 250Z" fill="#ffc8a2" stroke="#ffc8a2"></path><path d="M350 100L300 150L350 150Z" fill="#fa8530" stroke="#fa8530"></path><path d="M350 150L300 150L300 200Z" fill="#fff1e7" stroke="#fff1e7"></path><path d="M300 200L250 250L300 250Z" fill="#ffae75" stroke="#ffae75"></path><path d="M250 350L300 400L300 350Z" fill="#ffe4d0" stroke="#ffe4d0"></path><path d="M300 350L300 400L350 400Z" fill="#ffbb8c" stroke="#ffbb8c"></path><path d="M600 300L600 250L550 250Z" fill="#fc9348" stroke="#fc9348"></path><path d="M250 200L250 250L300 200Z" fill="#fff1e7" stroke="#fff1e7"></path><path d="M350 400L400 450L400 400Z" fill="#f7770f" stroke="#f7770f"></path><path d="M400 400L400 450L450 400Z" fill="#ffae75" stroke="#ffae75"></path><path d="M450 400L450 450L500 400Z" fill="#f7770f" stroke="#f7770f"></path><path d="M500 400L500 450L550 400Z" fill="#fc9348" stroke="#fc9348"></path><path d="M350 450L400 450L350 400Z" fill="#fc9348" stroke="#fc9348"></path><path d="M400 450L450 450L450 400Z" fill="#fc9348" stroke="#fc9348"></path><path d="M450 100L400 100L400 150Z" fill="#fa8530" stroke="#fa8530"></path><path d="M300 150L250 200L300 200Z" fill="#fea15f" stroke="#fea15f"></path><path d="M600 250L600 200L550 200Z" fill="#ffd6b9" stroke="#ffd6b9"></path><path d="M300 400L350 450L350 400Z" fill="#ffffff" stroke="#ffffff"></path><path d="M450 450L500 450L500 400Z" fill="#f7770f" stroke="#f7770f"></path><path d="M550 150L500 100L500 150Z" fill="#f7770f" stroke="#f7770f"></path><path d="M550 400L600 350L550 350Z" fill="#ffe4d0" stroke="#ffe4d0"></path><path d="M250 300L250 350L300 350Z" fill="#ffffff" stroke="#ffffff"></path><path d="M400 100L350 100L350 150Z" fill="#f7770f" stroke="#f7770f"></path><path d="M250 350L250 400L300 400Z" fill="#fc9348" stroke="#fc9348"></path><path d="M300 400L300 450L350 450Z" fill="#ffbb8c" stroke="#ffbb8c"></path><path d="M600 200L600 150L550 150Z" fill="#fff1e7" stroke="#fff1e7"></path><path d="M550 150L550 100L500 100Z" fill="#fea15f" stroke="#fea15f"></path><path d="M300 150L250 150L250 200Z" fill="#fea15f" stroke="#fea15f"></path><path d="M300 100L250 150L300 150Z" fill="#fc9348" stroke="#fc9348"></path><path d="M600 150L550 100L550 150Z" fill="#fa8530" stroke="#fa8530"></path><path d="M250 400L300 450L300 400Z" fill="#fc9348" stroke="#fc9348"></path><path d="M500 450L550 450L550 400Z" fill="#f7770f" stroke="#f7770f"></path><path d="M550 400L600 400L600 350Z" fill="#fff1e7" stroke="#fff1e7"></path><path d="M350 100L300 100L300 150Z" fill="#ffe4d0" stroke="#ffe4d0"></path><path d="M550 450L600 400L550 400Z" fill="#fa8530" stroke="#fa8530"></path><path d="M600 300L650 250L600 250Z" fill="#f7770f" stroke="#f7770f"></path><path d="M600 250L650 250L600 200Z" fill="#fff1e7" stroke="#fff1e7"></path><path d="M600 200L650 200L600 150Z" fill="#ffd6b9" stroke="#ffd6b9"></path><path d="M650 300L650 250L600 300Z" fill="#ffbb8c" stroke="#ffbb8c"></path><path d="M650 300L600 300L600 350Z" fill="#ffae75" stroke="#ffae75"></path><path d="M250 200L200 250L250 250Z" fill="#fff1e7" stroke="#fff1e7"></path><path d="M250 250L200 250L250 300Z" fill="#ffae75" stroke="#ffae75"></path><path d="M250 300L200 300L250 350Z" fill="#fa8530" stroke="#fa8530"></path><path d="M250 350L200 350L250 400Z" fill="#ffd6b9" stroke="#ffd6b9"></path><path d="M200 200L200 250L250 200Z" fill="#fff1e7" stroke="#fff1e7"></path><path d="M200 250L200 300L250 300Z" fill="#ffbb8c" stroke="#ffbb8c"></path><path d="M400 450L450 500L450 450Z" fill="#fff1e7" stroke="#fff1e7"></path><path d="M450 450L450 500L500 450Z" fill="#fff1e7" stroke="#fff1e7"></path><path d="M500 450L500 500L550 450Z" fill="#ffc8a2" stroke="#ffc8a2"></path><path d="M400 500L450 500L400 450Z" fill="#ffc8a2" stroke="#ffc8a2"></path><path d="M400 500L400 450L350 450Z" fill="#fea15f" stroke="#fea15f"></path><path d="M350 500L400 500L350 450Z" fill="#fc9348" stroke="#fc9348"></path><path d="M650 350L650 300L600 350Z" fill="#ffd6b9" stroke="#ffd6b9"></path><path d="M450 100L400 50L400 100Z" fill="#ffc8a2" stroke="#ffc8a2"></path><path d="M400 100L400 50L350 100Z" fill="#ffbb8c" stroke="#ffbb8c"></path><path d="M350 100L350 50L300 100Z" fill="#ffe4d0" stroke="#ffe4d0"></path><path d="M450 50L400 50L450 100Z" fill="#ffe4d0" stroke="#ffe4d0"></path><path d="M450 50L450 100L500 100Z" fill="#fff1e7" stroke="#fff1e7"></path><path d="M500 50L450 50L500 100Z" fill="#ffae75" stroke="#ffae75"></path><path d="M650 250L650 200L600 200Z" fill="#ffe4d0" stroke="#ffe4d0"></path><path d="M450 500L500 500L500 450Z" fill="#ffc8a2" stroke="#ffc8a2"></path><path d="M400 50L350 50L350 100Z" fill="#ffffff" stroke="#ffffff"></path><path d="M600 400L650 350L600 350Z" fill="#ffc8a2" stroke="#ffc8a2"></path><path d="M200 300L200 350L250 350Z" fill="#fea15f" stroke="#fea15f"></path><path d="M250 150L200 200L250 200Z" fill="#fa8530" stroke="#fa8530"></path><path d="M550 100L500 50L500 100Z" fill="#fc9348" stroke="#fc9348"></path><path d="M300 450L350 500L350 450Z" fill="#f7770f" stroke="#f7770f"></path><path d="M300 50L250 100L300 100Z" fill="#ffc8a2" stroke="#ffc8a2"></path><path d="M300 100L250 100L250 150Z" fill="#ffe4d0" stroke="#ffe4d0"></path><path d="M250 150L200 150L200 200Z" fill="#fea15f" stroke="#fea15f"></path><path d="M650 150L600 100L600 150Z" fill="#ffd6b9" stroke="#ffd6b9"></path><path d="M600 150L600 100L550 100Z" fill="#fa8530" stroke="#fa8530"></path><path d="M550 100L550 50L500 50Z" fill="#ffe4d0" stroke="#ffe4d0"></path><path d="M550 500L600 450L550 450Z" fill="#fa8530" stroke="#fa8530"></path><path d="M550 450L600 450L600 400Z" fill="#ffffff" stroke="#ffffff"></path><path d="M600 400L650 400L650 350Z" fill="#ffbb8c" stroke="#ffbb8c"></path><path d="M200 400L250 450L250 400Z" fill="#fc9348" stroke="#fc9348"></path><path d="M250 400L250 450L300 450Z" fill="#ffc8a2" stroke="#ffc8a2"></path><path d="M300 450L300 500L350 500Z" fill="#fc9348" stroke="#fc9348"></path><path d="M600 450L650 400L600 400Z" fill="#ffffff" stroke="#ffffff"></path><path d="M250 100L200 150L250 150Z" fill="#ffffff" stroke="#ffffff"></path><path d="M200 350L200 400L250 400Z" fill="#fa8530" stroke="#fa8530"></path><path d="M500 500L550 500L550 450Z" fill="#ffe4d0" stroke="#ffe4d0"></path><path d="M250 450L300 500L300 450Z" fill="#ffc8a2" stroke="#ffc8a2"></path><path d="M350 50L300 50L300 100Z" fill="#fff1e7" stroke="#fff1e7"></path><path d="M600 100L550 50L550 100Z" fill="#ffffff" stroke="#ffffff"></path><path d="M650 200L650 150L600 150Z" fill="#ffe4d0" stroke="#ffe4d0"></path><path d="M500 50L450 0L450 50Z" fill="#ffffff" stroke="#ffffff"></path><path d="M450 50L450 0L400 50Z" fill="#ffffff" stroke="#ffffff"></path><path d="M400 50L400 0L350 50Z" fill="#ffc8a2" stroke="#ffc8a2"></path><path d="M350 50L350 0L300 50Z" fill="#ffc8a2" stroke="#ffc8a2"></path><path d="M500 0L450 0L500 50Z" fill="#fea15f" stroke="#fea15f"></path><path d="M650 350L700 300L650 300Z" fill="#ffae75" stroke="#ffae75"></path><path d="M650 300L700 300L650 250Z" fill="#ffbb8c" stroke="#ffbb8c"></path><path d="M650 250L700 250L650 200Z" fill="#fff1e7" stroke="#fff1e7"></path><path d="M650 200L700 200L650 150Z" fill="#ffffff" stroke="#ffffff"></path><path d="M700 350L700 300L650 350Z" fill="#fff1e7" stroke="#fff1e7"></path><path d="M450 0L400 0L400 50Z" fill="#ffae75" stroke="#ffae75"></path><path d="M700 300L700 250L650 250Z" fill="#fc9348" stroke="#fc9348"></path><path d="M200 300L150 300L200 350Z" fill="#f7770f" stroke="#f7770f"></path><path d="M200 350L150 350L200 400Z" fill="#ffffff" stroke="#ffffff"></path><path d="M200 250L150 300L200 300Z" fill="#fff1e7" stroke="#fff1e7"></path><path d="M150 250L150 300L200 250Z" fill="#fa8530" stroke="#fa8530"></path><path d="M150 250L200 250L200 200Z" fill="#fa8530" stroke="#fa8530"></path><path d="M450 500L450 550L500 500Z" fill="#ffc8a2" stroke="#ffc8a2"></path><path d="M500 500L500 550L550 500Z" fill="#ffae75" stroke="#ffae75"></path><path d="M400 500L450 550L450 500Z" fill="#fff1e7" stroke="#fff1e7"></path><path d="M400 550L450 550L400 500Z" fill="#fa8530" stroke="#fa8530"></path><path d="M400 550L400 500L350 500Z" fill="#f7770f" stroke="#f7770f"></path><path d="M150 200L150 250L200 200Z" fill="#ffbb8c" stroke="#ffbb8c"></path><path d="M350 550L400 550L350 500Z" fill="#ffe4d0" stroke="#ffe4d0"></path><path d="M300 500L350 550L350 500Z" fill="#ffae75" stroke="#ffae75"></path><path d="M450 550L500 550L500 500Z" fill="#ffe4d0" stroke="#ffe4d0"></path><path d="M600 450L650 450L650 400Z" fill="#fc9348" stroke="#fc9348"></path><path d="M650 400L700 350L650 350Z" fill="#fc9348" stroke="#fc9348"></path><path d="M600 500L650 450L600 450Z" fill="#ffbb8c" stroke="#ffbb8c"></path><path d="M600 500L600 450L550 500Z" fill="#ffd6b9" stroke="#ffd6b9"></path><path d="M400 0L350 0L350 50Z" fill="#fff1e7" stroke="#fff1e7"></path><path d="M250 100L200 100L200 150Z" fill="#ffae75" stroke="#ffae75"></path><path d="M200 150L150 200L200 200Z" fill="#ffc8a2" stroke="#ffc8a2"></path><path d="M250 50L200 100L250 100Z" fill="#fc9348" stroke="#fc9348"></path><path d="M250 50L250 100L300 50Z" fill="#fa8530" stroke="#fa8530"></path><path d="M250 450L250 500L300 500Z" fill="#f7770f" stroke="#f7770f"></path><path d="M300 500L300 550L350 550Z" fill="#fea15f" stroke="#fea15f"></path><path d="M200 450L250 500L250 450Z" fill="#fa8530" stroke="#fa8530"></path><path d="M550 50L500 0L500 50Z" fill="#ffe4d0" stroke="#ffe4d0"></path><path d="M700 400L700 350L650 400Z" fill="#ffd6b9" stroke="#ffd6b9"></path><path d="M700 150L650 100L650 150Z" fill="#ffae75" stroke="#ffae75"></path><path d="M650 150L650 100L600 100Z" fill="#fa8530" stroke="#fa8530"></path><path d="M600 100L600 50L550 50Z" fill="#ffffff" stroke="#ffffff"></path><path d="M550 50L550 0L500 0Z" fill="#fea15f" stroke="#fea15f"></path><path d="M150 400L200 450L200 400Z" fill="#f7770f" stroke="#f7770f"></path><path d="M200 400L200 450L250 450Z" fill="#ffd6b9" stroke="#ffd6b9"></path><path d="M550 550L600 500L550 500Z" fill="#ffffff" stroke="#ffffff"></path><path d="M700 250L700 200L650 200Z" fill="#ffae75" stroke="#ffae75"></path><path d="M150 300L150 350L200 350Z" fill="#fc9348" stroke="#fc9348"></path><path d="M300 0L250 50L300 50Z" fill="#ffbb8c" stroke="#ffbb8c"></path><path d="M650 100L600 50L600 100Z" fill="#fc9348" stroke="#fc9348"></path><path d="M150 150L150 200L200 150Z" fill="#ffffff" stroke="#ffffff"></path><path d="M250 500L300 550L300 500Z" fill="#fff1e7" stroke="#fff1e7"></path><path d="M650 450L700 400L650 400Z" fill="#ffe4d0" stroke="#ffe4d0"></path><path d="M350 0L300 0L300 50Z" fill="#ffd6b9" stroke="#ffd6b9"></path><path d="M150 350L150 400L200 400Z" fill="#fea15f" stroke="#fea15f"></path><path d="M600 50L550 0L550 50Z" fill="#ffd6b9" stroke="#ffd6b9"></path><path d="M200 100L150 150L200 150Z" fill="#fa8530" stroke="#fa8530"></path><path d="M700 200L700 150L650 150Z" fill="#ffae75" stroke="#ffae75"></path><path d="M500 550L550 550L550 500Z" fill="#fff1e7" stroke="#fff1e7"></path><path d="M600 550L650 500L600 500Z" fill="#fa8530" stroke="#fa8530"></path><path d="M600 500L650 500L650 450Z" fill="#ffc8a2" stroke="#ffc8a2"></path><path d="M650 450L700 450L700 400Z" fill="#fea15f" stroke="#fea15f"></path><path d="M150 450L200 500L200 450Z" fill="#fea15f" stroke="#fea15f"></path><path d="M200 450L200 500L250 500Z" fill="#ffbb8c" stroke="#ffbb8c"></path><path d="M250 500L250 550L300 550Z" fill="#ffc8a2" stroke="#ffc8a2"></path><path d="M250 0L200 50L250 50Z" fill="#ffffff" stroke="#ffffff"></path><path d="M250 50L200 50L200 100Z" fill="#fff1e7" stroke="#fff1e7"></path><path d="M200 100L150 100L150 150Z" fill="#ffe4d0" stroke="#ffe4d0"></path><path d="M700 100L650 50L650 100Z" fill="#fff1e7" stroke="#fff1e7"></path><path d="M650 100L650 50L600 50Z" fill="#ffc8a2" stroke="#ffc8a2"></path><path d="M600 50L600 0L550 0Z" fill="#fa8530" stroke="#fa8530"></path><path d="M550 550L600 550L600 500Z" fill="#fff1e7" stroke="#fff1e7"></path><path d="M650 500L700 450L650 450Z" fill="#ffe4d0" stroke="#ffe4d0"></path><path d="M450 550L450 600L500 550Z" fill="#fc9348" stroke="#fc9348"></path><path d="M500 550L500 600L550 550Z" fill="#ffe4d0" stroke="#ffe4d0"></path><path d="M550 550L550 600L600 550Z" fill="#fc9348" stroke="#fc9348"></path><path d="M400 550L450 600L450 550Z" fill="#fea15f" stroke="#fea15f"></path><path d="M400 600L450 600L400 550Z" fill="#ffae75" stroke="#ffae75"></path><path d="M400 600L400 550L350 550Z" fill="#fc9348" stroke="#fc9348"></path><path d="M350 600L400 600L350 550Z" fill="#ffd6b9" stroke="#ffd6b9"></path><path d="M200 500L250 550L250 500Z" fill="#ffbb8c" stroke="#ffbb8c"></path><path d="M300 550L350 600L350 550Z" fill="#f7770f" stroke="#f7770f"></path><path d="M150 400L150 450L200 450Z" fill="#ffbb8c" stroke="#ffbb8c"></path><path d="M150 300L100 300L150 350Z" fill="#fc9348" stroke="#fc9348"></path><path d="M150 350L100 350L150 400Z" fill="#ffbb8c" stroke="#ffbb8c"></path><path d="M150 400L100 400L150 450Z" fill="#ffae75" stroke="#ffae75"></path><path d="M150 250L100 300L150 300Z" fill="#ffd6b9" stroke="#ffd6b9"></path><path d="M100 250L100 300L150 250Z" fill="#fff1e7" stroke="#fff1e7"></path><path d="M100 250L150 250L150 200Z" fill="#ffc8a2" stroke="#ffc8a2"></path><path d="M200 50L150 100L200 100Z" fill="#fff1e7" stroke="#fff1e7"></path><path d="M100 200L100 250L150 200Z" fill="#ffc8a2" stroke="#ffc8a2"></path><path d="M300 0L250 0L250 50Z" fill="#ffbb8c" stroke="#ffbb8c"></path><path d="M700 150L700 100L650 100Z" fill="#ffbb8c" stroke="#ffbb8c"></path><path d="M700 250L750 250L700 200Z" fill="#fa8530" stroke="#fa8530"></path><path d="M700 200L750 200L700 150Z" fill="#ffc8a2" stroke="#ffc8a2"></path><path d="M700 150L750 150L700 100Z" fill="#fa8530" stroke="#fa8530"></path><path d="M700 300L750 250L700 250Z" fill="#ffe4d0" stroke="#ffe4d0"></path><path d="M750 300L750 250L700 300Z" fill="#f7770f" stroke="#f7770f"></path><path d="M750 300L700 300L700 350Z" fill="#ffe4d0" stroke="#ffe4d0"></path><path d="M750 300L700 350L750 350Z" fill="#ffe4d0" stroke="#ffe4d0"></path><path d="M650 50L600 0L600 50Z" fill="#fea15f" stroke="#fea15f"></path><path d="M100 200L150 200L150 150Z" fill="#ffc8a2" stroke="#ffc8a2"></path><path d="M750 350L700 350L700 400Z" fill="#ffc8a2" stroke="#ffc8a2"></path><path d="M100 300L100 350L150 350Z" fill="#fc9348" stroke="#fc9348"></path><path d="M100 150L100 200L150 150Z" fill="#ffe4d0" stroke="#ffe4d0"></path><path d="M750 250L750 200L700 200Z" fill="#ffffff" stroke="#ffffff"></path><path d="M450 600L500 600L500 550Z" fill="#ffe4d0" stroke="#ffe4d0"></path><path d="M300 600L350 600L300 550Z" fill="#fc9348" stroke="#fc9348"></path><path d="M750 400L750 350L700 400Z" fill="#ffe4d0" stroke="#ffe4d0"></path><path d="M700 450L750 400L700 400Z" fill="#ffffff" stroke="#ffffff"></path><path d="M250 550L300 600L300 550Z" fill="#ffae75" stroke="#ffae75"></path><path d="M500 600L550 600L550 550Z" fill="#fc9348" stroke="#fc9348"></path><path d="M150 100L100 150L150 150Z" fill="#ffbb8c" stroke="#ffbb8c"></path><path d="M750 200L750 150L700 150Z" fill="#ffc8a2" stroke="#ffc8a2"></path><path d="M100 350L100 400L150 400Z" fill="#ffd6b9" stroke="#ffd6b9"></path><path d="M750 100L700 50L700 100Z" fill="#ffd6b9" stroke="#ffd6b9"></path><path d="M700 100L700 50L650 50Z" fill="#fa8530" stroke="#fa8530"></path><path d="M650 50L650 0L600 0Z" fill="#ffffff" stroke="#ffffff"></path><path d="M100 450L150 500L150 450Z" fill="#ffc8a2" stroke="#ffc8a2"></path><path d="M150 450L150 500L200 500Z" fill="#fff1e7" stroke="#fff1e7"></path><path d="M200 500L200 550L250 550Z" fill="#ffd6b9" stroke="#ffd6b9"></path><path d="M250 550L250 600L300 600Z" fill="#fff1e7" stroke="#fff1e7"></path><path d="M200 50L150 50L150 100Z" fill="#ffffff" stroke="#ffffff"></path><path d="M150 100L100 100L100 150Z" fill="#f7770f" stroke="#f7770f"></path><path d="M200 0L150 50L200 50Z" fill="#fc9348" stroke="#fc9348"></path><path d="M650 500L700 500L700 450Z" fill="#f7770f" stroke="#f7770f"></path><path d="M700 450L750 450L750 400Z" fill="#ffe4d0" stroke="#ffe4d0"></path><path d="M650 550L700 500L650 500Z" fill="#ffae75" stroke="#ffae75"></path><path d="M650 550L650 500L600 550Z" fill="#fc9348" stroke="#fc9348"></path><path d="M600 600L650 550L600 550Z" fill="#ffae75" stroke="#ffae75"></path><path d="M150 500L200 550L200 500Z" fill="#fea15f" stroke="#fea15f"></path><path d="M700 50L650 0L650 50Z" fill="#ffae75" stroke="#ffae75"></path><path d="M250 0L200 0L200 50Z" fill="#ffbb8c" stroke="#ffbb8c"></path><path d="M550 600L600 600L600 550Z" fill="#ffbb8c" stroke="#ffbb8c"></path><path d="M700 500L750 450L700 450Z" fill="#ffd6b9" stroke="#ffd6b9"></path><path d="M150 50L100 100L150 100Z" fill="#ffc8a2" stroke="#ffc8a2"></path><path d="M750 150L750 100L700 100Z" fill="#ffc8a2" stroke="#ffc8a2"></path><path d="M100 400L100 450L150 450Z" fill="#fc9348" stroke="#fc9348"></path><path d="M200 550L250 600L250 550Z" fill="#fff1e7" stroke="#fff1e7"></path><path d="M100 300L50 300L100 350Z" fill="#ffd6b9" stroke="#ffd6b9"></path><path d="M100 350L50 350L100 400Z" fill="#fa8530" stroke="#fa8530"></path><path d="M100 400L50 400L100 450Z" fill="#fa8530" stroke="#fa8530"></path><path d="M100 250L50 300L100 300Z" fill="#fea15f" stroke="#fea15f"></path><path d="M50 250L50 300L100 250Z" fill="#ffc8a2" stroke="#ffc8a2"></path><path d="M50 250L100 250L100 200Z" fill="#ffbb8c" stroke="#ffbb8c"></path><path d="M50 250L100 200L50 200Z" fill="#fff1e7" stroke="#fff1e7"></path><path d="M800 350L800 300L750 350Z" fill="#ffe4d0" stroke="#ffe4d0"></path><path d="M750 350L800 300L750 300Z" fill="#ffc8a2" stroke="#ffc8a2"></path><path d="M750 300L800 300L750 250Z" fill="#fc9348" stroke="#fc9348"></path><path d="M750 250L800 250L750 200Z" fill="#ffae75" stroke="#ffae75"></path><path d="M750 200L800 200L750 150Z" fill="#f7770f" stroke="#f7770f"></path><path d="M750 150L800 150L750 100Z" fill="#ffc8a2" stroke="#ffc8a2"></path><path d="M800 350L750 350L750 400Z" fill="#f7770f" stroke="#f7770f"></path><path d="M800 300L800 250L750 250Z" fill="#ffd6b9" stroke="#ffd6b9"></path><path d="M50 200L100 200L100 150Z" fill="#fc9348" stroke="#fc9348"></path><path d="M800 400L800 350L750 400Z" fill="#f7770f" stroke="#f7770f"></path><path d="M50 150L50 200L100 150Z" fill="#ffffff" stroke="#ffffff"></path><path d="M800 250L800 200L750 200Z" fill="#fea15f" stroke="#fea15f"></path><path d="M50 300L50 350L100 350Z" fill="#fa8530" stroke="#fa8530"></path><path d="M200 0L150 0L150 50Z" fill="#ffd6b9" stroke="#ffd6b9"></path><path d="M150 50L100 50L100 100Z" fill="#f7770f" stroke="#f7770f"></path><path d="M100 500L150 550L150 500Z" fill="#f7770f" stroke="#f7770f"></path><path d="M150 500L150 550L200 550Z" fill="#fff1e7" stroke="#fff1e7"></path><path d="M200 550L200 600L250 600Z" fill="#ffc8a2" stroke="#ffc8a2"></path><path d="M750 50L700 0L700 50Z" fill="#ffe4d0" stroke="#ffe4d0"></path><path d="M700 50L700 0L650 0Z" fill="#ffffff" stroke="#ffffff"></path><path d="M650 600L700 550L650 550Z" fill="#fff1e7" stroke="#fff1e7"></path><path d="M650 550L700 550L700 500Z" fill="#f7770f" stroke="#f7770f"></path><path d="M700 500L750 500L750 450Z" fill="#ffae75" stroke="#ffae75"></path><path d="M800 200L800 150L750 150Z" fill="#ffae75" stroke="#ffae75"></path><path d="M750 100L750 50L700 50Z" fill="#ffe4d0" stroke="#ffe4d0"></path><path d="M800 100L750 50L750 100Z" fill="#ffbb8c" stroke="#ffbb8c"></path><path d="M700 550L750 500L700 500Z" fill="#fa8530" stroke="#fa8530"></path><path d="M750 450L800 400L750 400Z" fill="#fff1e7" stroke="#fff1e7"></path><path d="M50 450L100 500L100 450Z" fill="#ffd6b9" stroke="#ffd6b9"></path><path d="M100 450L100 500L150 500Z" fill="#fff1e7" stroke="#fff1e7"></path><path d="M50 350L50 400L100 400Z" fill="#fff1e7" stroke="#fff1e7"></path><path d="M150 0L100 50L150 50Z" fill="#ffbb8c" stroke="#ffbb8c"></path><path d="M100 100L50 150L100 150Z" fill="#fa8530" stroke="#fa8530"></path><path d="M600 600L650 600L650 550Z" fill="#ffffff" stroke="#ffffff"></path><path d="M50 100L50 150L100 100Z" fill="#ffffff" stroke="#ffffff"></path><path d="M800 450L800 400L750 450Z" fill="#fea15f" stroke="#fea15f"></path><path d="M150 550L200 600L200 550Z" fill="#f7770f" stroke="#f7770f"></path><path d="M800 150L800 100L750 100Z" fill="#ffc8a2" stroke="#ffc8a2"></path><path d="M100 50L50 100L100 100Z" fill="#ffe4d0" stroke="#ffe4d0"></path><path d="M750 500L800 450L750 450Z" fill="#fff1e7" stroke="#fff1e7"></path><path d="M50 400L50 450L100 450Z" fill="#ffc8a2" stroke="#ffc8a2"></path><path d="M0 200L0 250L50 200Z" fill="#fc9348" stroke="#fc9348"></path><path d="M50 200L0 250L50 250Z" fill="#ffd6b9" stroke="#ffd6b9"></path><path d="M50 250L0 250L50 300Z" fill="#fea15f" stroke="#fea15f"></path><path d="M50 300L0 300L50 350Z" fill="#ffbb8c" stroke="#ffbb8c"></path><path d="M50 350L0 350L50 400Z" fill="#ffae75" stroke="#ffae75"></path><path d="M50 400L0 400L50 450Z" fill="#fc9348" stroke="#fc9348"></path><path d="M0 200L50 200L50 150Z" fill="#fa8530" stroke="#fa8530"></path><path d="M0 250L0 300L50 300Z" fill="#f7770f" stroke="#f7770f"></path><path d="M700 550L750 550L750 500Z" fill="#fa8530" stroke="#fa8530"></path><path d="M750 500L800 500L800 450Z" fill="#ffe4d0" stroke="#ffe4d0"></path><path d="M700 600L750 550L700 550Z" fill="#ffc8a2" stroke="#ffc8a2"></path><path d="M800 50L750 0L750 50Z" fill="#fa8530" stroke="#fa8530"></path><path d="M750 50L750 0L700 0Z" fill="#f7770f" stroke="#f7770f"></path><path d="M50 500L100 550L100 500Z" fill="#fc9348" stroke="#fc9348"></path><path d="M100 500L100 550L150 550Z" fill="#ffbb8c" stroke="#ffbb8c"></path><path d="M150 550L150 600L200 600Z" fill="#ffbb8c" stroke="#ffbb8c"></path><path d="M800 200L850 200L800 150Z" fill="#ffbb8c" stroke="#ffbb8c"></path><path d="M800 150L850 150L800 100Z" fill="#ffae75" stroke="#ffae75"></path><path d="M800 250L850 250L800 200Z" fill="#ffd6b9" stroke="#ffd6b9"></path><path d="M800 300L850 250L800 250Z" fill="#f7770f" stroke="#f7770f"></path><path d="M850 300L850 250L800 300Z" fill="#fa8530" stroke="#fa8530"></path><path d="M850 300L800 300L800 350Z" fill="#fc9348" stroke="#fc9348"></path><path d="M850 300L800 350L850 350Z" fill="#ffd6b9" stroke="#ffd6b9"></path><path d="M650 600L700 600L700 550Z" fill="#fff1e7" stroke="#fff1e7"></path><path d="M100 50L50 50L50 100Z" fill="#ffbb8c" stroke="#ffbb8c"></path><path d="M150 0L100 0L100 50Z" fill="#ffd6b9" stroke="#ffd6b9"></path><path d="M100 550L150 600L150 550Z" fill="#ffbb8c" stroke="#ffbb8c"></path><path d="M850 350L800 350L800 400Z" fill="#ffe4d0" stroke="#ffe4d0"></path><path d="M0 300L0 350L50 350Z" fill="#ffd6b9" stroke="#ffd6b9"></path><path d="M850 400L850 350L800 400Z" fill="#ffe4d0" stroke="#ffe4d0"></path><path d="M0 150L0 200L50 150Z" fill="#fea15f" stroke="#fea15f"></path><path d="M850 250L850 200L800 200Z" fill="#ffc8a2" stroke="#ffc8a2"></path><path d="M100 0L50 50L100 50Z" fill="#ffbb8c" stroke="#ffbb8c"></path><path d="M50 100L0 150L50 150Z" fill="#f7770f" stroke="#f7770f"></path><path d="M850 100L800 50L800 100Z" fill="#fa8530" stroke="#fa8530"></path><path d="M800 100L800 50L750 50Z" fill="#ffe4d0" stroke="#ffe4d0"></path><path d="M750 550L800 500L750 500Z" fill="#fc9348" stroke="#fc9348"></path><path d="M800 450L850 400L800 400Z" fill="#fff1e7" stroke="#fff1e7"></path><path d="M50 450L50 500L100 500Z" fill="#ffbb8c" stroke="#ffbb8c"></path><path d="M0 450L50 500L50 450Z" fill="#ffc8a2" stroke="#ffc8a2"></path><path d="M850 200L850 150L800 150Z" fill="#ffc8a2" stroke="#ffc8a2"></path><path d="M0 350L0 400L50 400Z" fill="#fea15f" stroke="#fea15f"></path><path d="M850 450L850 400L800 450Z" fill="#ffd6b9" stroke="#ffd6b9"></path><path d="M0 100L0 150L50 100Z" fill="#fc9348" stroke="#fc9348"></path><path d="M50 550L100 600L100 550Z" fill="#f7770f" stroke="#f7770f"></path><path d="M100 550L100 600L150 600Z" fill="#f7770f" stroke="#f7770f"></path><path d="M0 400L0 450L50 450Z" fill="#ffc8a2" stroke="#ffc8a2"></path><path d="M50 500L50 550L100 550Z" fill="#ffd6b9" stroke="#ffd6b9"></path><path d="M850 150L850 100L800 100Z" fill="#fc9348" stroke="#fc9348"></path><path d="M50 50L0 100L50 100Z" fill="#ffffff" stroke="#ffffff"></path><path d="M800 500L850 450L800 450Z" fill="#ffbb8c" stroke="#ffbb8c"></path><path d="M700 600L750 600L750 550Z" fill="#fa8530" stroke="#fa8530"></path><path d="M750 550L800 550L800 500Z" fill="#ffe4d0" stroke="#ffe4d0"></path><path d="M800 500L850 500L850 450Z" fill="#fa8530" stroke="#fa8530"></path><path d="M850 50L800 0L800 50Z" fill="#fc9348" stroke="#fc9348"></path><path d="M800 50L800 0L750 0Z" fill="#fc9348" stroke="#fc9348"></path><path d="M100 0L50 0L50 50Z" fill="#f7770f" stroke="#f7770f"></path><path d="M50 50L0 50L0 100Z" fill="#ffd6b9" stroke="#ffd6b9"></path><path d="M750 600L800 550L750 550Z" fill="#ffae75" stroke="#ffae75"></path><path d="M0 500L50 550L50 500Z" fill="#fea15f" stroke="#fea15f"></path><path d="M900 350L850 350L850 400Z" fill="#fa8530" stroke="#fa8530"></path><path d="M900 350L900 300L850 350Z" fill="#ffffff" stroke="#ffffff"></path><path d="M850 350L900 300L850 300Z" fill="#ffd6b9" stroke="#ffd6b9"></path><path d="M850 300L900 300L850 250Z" fill="#f7770f" stroke="#f7770f"></path><path d="M850 250L900 250L850 200Z" fill="#ffd6b9" stroke="#ffd6b9"></path><path d="M850 200L900 200L850 150Z" fill="#fc9348" stroke="#fc9348"></path><path d="M850 150L900 150L850 100Z" fill="#fa8530" stroke="#fa8530"></path><path d="M900 300L900 250L850 250Z" fill="#ffe4d0" stroke="#ffe4d0"></path><path d="M900 250L900 200L850 200Z" fill="#ffc8a2" stroke="#ffc8a2"></path><path d="M0 450L0 500L50 500Z" fill="#fff1e7" stroke="#fff1e7"></path><path d="M900 400L900 350L850 400Z" fill="#ffae75" stroke="#ffae75"></path><path d="M900 100L850 50L850 100Z" fill="#fa8530" stroke="#fa8530"></path><path d="M850 100L850 50L800 50Z" fill="#ffe4d0" stroke="#ffe4d0"></path><path d="M800 550L850 500L800 500Z" fill="#ffae75" stroke="#ffae75"></path><path d="M850 450L900 400L850 400Z" fill="#ffbb8c" stroke="#ffbb8c"></path><path d="M50 0L0 50L50 50Z" fill="#f7770f" stroke="#f7770f"></path><path d="M900 450L900 400L850 450Z" fill="#fc9348" stroke="#fc9348"></path><path d="M900 200L900 150L850 150Z" fill="#ffe4d0" stroke="#ffe4d0"></path><path d="M800 550L850 550L850 500Z" fill="#f7770f" stroke="#f7770f"></path><path d="M750 600L800 600L800 550Z" fill="#fff1e7" stroke="#fff1e7"></path><path d="M0 550L50 600L50 550Z" fill="#ffd6b9" stroke="#ffd6b9"></path><path d="M50 550L50 600L100 600Z" fill="#ffae75" stroke="#ffae75"></path><path d="M50 0L0 0L0 50Z" fill="#ffae75" stroke="#ffae75"></path><path d="M800 600L850 550L800 550Z" fill="#fc9348" stroke="#fc9348"></path><path d="M850 500L900 450L850 450Z" fill="#ffbb8c" stroke="#ffbb8c"></path><path d="M0 500L0 550L50 550Z" fill="#ffd6b9" stroke="#ffd6b9"></path><path d="M900 500L900 450L850 500Z" fill="#ffae75" stroke="#ffae75"></path><path d="M900 150L900 100L850 100Z" fill="#ffe4d0" stroke="#ffe4d0"></path><path d="M900 50L850 0L850 50Z" fill="#ffae75" stroke="#ffae75"></path><path d="M850 50L850 0L800 0Z" fill="#ffc8a2" stroke="#ffc8a2"></path><path d="M850 550L900 500L850 500Z" fill="#ffd6b9" stroke="#ffd6b9"></path><path d="M900 100L900 50L850 50Z" fill="#ffffff" stroke="#ffffff"></path><path d="M0 550L0 600L50 600Z" fill="#fa8530" stroke="#fa8530"></path><path d="M800 600L850 600L850 550Z" fill="#fa8530" stroke="#fa8530"></path><path d="M850 550L900 550L900 500Z" fill="#ffbb8c" stroke="#ffbb8c"></path><path d="M850 600L900 550L850 550Z" fill="#f7770f" stroke="#f7770f"></path><path d="M900 50L900 0L850 0Z" fill="#fff1e7" stroke="#fff1e7"></path><path d="M850 600L900 600L900 550Z" fill="#fc9348" stroke="#fc9348"></path></g></svg>