<svg id="visual" viewBox="0 0 900 600" width="900" height="600" xmlns="http://www.w3.org/2000/svg" xmlns:xlink="http://www.w3.org/1999/xlink" version="1.1"><rect width="900" height="600" fill="#f3bcb7"></rect><g><g transform="translate(826 120)"><path d="M0 -13.1L13.1 0L0 13.1L-13.1 0Z" fill="#F7770F"></path></g><g transform="translate(69 218)"><path d="M0 -10L10 0L0 10L-10 0Z" fill="#F7770F"></path></g><g transform="translate(564 3)"><path d="M0 -8L8 0L0 8L-8 0Z" fill="#F7770F"></path></g><g transform="translate(863 15)"><path d="M0 -11L11 0L0 11L-11 0Z" fill="#F7770F"></path></g><g transform="translate(188 399)"><path d="M0 -11L11 0L0 11L-11 0Z" fill="#F7770F"></path></g><g transform="translate(645 464)"><path d="M0 -8L8 0L0 8L-8 0Z" fill="#F7770F"></path></g><g transform="translate(549 187)"><path d="M0 -6L6 0L0 6L-6 0Z" fill="#F7770F"></path></g><g transform="translate(675 379)"><path d="M0 -7L7 0L0 7L-7 0Z" fill="#F7770F"></path></g><g transform="translate(63 22)"><path d="M0 -7L7 0L0 7L-7 0Z" fill="#F7770F"></path></g><g transform="translate(650 7)"><path d="M0 -6L6 0L0 6L-6 0Z" fill="#F7770F"></path></g><g transform="translate(459 48)"><path d="M0 -6L6 0L0 6L-6 0Z" fill="#F7770F"></path></g><g transform="translate(647 95)"><path d="M0 -12L12 0L0 12L-12 0Z" fill="#F7770F"></path></g><g transform="translate(748 167)"><path d="M0 -7L7 0L0 7L-7 0Z" fill="#F7770F"></path></g><g transform="translate(135 295)"><path d="M0 -12L12 0L0 12L-12 0Z" fill="#F7770F"></path></g><g transform="translate(172 66)"><path d="M0 -7L7 0L0 7L-7 0Z" fill="#F7770F"></path></g><g transform="translate(610 140)"><path d="M0 -8L8 0L0 8L-8 0Z" fill="#F7770F"></path></g><g transform="translate(720 579)"><path d="M0 -8L8 0L0 8L-8 0Z" fill="#F7770F"></path></g><g transform="translate(51 519)"><path d="M0 -6L6 0L0 6L-6 0Z" fill="#F7770F"></path></g><g transform="translate(734 400)"><path d="M0 -11L11 0L0 11L-11 0Z" fill="#F7770F"></path></g><g transform="translate(764 457)"><path d="M0 -9L9 0L0 9L-9 0Z" fill="#F7770F"></path></g><g transform="translate(378 421)"><path d="M0 -12L12 0L0 12L-12 0Z" fill="#F7770F"></path></g><g transform="translate(720 109)"><path d="M0 -8L8 0L0 8L-8 0Z" fill="#F7770F"></path></g><g transform="translate(248 114)"><path d="M0 -8L8 0L0 8L-8 0Z" fill="#F7770F"></path></g><g transform="translate(334 181)"><path d="M0 -6L6 0L0 6L-6 0Z" fill="#F7770F"></path></g><g transform="translate(407 141)"><path d="M0 -6L6 0L0 6L-6 0Z" fill="#F7770F"></path></g><g transform="translate(156 334)"><path d="M0 -7L7 0L0 7L-7 0Z" fill="#F7770F"></path></g><g transform="translate(440 12)"><path d="M0 -9L9 0L0 9L-9 0Z" fill="#F7770F"></path></g><g transform="translate(816 23)"><path d="M0 -10L10 0L0 10L-10 0Z" fill="#F7770F"></path></g><g transform="translate(430 331)"><path d="M0 -8L8 0L0 8L-8 0Z" fill="#F7770F"></path></g><g transform="translate(561 411)"><path d="M0 -11L11 0L0 11L-11 0Z" fill="#F7770F"></path></g><g transform="translate(276 334)"><path d="M0 -9L9 0L0 9L-9 0Z" fill="#F7770F"></path></g><g transform="translate(134 571)"><path d="M0 -8L8 0L0 8L-8 0Z" fill="#F7770F"></path></g><g transform="translate(462 444)"><path d="M0 -10L10 0L0 10L-10 0Z" fill="#F7770F"></path></g><g transform="translate(803 578)"><path d="M0 -8L8 0L0 8L-8 0Z" fill="#F7770F"></path></g><g transform="translate(372 349)"><path d="M0 -7L7 0L0 7L-7 0Z" fill="#F7770F"></path></g><g transform="translate(393 573)"><path d="M0 -7L7 0L0 7L-7 0Z" fill="#F7770F"></path></g><g transform="translate(21 67)"><path d="M0 -8L8 0L0 8L-8 0Z" fill="#F7770F"></path></g><g transform="translate(444 278)"><path d="M0 -11L11 0L0 11L-11 0Z" fill="#F7770F"></path></g><g transform="translate(524 16)"><path d="M0 -6L6 0L0 6L-6 0Z" fill="#F7770F"></path></g><g transform="translate(99 129)"><path d="M0 -8L8 0L0 8L-8 0Z" fill="#F7770F"></path></g><g transform="translate(433 146)"><path d="M0 -6L6 0L0 6L-6 0Z" fill="#F7770F"></path></g><g transform="translate(438 213)"><path d="M0 -10L10 0L0 10L-10 0Z" fill="#F7770F"></path></g><g transform="translate(295 506)"><path d="M0 -6L6 0L0 6L-6 0Z" fill="#F7770F"></path></g><g transform="translate(385 449)"><path d="M0 -6L6 0L0 6L-6 0Z" fill="#F7770F"></path></g><g transform="translate(634 589)"><path d="M0 -10L10 0L0 10L-10 0Z" fill="#F7770F"></path></g><g transform="translate(14 503)"><path d="M0 -9L9 0L0 9L-9 0Z" fill="#F7770F"></path></g><g transform="translate(546 550)"><path d="M0 -8L8 0L0 8L-8 0Z" fill="#F7770F"></path></g><g transform="translate(27 591)"><path d="M0 -9L9 0L0 9L-9 0Z" fill="#F7770F"></path></g><g transform="translate(680 560)"><path d="M0 -10L10 0L0 10L-10 0Z" fill="#F7770F"></path></g><g transform="translate(60 285)"><path d="M0 -8L8 0L0 8L-8 0Z" fill="#F7770F"></path></g><g transform="translate(79 563)"><path d="M0 -12L12 0L0 12L-12 0Z" fill="#F7770F"></path></g><g transform="translate(758 271)"><path d="M0 -7L7 0L0 7L-7 0Z" fill="#F7770F"></path></g><g transform="translate(629 119)"><path d="M0 -9L9 0L0 9L-9 0Z" fill="#F7770F"></path></g><g transform="translate(355 532)"><path d="M0 -9L9 0L0 9L-9 0Z" fill="#F7770F"></path></g><g transform="translate(320 494)"><path d="M0 -10L10 0L0 10L-10 0Z" fill="#F7770F"></path></g><g transform="translate(110 518)"><path d="M0 -10L10 0L0 10L-10 0Z" fill="#F7770F"></path></g><g transform="translate(569 535)"><path d="M0 -9L9 0L0 9L-9 0Z" fill="#F7770F"></path></g><g transform="translate(785 79)"><path d="M0 -6L6 0L0 6L-6 0Z" fill="#F7770F"></path></g><g transform="translate(68 349)"><path d="M0 -7L7 0L0 7L-7 0Z" fill="#F7770F"></path></g><g transform="translate(267 559)"><path d="M0 -7L7 0L0 7L-7 0Z" fill="#F7770F"></path></g><g transform="translate(386 256)"><path d="M0 -12L12 0L0 12L-12 0Z" fill="#F7770F"></path></g><g transform="translate(146 439)"><path d="M0 -7L7 0L0 7L-7 0Z" fill="#F7770F"></path></g><g transform="translate(219 135)"><path d="M0 -11L11 0L0 11L-11 0Z" fill="#F7770F"></path></g><g transform="translate(167 237)"><path d="M0 -8L8 0L0 8L-8 0Z" fill="#F7770F"></path></g><g transform="translate(180 159)"><path d="M0 -12L12 0L0 12L-12 0Z" fill="#F7770F"></path></g><g transform="translate(92 361)"><path d="M0 -6L6 0L0 6L-6 0Z" fill="#F7770F"></path></g><g transform="translate(132 255)"><path d="M0 -12L12 0L0 12L-12 0Z" fill="#F7770F"></path></g><g transform="translate(33 154)"><path d="M0 -9L9 0L0 9L-9 0Z" fill="#F7770F"></path></g><g transform="translate(896 129)"><path d="M0 -12L12 0L0 12L-12 0Z" fill="#F7770F"></path></g><g transform="translate(524 590)"><path d="M0 -9L9 0L0 9L-9 0Z" fill="#F7770F"></path></g><g transform="translate(771 559)"><path d="M0 -9L9 0L0 9L-9 0Z" fill="#F7770F"></path></g><g transform="translate(582 212)"><path d="M0 -12L12 0L0 12L-12 0Z" fill="#F7770F"></path></g><g transform="translate(431 461)"><path d="M0 -11L11 0L0 11L-11 0Z" fill="#F7770F"></path></g><g transform="translate(229 234)"><path d="M0 -7L7 0L0 7L-7 0Z" fill="#F7770F"></path></g><g transform="translate(498 304)"><path d="M0 -7L7 0L0 7L-7 0Z" fill="#F7770F"></path></g><g transform="translate(787 194)"><path d="M0 -10L10 0L0 10L-10 0Z" fill="#F7770F"></path></g><g transform="translate(320 285)"><path d="M0 -9L9 0L0 9L-9 0Z" fill="#F7770F"></path></g><g transform="translate(621 388)"><path d="M0 -9L9 0L0 9L-9 0Z" fill="#F7770F"></path></g><g transform="translate(656 522)"><path d="M0 -11L11 0L0 11L-11 0Z" fill="#F7770F"></path></g><g transform="translate(798 514)"><path d="M0 -10L10 0L0 10L-10 0Z" fill="#F7770F"></path></g><g transform="translate(501 459)"><path d="M0 -12L12 0L0 12L-12 0Z" fill="#F7770F"></path></g><g transform="translate(244 283)"><path d="M0 -10L10 0L0 10L-10 0Z" fill="#F7770F"></path></g><g transform="translate(529 282)"><path d="M0 -12L12 0L0 12L-12 0Z" fill="#F7770F"></path></g><g transform="translate(678 101)"><path d="M0 -8L8 0L0 8L-8 0Z" fill="#F7770F"></path></g><g transform="translate(72 436)"><path d="M0 -9L9 0L0 9L-9 0Z" fill="#F7770F"></path></g><g transform="translate(328 565)"><path d="M0 -9L9 0L0 9L-9 0Z" fill="#F7770F"></path></g><g transform="translate(650 180)"><path d="M0 -6L6 0L0 6L-6 0Z" fill="#F7770F"></path></g><g transform="translate(458 549)"><path d="M0 -6L6 0L0 6L-6 0Z" fill="#F7770F"></path></g><g transform="translate(686 333)"><path d="M0 -12L12 0L0 12L-12 0Z" fill="#F7770F"></path></g><g transform="translate(473 92)"><path d="M0 -8L8 0L0 8L-8 0Z" fill="#F7770F"></path></g><g transform="translate(653 313)"><path d="M0 -8L8 0L0 8L-8 0Z" fill="#F7770F"></path></g><g transform="translate(256 360)"><path d="M0 -11L11 0L0 11L-11 0Z" fill="#F7770F"></path></g><g transform="translate(562 314)"><path d="M0 -9L9 0L0 9L-9 0Z" fill="#F7770F"></path></g><g transform="translate(653 359)"><path d="M0 -8L8 0L0 8L-8 0Z" fill="#F7770F"></path></g><g transform="translate(153 388)"><path d="M0 -8L8 0L0 8L-8 0Z" fill="#F7770F"></path></g><g transform="translate(739 241)"><path d="M0 -9L9 0L0 9L-9 0Z" fill="#F7770F"></path></g><g transform="translate(746 124)"><path d="M0 -12L12 0L0 12L-12 0Z" fill="#F7770F"></path></g><g transform="translate(751 319)"><path d="M0 -7L7 0L0 7L-7 0Z" fill="#F7770F"></path></g><g transform="translate(854 160)"><path d="M0 -6L6 0L0 6L-6 0Z" fill="#F7770F"></path></g><g transform="translate(834 454)"><path d="M0 -6L6 0L0 6L-6 0Z" fill="#F7770F"></path></g><g transform="translate(858 288)"><path d="M0 -8L8 0L0 8L-8 0Z" fill="#F7770F"></path></g><g transform="translate(290 357)"><path d="M0 -9L9 0L0 9L-9 0Z" fill="#F7770F"></path></g><g transform="translate(231 445)"><path d="M0 -8L8 0L0 8L-8 0Z" fill="#F7770F"></path></g><g transform="translate(661 278)"><path d="M0 -9L9 0L0 9L-9 0Z" fill="#F7770F"></path></g><g transform="translate(791 452)"><path d="M0 -6L6 0L0 6L-6 0Z" fill="#F7770F"></path></g><g transform="translate(517 409)"><path d="M0 -8L8 0L0 8L-8 0Z" fill="#F7770F"></path></g><g transform="translate(553 29)"><path d="M0 -10L10 0L0 10L-10 0Z" fill="#F7770F"></path></g><g transform="translate(322 251)"><path d="M0 -6L6 0L0 6L-6 0Z" fill="#F7770F"></path></g><g transform="translate(762 382)"><path d="M0 -11L11 0L0 11L-11 0Z" fill="#F7770F"></path></g><g transform="translate(878 553)"><path d="M0 -6L6 0L0 6L-6 0Z" fill="#F7770F"></path></g><g transform="translate(105 413)"><path d="M0 -7L7 0L0 7L-7 0Z" fill="#F7770F"></path></g><g transform="translate(141 542)"><path d="M0 -9L9 0L0 9L-9 0Z" fill="#F7770F"></path></g><g transform="translate(29 121)"><path d="M0 -11L11 0L0 11L-11 0Z" fill="#F7770F"></path></g><g transform="translate(160 468)"><path d="M0 -11L11 0L0 11L-11 0Z" fill="#F7770F"></path></g><g transform="translate(757 52)"><path d="M0 -7L7 0L0 7L-7 0Z" fill="#F7770F"></path></g><g transform="translate(868 476)"><path d="M0 -8L8 0L0 8L-8 0Z" fill="#F7770F"></path></g><g transform="translate(831 218)"><path d="M0 -6L6 0L0 6L-6 0Z" fill="#F7770F"></path></g><g transform="translate(7 441)"><path d="M0 -6L6 0L0 6L-6 0Z" fill="#F7770F"></path></g><g transform="translate(546 229)"><path d="M0 -9L9 0L0 9L-9 0Z" fill="#F7770F"></path></g><g transform="translate(676 70)"><path d="M0 -9L9 0L0 9L-9 0Z" fill="#F7770F"></path></g><g transform="translate(381 376)"><path d="M0 -7L7 0L0 7L-7 0Z" fill="#F7770F"></path></g><g transform="translate(475 255)"><path d="M0 -10L10 0L0 10L-10 0Z" fill="#F7770F"></path></g><g transform="translate(302 536)"><path d="M0 -7L7 0L0 7L-7 0Z" fill="#F7770F"></path></g><g transform="translate(502 255)"><path d="M0 -8L8 0L0 8L-8 0Z" fill="#F7770F"></path></g><g transform="translate(823 548)"><path d="M0 -9L9 0L0 9L-9 0Z" fill="#F7770F"></path></g><g transform="translate(801 360)"><path d="M0 -12L12 0L0 12L-12 0Z" fill="#F7770F"></path></g><g transform="translate(389 475)"><path d="M0 -12L12 0L0 12L-12 0Z" fill="#F7770F"></path></g><g transform="translate(695 261)"><path d="M0 -6L6 0L0 6L-6 0Z" fill="#F7770F"></path></g><g transform="translate(692 218)"><path d="M0 -9L9 0L0 9L-9 0Z" fill="#F7770F"></path></g><g transform="translate(77 189)"><path d="M0 -7L7 0L0 7L-7 0Z" fill="#F7770F"></path></g><g transform="translate(196 310)"><path d="M0 -7L7 0L0 7L-7 0Z" fill="#F7770F"></path></g><g transform="translate(261 187)"><path d="M0 -8L8 0L0 8L-8 0Z" fill="#F7770F"></path></g><g transform="translate(275 469)"><path d="M0 -6L6 0L0 6L-6 0Z" fill="#F7770F"></path></g><g transform="translate(224 78)"><path d="M0 -10L10 0L0 10L-10 0Z" fill="#F7770F"></path></g><g transform="translate(32 16)"><path d="M0 -7L7 0L0 7L-7 0Z" fill="#F7770F"></path></g><g transform="translate(361 82)"><path d="M0 -12L12 0L0 12L-12 0Z" fill="#F7770F"></path></g><g transform="translate(619 419)"><path d="M0 -12L12 0L0 12L-12 0Z" fill="#F7770F"></path></g><g transform="translate(663 212)"><path d="M0 -11L11 0L0 11L-11 0Z" fill="#F7770F"></path></g><g transform="translate(824 404)"><path d="M0 -9L9 0L0 9L-9 0Z" fill="#F7770F"></path></g><g transform="translate(463 577)"><path d="M0 -12L12 0L0 12L-12 0Z" fill="#F7770F"></path></g><g transform="translate(296 419)"><path d="M0 -10L10 0L0 10L-10 0Z" fill="#F7770F"></path></g><g transform="translate(524 523)"><path d="M0 -11L11 0L0 11L-11 0Z" fill="#F7770F"></path></g><g transform="translate(488 42)"><path d="M0 -6L6 0L0 6L-6 0Z" fill="#F7770F"></path></g><g transform="translate(729 523)"><path d="M0 -7L7 0L0 7L-7 0Z" fill="#F7770F"></path></g><g transform="translate(350 292)"><path d="M0 -12L12 0L0 12L-12 0Z" fill="#F7770F"></path></g><g transform="translate(399 174)"><path d="M0 -8L8 0L0 8L-8 0Z" fill="#F7770F"></path></g><g transform="translate(354 502)"><path d="M0 -6L6 0L0 6L-6 0Z" fill="#F7770F"></path></g><g transform="translate(661 126)"><path d="M0 -10L10 0L0 10L-10 0Z" fill="#F7770F"></path></g><g transform="translate(759 505)"><path d="M0 -9L9 0L0 9L-9 0Z" fill="#F7770F"></path></g><g transform="translate(317 380)"><path d="M0 -9L9 0L0 9L-9 0Z" fill="#F7770F"></path></g><g transform="translate(887 100)"><path d="M0 -12L12 0L0 12L-12 0Z" fill="#F7770F"></path></g><g transform="translate(462 163)"><path d="M0 -12L12 0L0 12L-12 0Z" fill="#F7770F"></path></g><g transform="translate(155 192)"><path d="M0 -9L9 0L0 9L-9 0Z" fill="#F7770F"></path></g><g transform="translate(697 124)"><path d="M0 -8L8 0L0 8L-8 0Z" fill="#F7770F"></path></g><g transform="translate(877 402)"><path d="M0 -9L9 0L0 9L-9 0Z" fill="#F7770F"></path></g><g transform="translate(783 114)"><path d="M0 -12L12 0L0 12L-12 0Z" fill="#F7770F"></path></g><g transform="translate(499 79)"><path d="M0 -8L8 0L0 8L-8 0Z" fill="#F7770F"></path></g><g transform="translate(419 92)"><path d="M0 -12L12 0L0 12L-12 0Z" fill="#F7770F"></path></g><g transform="translate(339 105)"><path d="M0 -11L11 0L0 11L-11 0Z" fill="#F7770F"></path></g><g transform="translate(637 560)"><path d="M0 -12L12 0L0 12L-12 0Z" fill="#F7770F"></path></g><g transform="translate(524 488)"><path d="M0 -8L8 0L0 8L-8 0Z" fill="#F7770F"></path></g><g transform="translate(227 380)"><path d="M0 -9L9 0L0 9L-9 0Z" fill="#F7770F"></path></g><g transform="translate(629 198)"><path d="M0 -6L6 0L0 6L-6 0Z" fill="#F7770F"></path></g><g transform="translate(852 126)"><path d="M0 -6L6 0L0 6L-6 0Z" fill="#F7770F"></path></g><g transform="translate(479 189)"><path d="M0 -12L12 0L0 12L-12 0Z" fill="#F7770F"></path></g><g transform="translate(841 382)"><path d="M0 -9L9 0L0 9L-9 0Z" fill="#F7770F"></path></g><g transform="translate(524 51)"><path d="M0 -12L12 0L0 12L-12 0Z" fill="#F7770F"></path></g><g transform="translate(117 44)"><path d="M0 -6L6 0L0 6L-6 0Z" fill="#F7770F"></path></g><g transform="translate(448 384)"><path d="M0 -10L10 0L0 10L-10 0Z" fill="#F7770F"></path></g><g transform="translate(24 203)"><path d="M0 -6L6 0L0 6L-6 0Z" fill="#F7770F"></path></g><g transform="translate(556 589)"><path d="M0 -10L10 0L0 10L-10 0Z" fill="#F7770F"></path></g><g transform="translate(262 87)"><path d="M0 -7L7 0L0 7L-7 0Z" fill="#F7770F"></path></g><g transform="translate(746 77)"><path d="M0 -9L9 0L0 9L-9 0Z" fill="#F7770F"></path></g><g transform="translate(705 160)"><path d="M0 -12L12 0L0 12L-12 0Z" fill="#F7770F"></path></g><g transform="translate(827 317)"><path d="M0 -9L9 0L0 9L-9 0Z" fill="#F7770F"></path></g><g transform="translate(139 63)"><path d="M0 -9L9 0L0 9L-9 0Z" fill="#F7770F"></path></g><g transform="translate(352 146)"><path d="M0 -9L9 0L0 9L-9 0Z" fill="#F7770F"></path></g><g transform="translate(11 376)"><path d="M0 -11L11 0L0 11L-11 0Z" fill="#F7770F"></path></g><g transform="translate(888 219)"><path d="M0 -11L11 0L0 11L-11 0Z" fill="#F7770F"></path></g><g transform="translate(105 73)"><path d="M0 -9L9 0L0 9L-9 0Z" fill="#F7770F"></path></g><g transform="translate(892 250)"><path d="M0 -10L10 0L0 10L-10 0Z" fill="#F7770F"></path></g><g transform="translate(597 540)"><path d="M0 -11L11 0L0 11L-11 0Z" fill="#F7770F"></path></g><g transform="translate(245 152)"><path d="M0 -10L10 0L0 10L-10 0Z" fill="#F7770F"></path></g><g transform="translate(220 556)"><path d="M0 -10L10 0L0 10L-10 0Z" fill="#F7770F"></path></g><g transform="translate(498 596)"><path d="M0 -9L9 0L0 9L-9 0Z" fill="#F7770F"></path></g><g transform="translate(217 493)"><path d="M0 -12L12 0L0 12L-12 0Z" fill="#F7770F"></path></g><g transform="translate(286 303)"><path d="M0 -7L7 0L0 7L-7 0Z" fill="#F7770F"></path></g><g transform="translate(407 392)"><path d="M0 -12L12 0L0 12L-12 0Z" fill="#F7770F"></path></g><g transform="translate(879 50)"><path d="M0 -11L11 0L0 11L-11 0Z" fill="#F7770F"></path></g><g transform="translate(865 435)"><path d="M0 -8L8 0L0 8L-8 0Z" fill="#F7770F"></path></g><g transform="translate(695 506)"><path d="M0 -6L6 0L0 6L-6 0Z" fill="#F7770F"></path></g><g transform="translate(139 497)"><path d="M0 -10L10 0L0 10L-10 0Z" fill="#F7770F"></path></g><g transform="translate(316 47)"><path d="M0 -10L10 0L0 10L-10 0Z" fill="#F7770F"></path></g><g transform="translate(3 100)"><path d="M0 -12L12 0L0 12L-12 0Z" fill="#F7770F"></path></g><g transform="translate(102 162)"><path d="M0 -12L12 0L0 12L-12 0Z" fill="#F7770F"></path></g><g transform="translate(597 46)"><path d="M0 -12L12 0L0 12L-12 0Z" fill="#F7770F"></path></g><g transform="translate(592 288)"><path d="M0 -9L9 0L0 9L-9 0Z" fill="#F7770F"></path></g><g transform="translate(329 464)"><path d="M0 -8L8 0L0 8L-8 0Z" fill="#F7770F"></path></g><g transform="translate(539 343)"><path d="M0 -7L7 0L0 7L-7 0Z" fill="#F7770F"></path></g><g transform="translate(463 337)"><path d="M0 -11L11 0L0 11L-11 0Z" fill="#F7770F"></path></g><g transform="translate(481 10)"><path d="M0 -11L11 0L0 11L-11 0Z" fill="#F7770F"></path></g><g transform="translate(520 103)"><path d="M0 -10L10 0L0 10L-10 0Z" fill="#F7770F"></path></g><g transform="translate(546 109)"><path d="M0 -12L12 0L0 12L-12 0Z" fill="#F7770F"></path></g><g transform="translate(580 440)"><path d="M0 -11L11 0L0 11L-11 0Z" fill="#F7770F"></path></g><g transform="translate(462 307)"><path d="M0 -12L12 0L0 12L-12 0Z" fill="#F7770F"></path></g><g transform="translate(698 292)"><path d="M0 -10L10 0L0 10L-10 0Z" fill="#F7770F"></path></g><g transform="translate(899 169)"><path d="M0 -11L11 0L0 11L-11 0Z" fill="#F7770F"></path></g><g transform="translate(709 465)"><path d="M0 -6L6 0L0 6L-6 0Z" fill="#F7770F"></path></g><g transform="translate(727 269)"><path d="M0 -8L8 0L0 8L-8 0Z" fill="#F7770F"></path></g><g transform="translate(77 255)"><path d="M0 -6L6 0L0 6L-6 0Z" fill="#F7770F"></path></g><g transform="translate(843 503)"><path d="M0 -8L8 0L0 8L-8 0Z" fill="#F7770F"></path></g><g transform="translate(48 563)"><path d="M0 -7L7 0L0 7L-7 0Z" fill="#F7770F"></path></g><g transform="translate(181 427)"><path d="M0 -12L12 0L0 12L-12 0Z" fill="#F7770F"></path></g><g transform="translate(491 509)"><path d="M0 -11L11 0L0 11L-11 0Z" fill="#F7770F"></path></g><g transform="translate(727 142)"><path d="M0 -9L9 0L0 9L-9 0Z" fill="#F7770F"></path></g><g transform="translate(834 255)"><path d="M0 -9L9 0L0 9L-9 0Z" fill="#F7770F"></path></g><g transform="translate(780 336)"><path d="M0 -9L9 0L0 9L-9 0Z" fill="#F7770F"></path></g><g transform="translate(637 254)"><path d="M0 -7L7 0L0 7L-7 0Z" fill="#F7770F"></path></g><g transform="translate(156 126)"><path d="M0 -8L8 0L0 8L-8 0Z" fill="#F7770F"></path></g><g transform="translate(42 475)"><path d="M0 -6L6 0L0 6L-6 0Z" fill="#F7770F"></path></g><g transform="translate(190 185)"><path d="M0 -11L11 0L0 11L-11 0Z" fill="#F7770F"></path></g><g transform="translate(489 383)"><path d="M0 -8L8 0L0 8L-8 0Z" fill="#F7770F"></path></g><g transform="translate(46 377)"><path d="M0 -7L7 0L0 7L-7 0Z" fill="#F7770F"></path></g><g transform="translate(61 401)"><path d="M0 -8L8 0L0 8L-8 0Z" fill="#F7770F"></path></g><g transform="translate(884 282)"><path d="M0 -8L8 0L0 8L-8 0Z" fill="#F7770F"></path></g><g transform="translate(353 326)"><path d="M0 -7L7 0L0 7L-7 0Z" fill="#F7770F"></path></g><g transform="translate(404 232)"><path d="M0 -8L8 0L0 8L-8 0Z" fill="#F7770F"></path></g><g transform="translate(64 150)"><path d="M0 -10L10 0L0 10L-10 0Z" fill="#F7770F"></path></g><g transform="translate(592 178)"><path d="M0 -6L6 0L0 6L-6 0Z" fill="#F7770F"></path></g><g transform="translate(47 49)"><path d="M0 -9L9 0L0 9L-9 0Z" fill="#F7770F"></path></g><g transform="translate(839 189)"><path d="M0 -11L11 0L0 11L-11 0Z" fill="#F7770F"></path></g><g transform="translate(801 276)"><path d="M0 -10L10 0L0 10L-10 0Z" fill="#F7770F"></path></g><g transform="translate(356 209)"><path d="M0 -12L12 0L0 12L-12 0Z" fill="#F7770F"></path></g><g transform="translate(309 334)"><path d="M0 -8L8 0L0 8L-8 0Z" fill="#F7770F"></path></g><g transform="translate(9 538)"><path d="M0 -11L11 0L0 11L-11 0Z" fill="#F7770F"></path></g><g transform="translate(692 407)"><path d="M0 -6L6 0L0 6L-6 0Z" fill="#F7770F"></path></g><g transform="translate(15 244)"><path d="M0 -10L10 0L0 10L-10 0Z" fill="#F7770F"></path></g><g transform="translate(423 507)"><path d="M0 -6L6 0L0 6L-6 0Z" fill="#F7770F"></path></g><g transform="translate(778 23)"><path d="M0 -7L7 0L0 7L-7 0Z" fill="#F7770F"></path></g><g transform="translate(44 245)"><path d="M0 -7L7 0L0 7L-7 0Z" fill="#F7770F"></path></g><g transform="translate(666 586)"><path d="M0 -6L6 0L0 6L-6 0Z" fill="#F7770F"></path></g><g transform="translate(38 326)"><path d="M0 -12L12 0L0 12L-12 0Z" fill="#F7770F"></path></g><g transform="translate(652 394)"><path d="M0 -7L7 0L0 7L-7 0Z" fill="#F7770F"></path></g><g transform="translate(335 416)"><path d="M0 -10L10 0L0 10L-10 0Z" fill="#F7770F"></path></g><g transform="translate(411 282)"><path d="M0 -7L7 0L0 7L-7 0Z" fill="#F7770F"></path></g><g transform="translate(718 28)"><path d="M0 -7L7 0L0 7L-7 0Z" fill="#F7770F"></path></g><g transform="translate(610 235)"><path d="M0 -6L6 0L0 6L-6 0Z" fill="#F7770F"></path></g><g transform="translate(677 167)"><path d="M0 -7L7 0L0 7L-7 0Z" fill="#F7770F"></path></g><g transform="translate(186 90)"><path d="M0 -6L6 0L0 6L-6 0Z" fill="#F7770F"></path></g><g transform="translate(895 351)"><path d="M0 -12L12 0L0 12L-12 0Z" fill="#F7770F"></path></g><g transform="translate(200 248)"><path d="M0 -7L7 0L0 7L-7 0Z" fill="#F7770F"></path></g><g transform="translate(222 345)"><path d="M0 -12L12 0L0 12L-12 0Z" fill="#F7770F"></path></g><g transform="translate(554 483)"><path d="M0 -8L8 0L0 8L-8 0Z" fill="#F7770F"></path></g><g transform="translate(614 269)"><path d="M0 -12L12 0L0 12L-12 0Z" fill="#F7770F"></path></g><g transform="translate(9 475)"><path d="M0 -10L10 0L0 10L-10 0Z" fill="#F7770F"></path></g><g transform="translate(2 21)"><path d="M0 -7L7 0L0 7L-7 0Z" fill="#F7770F"></path></g><g transform="translate(245 515)"><path d="M0 -10L10 0L0 10L-10 0Z" fill="#F7770F"></path></g><g transform="translate(533 137)"><path d="M0 -12L12 0L0 12L-12 0Z" fill="#F7770F"></path></g><g transform="translate(428 359)"><path d="M0 -11L11 0L0 11L-11 0Z" fill="#F7770F"></path></g><g transform="translate(624 19)"><path d="M0 -8L8 0L0 8L-8 0Z" fill="#F7770F"></path></g><g transform="translate(491 569)"><path d="M0 -10L10 0L0 10L-10 0Z" fill="#F7770F"></path></g><g transform="translate(735 6)"><path d="M0 -10L10 0L0 10L-10 0Z" fill="#F7770F"></path></g><g transform="translate(399 312)"><path d="M0 -6L6 0L0 6L-6 0Z" fill="#F7770F"></path></g><g transform="translate(266 20)"><path d="M0 -12L12 0L0 12L-12 0Z" fill="#F7770F"></path></g><g transform="translate(180 569)"><path d="M0 -10L10 0L0 10L-10 0Z" fill="#F7770F"></path></g><g transform="translate(354 380)"><path d="M0 -10L10 0L0 10L-10 0Z" fill="#F7770F"></path></g><g transform="translate(196 541)"><path d="M0 -8L8 0L0 8L-8 0Z" fill="#F7770F"></path></g><g transform="translate(119 199)"><path d="M0 -10L10 0L0 10L-10 0Z" fill="#F7770F"></path></g><g transform="translate(247 333)"><path d="M0 -9L9 0L0 9L-9 0Z" fill="#F7770F"></path></g><g transform="translate(391 84)"><path d="M0 -12L12 0L0 12L-12 0Z" fill="#F7770F"></path></g><g transform="translate(793 544)"><path d="M0 -10L10 0L0 10L-10 0Z" fill="#F7770F"></path></g><g transform="translate(137 25)"><path d="M0 -7L7 0L0 7L-7 0Z" fill="#F7770F"></path></g><g transform="translate(190 125)"><path d="M0 -7L7 0L0 7L-7 0Z" fill="#F7770F"></path></g><g transform="translate(127 144)"><path d="M0 -9L9 0L0 9L-9 0Z" fill="#F7770F"></path></g><g transform="translate(572 258)"><path d="M0 -12L12 0L0 12L-12 0Z" fill="#F7770F"></path></g><g transform="translate(479 141)"><path d="M0 -10L10 0L0 10L-10 0Z" fill="#F7770F"></path></g><g transform="translate(282 47)"><path d="M0 -6L6 0L0 6L-6 0Z" fill="#F7770F"></path></g><g transform="translate(356 52)"><path d="M0 -10L10 0L0 10L-10 0Z" fill="#F7770F"></path></g><g transform="translate(98 332)"><path d="M0 -11L11 0L0 11L-11 0Z" fill="#F7770F"></path></g><g transform="translate(881 316)"><path d="M0 -11L11 0L0 11L-11 0Z" fill="#F7770F"></path></g><g transform="translate(568 158)"><path d="M0 -9L9 0L0 9L-9 0Z" fill="#F7770F"></path></g><g transform="translate(303 198)"><path d="M0 -11L11 0L0 11L-11 0Z" fill="#F7770F"></path></g><g transform="translate(113 276)"><path d="M0 -9L9 0L0 9L-9 0Z" fill="#F7770F"></path></g><g transform="translate(753 419)"><path d="M0 -8L8 0L0 8L-8 0Z" fill="#F7770F"></path></g><g transform="translate(434 538)"><path d="M0 -7L7 0L0 7L-7 0Z" fill="#F7770F"></path></g><g transform="translate(247 598)"><path d="M0 -12L12 0L0 12L-12 0Z" fill="#F7770F"></path></g><g transform="translate(279 129)"><path d="M0 -10L10 0L0 10L-10 0Z" fill="#F7770F"></path></g><g transform="translate(308 91)"><path d="M0 -7L7 0L0 7L-7 0Z" fill="#F7770F"></path></g><g transform="translate(170 277)"><path d="M0 -6L6 0L0 6L-6 0Z" fill="#F7770F"></path></g><g transform="translate(423 578)"><path d="M0 -10L10 0L0 10L-10 0Z" fill="#F7770F"></path></g><g transform="translate(724 438)"><path d="M0 -10L10 0L0 10L-10 0Z" fill="#F7770F"></path></g><g transform="translate(393 524)"><path d="M0 -6L6 0L0 6L-6 0Z" fill="#F7770F"></path></g><g transform="translate(785 154)"><path d="M0 -10L10 0L0 10L-10 0Z" fill="#F7770F"></path></g><g transform="translate(136 108)"><path d="M0 -12L12 0L0 12L-12 0Z" fill="#F7770F"></path></g><g transform="translate(441 178)"><path d="M0 -6L6 0L0 6L-6 0Z" fill="#F7770F"></path></g><g transform="translate(419 60)"><path d="M0 -9L9 0L0 9L-9 0Z" fill="#F7770F"></path></g><g transform="translate(594 488)"><path d="M0 -8L8 0L0 8L-8 0Z" fill="#F7770F"></path></g><g transform="translate(738 479)"><path d="M0 -10L10 0L0 10L-10 0Z" fill="#F7770F"></path></g><g transform="translate(305 449)"><path d="M0 -7L7 0L0 7L-7 0Z" fill="#F7770F"></path></g><g transform="translate(636 49)"><path d="M0 -6L6 0L0 6L-6 0Z" fill="#F7770F"></path></g><g transform="translate(544 450)"><path d="M0 -10L10 0L0 10L-10 0Z" fill="#F7770F"></path></g><g transform="translate(219 2)"><path d="M0 -6L6 0L0 6L-6 0Z" fill="#F7770F"></path></g><g transform="translate(857 89)"><path d="M0 -11L11 0L0 11L-11 0Z" fill="#F7770F"></path></g><g transform="translate(98 13)"><path d="M0 -11L11 0L0 11L-11 0Z" fill="#F7770F"></path></g><g transform="translate(735 298)"><path d="M0 -10L10 0L0 10L-10 0Z" fill="#F7770F"></path></g><g transform="translate(891 506)"><path d="M0 -6L6 0L0 6L-6 0Z" fill="#F7770F"></path></g><g transform="translate(246 61)"><path d="M0 -7L7 0L0 7L-7 0Z" fill="#F7770F"></path></g><g transform="translate(605 451)"><path d="M0 -6L6 0L0 6L-6 0Z" fill="#F7770F"></path></g><g transform="translate(351 241)"><path d="M0 -7L7 0L0 7L-7 0Z" fill="#F7770F"></path></g><g transform="translate(428 256)"><path d="M0 -11L11 0L0 11L-11 0Z" fill="#F7770F"></path></g><g transform="translate(87 48)"><path d="M0 -10L10 0L0 10L-10 0Z" fill="#F7770F"></path></g><g transform="translate(557 68)"><path d="M0 -11L11 0L0 11L-11 0Z" fill="#F7770F"></path></g><g transform="translate(686 13)"><path d="M0 -9L9 0L0 9L-9 0Z" fill="#F7770F"></path></g><g transform="translate(773 217)"><path d="M0 -9L9 0L0 9L-9 0Z" fill="#F7770F"></path></g><g transform="translate(376 126)"><path d="M0 -12L12 0L0 12L-12 0Z" fill="#F7770F"></path></g><g transform="translate(255 242)"><path d="M0 -11L11 0L0 11L-11 0Z" fill="#F7770F"></path></g><g transform="translate(298 27)"><path d="M0 -9L9 0L0 9L-9 0Z" fill="#F7770F"></path></g><g transform="translate(224 196)"><path d="M0 -11L11 0L0 11L-11 0Z" fill="#F7770F"></path></g><g transform="translate(188 30)"><path d="M0 -7L7 0L0 7L-7 0Z" fill="#F7770F"></path></g><g transform="translate(492 352)"><path d="M0 -9L9 0L0 9L-9 0Z" fill="#F7770F"></path></g><g transform="translate(752 198)"><path d="M0 -10L10 0L0 10L-10 0Z" fill="#F7770F"></path></g><g transform="translate(138 219)"><path d="M0 -12L12 0L0 12L-12 0Z" fill="#F7770F"></path></g><g transform="translate(527 78)"><path d="M0 -12L12 0L0 12L-12 0Z" fill="#F7770F"></path></g><g transform="translate(871 368)"><path d="M0 -12L12 0L0 12L-12 0Z" fill="#F7770F"></path></g><g transform="translate(463 226)"><path d="M0 -7L7 0L0 7L-7 0Z" fill="#F7770F"></path></g><g transform="translate(467 498)"><path d="M0 -6L6 0L0 6L-6 0Z" fill="#F7770F"></path></g><g transform="translate(246 211)"><path d="M0 -12L12 0L0 12L-12 0Z" fill="#F7770F"></path></g><g transform="translate(48 449)"><path d="M0 -9L9 0L0 9L-9 0Z" fill="#F7770F"></path></g><g transform="translate(395 7)"><path d="M0 -7L7 0L0 7L-7 0Z" fill="#F7770F"></path></g><g transform="translate(22 271)"><path d="M0 -7L7 0L0 7L-7 0Z" fill="#F7770F"></path></g><g transform="translate(268 441)"><path d="M0 -9L9 0L0 9L-9 0Z" fill="#F7770F"></path></g><g transform="translate(579 124)"><path d="M0 -12L12 0L0 12L-12 0Z" fill="#F7770F"></path></g><g transform="translate(809 427)"><path d="M0 -8L8 0L0 8L-8 0Z" fill="#F7770F"></path></g><g transform="translate(666 437)"><path d="M0 -6L6 0L0 6L-6 0Z" fill="#F7770F"></path></g><g transform="translate(122 368)"><path d="M0 -10L10 0L0 10L-10 0Z" fill="#F7770F"></path></g><g transform="translate(201 465)"><path d="M0 -9L9 0L0 9L-9 0Z" fill="#F7770F"></path></g><g transform="translate(814 472)"><path d="M0 -7L7 0L0 7L-7 0Z" fill="#F7770F"></path></g><g transform="translate(603 356)"><path d="M0 -6L6 0L0 6L-6 0Z" fill="#F7770F"></path></g><g transform="translate(511 213)"><path d="M0 -11L11 0L0 11L-11 0Z" fill="#F7770F"></path></g><g transform="translate(634 342)"><path d="M0 -7L7 0L0 7L-7 0Z" fill="#F7770F"></path></g><g transform="translate(69 480)"><path d="M0 -10L10 0L0 10L-10 0Z" fill="#F7770F"></path></g><g transform="translate(870 198)"><path d="M0 -10L10 0L0 10L-10 0Z" fill="#F7770F"></path></g><g transform="translate(500 159)"><path d="M0 -12L12 0L0 12L-12 0Z" fill="#F7770F"></path></g><g transform="translate(734 372)"><path d="M0 -8L8 0L0 8L-8 0Z" fill="#F7770F"></path></g><g transform="translate(893 15)"><path d="M0 -11L11 0L0 11L-11 0Z" fill="#F7770F"></path></g><g transform="translate(587 587)"><path d="M0 -9L9 0L0 9L-9 0Z" fill="#F7770F"></path></g><g transform="translate(227 310)"><path d="M0 -10L10 0L0 10L-10 0Z" fill="#F7770F"></path></g><g transform="translate(40 90)"><path d="M0 -10L10 0L0 10L-10 0Z" fill="#F7770F"></path></g><g transform="translate(890 460)"><path d="M0 -7L7 0L0 7L-7 0Z" fill="#F7770F"></path></g><g transform="translate(879 584)"><path d="M0 -6L6 0L0 6L-6 0Z" fill="#F7770F"></path></g><g transform="translate(698 534)"><path d="M0 -8L8 0L0 8L-8 0Z" fill="#F7770F"></path></g><g transform="translate(207 585)"><path d="M0 -8L8 0L0 8L-8 0Z" fill="#F7770F"></path></g><g transform="translate(382 42)"><path d="M0 -8L8 0L0 8L-8 0Z" fill="#F7770F"></path></g><g transform="translate(156 3)"><path d="M0 -8L8 0L0 8L-8 0Z" fill="#F7770F"></path></g><g transform="translate(735 557)"><path d="M0 -6L6 0L0 6L-6 0Z" fill="#F7770F"></path></g><g transform="translate(612 321)"><path d="M0 -11L11 0L0 11L-11 0Z" fill="#F7770F"></path></g><g transform="translate(572 385)"><path d="M0 -10L10 0L0 10L-10 0Z" fill="#F7770F"></path></g><g transform="translate(119 468)"><path d="M0 -8L8 0L0 8L-8 0Z" fill="#F7770F"></path></g><g transform="translate(678 479)"><path d="M0 -11L11 0L0 11L-11 0Z" fill="#F7770F"></path></g><g transform="translate(96 301)"><path d="M0 -10L10 0L0 10L-10 0Z" fill="#F7770F"></path></g><g transform="translate(436 414)"><path d="M0 -11L11 0L0 11L-11 0Z" fill="#F7770F"></path></g><g transform="translate(367 589)"><path d="M0 -8L8 0L0 8L-8 0Z" fill="#F7770F"></path></g><g transform="translate(332 595)"><path d="M0 -10L10 0L0 10L-10 0Z" fill="#F7770F"></path></g><g transform="translate(464 472)"><path d="M0 -7L7 0L0 7L-7 0Z" fill="#F7770F"></path></g><g transform="translate(554 365)"><path d="M0 -11L11 0L0 11L-11 0Z" fill="#F7770F"></path></g><g transform="translate(781 418)"><path d="M0 -11L11 0L0 11L-11 0Z" fill="#F7770F"></path></g><g transform="translate(711 353)"><path d="M0 -11L11 0L0 11L-11 0Z" fill="#F7770F"></path></g><g transform="translate(326 138)"><path d="M0 -8L8 0L0 8L-8 0Z" fill="#F7770F"></path></g><g transform="translate(851 341)"><path d="M0 -9L9 0L0 9L-9 0Z" fill="#F7770F"></path></g><g transform="translate(473 406)"><path d="M0 -10L10 0L0 10L-10 0Z" fill="#F7770F"></path></g><g transform="translate(62 114)"><path d="M0 -7L7 0L0 7L-7 0Z" fill="#F7770F"></path></g><g transform="translate(806 234)"><path d="M0 -10L10 0L0 10L-10 0Z" fill="#F7770F"></path></g><g transform="translate(852 46)"><path d="M0 -8L8 0L0 8L-8 0Z" fill="#F7770F"></path></g><g transform="translate(325 8)"><path d="M0 -10L10 0L0 10L-10 0Z" fill="#F7770F"></path></g><g transform="translate(378 230)"><path d="M0 -12L12 0L0 12L-12 0Z" fill="#F7770F"></path></g><g transform="translate(223 28)"><path d="M0 -7L7 0L0 7L-7 0Z" fill="#F7770F"></path></g><g transform="translate(232 415)"><path d="M0 -9L9 0L0 9L-9 0Z" fill="#F7770F"></path></g><g transform="translate(74 85)"><path d="M0 -8L8 0L0 8L-8 0Z" fill="#F7770F"></path></g><g transform="translate(757 585)"><path d="M0 -12L12 0L0 12L-12 0Z" fill="#F7770F"></path></g><g transform="translate(187 352)"><path d="M0 -9L9 0L0 9L-9 0Z" fill="#F7770F"></path></g><g transform="translate(602 79)"><path d="M0 -7L7 0L0 7L-7 0Z" fill="#F7770F"></path></g><g transform="translate(6 414)"><path d="M0 -12L12 0L0 12L-12 0Z" fill="#F7770F"></path></g><g transform="translate(508 548)"><path d="M0 -10L10 0L0 10L-10 0Z" fill="#F7770F"></path></g><g transform="translate(402 354)"><path d="M0 -6L6 0L0 6L-6 0Z" fill="#F7770F"></path></g><g transform="translate(272 393)"><path d="M0 -6L6 0L0 6L-6 0Z" fill="#F7770F"></path></g><g transform="translate(212 109)"><path d="M0 -7L7 0L0 7L-7 0Z" fill="#F7770F"></path></g><g transform="translate(439 113)"><path d="M0 -8L8 0L0 8L-8 0Z" fill="#F7770F"></path></g><g transform="translate(798 397)"><path d="M0 -8L8 0L0 8L-8 0Z" fill="#F7770F"></path></g><g transform="translate(379 549)"><path d="M0 -7L7 0L0 7L-7 0Z" fill="#F7770F"></path></g><g transform="translate(696 441)"><path d="M0 -7L7 0L0 7L-7 0Z" fill="#F7770F"></path></g><g transform="translate(217 171)"><path d="M0 -11L11 0L0 11L-11 0Z" fill="#F7770F"></path></g><g transform="translate(9 338)"><path d="M0 -11L11 0L0 11L-11 0Z" fill="#F7770F"></path></g><g transform="translate(299 163)"><path d="M0 -8L8 0L0 8L-8 0Z" fill="#F7770F"></path></g><g transform="translate(161 519)"><path d="M0 -8L8 0L0 8L-8 0Z" fill="#F7770F"></path></g><g transform="translate(411 35)"><path d="M0 -9L9 0L0 9L-9 0Z" fill="#F7770F"></path></g><g transform="translate(496 118)"><path d="M0 -6L6 0L0 6L-6 0Z" fill="#F7770F"></path></g><g transform="translate(700 57)"><path d="M0 -7L7 0L0 7L-7 0Z" fill="#F7770F"></path></g><g transform="translate(826 75)"><path d="M0 -8L8 0L0 8L-8 0Z" fill="#F7770F"></path></g><g transform="translate(77 530)"><path d="M0 -9L9 0L0 9L-9 0Z" fill="#F7770F"></path></g><g transform="translate(106 549)"><path d="M0 -9L9 0L0 9L-9 0Z" fill="#F7770F"></path></g><g transform="translate(608 565)"><path d="M0 -10L10 0L0 10L-10 0Z" fill="#F7770F"></path></g><g transform="translate(53 177)"><path d="M0 -8L8 0L0 8L-8 0Z" fill="#F7770F"></path></g><g transform="translate(103 490)"><path d="M0 -11L11 0L0 11L-11 0Z" fill="#F7770F"></path></g><g transform="translate(815 159)"><path d="M0 -10L10 0L0 10L-10 0Z" fill="#F7770F"></path></g><g transform="translate(381 195)"><path d="M0 -8L8 0L0 8L-8 0Z" fill="#F7770F"></path></g><g transform="translate(665 37)"><path d="M0 -7L7 0L0 7L-7 0Z" fill="#F7770F"></path></g><g transform="translate(806 49)"><path d="M0 -6L6 0L0 6L-6 0Z" fill="#F7770F"></path></g><g transform="translate(781 305)"><path d="M0 -11L11 0L0 11L-11 0Z" fill="#F7770F"></path></g><g transform="translate(278 593)"><path d="M0 -10L10 0L0 10L-10 0Z" fill="#F7770F"></path></g><g transform="translate(286 1)"><path d="M0 -11L11 0L0 11L-11 0Z" fill="#F7770F"></path></g><g transform="translate(862 224)"><path d="M0 -12L12 0L0 12L-12 0Z" fill="#F7770F"></path></g><g transform="translate(109 587)"><path d="M0 -8L8 0L0 8L-8 0Z" fill="#F7770F"></path></g><g transform="translate(1 596)"><path d="M0 -9L9 0L0 9L-9 0Z" fill="#F7770F"></path></g><g transform="translate(286 269)"><path d="M0 -6L6 0L0 6L-6 0Z" fill="#F7770F"></path></g><g transform="translate(428 302)"><path d="M0 -9L9 0L0 9L-9 0Z" fill="#F7770F"></path></g><g transform="translate(716 190)"><path d="M0 -8L8 0L0 8L-8 0Z" fill="#F7770F"></path></g><g transform="translate(284 219)"><path d="M0 -12L12 0L0 12L-12 0Z" fill="#F7770F"></path></g><g transform="translate(524 312)"><path d="M0 -7L7 0L0 7L-7 0Z" fill="#F7770F"></path></g><g transform="translate(619 479)"><path d="M0 -7L7 0L0 7L-7 0Z" fill="#F7770F"></path></g><g transform="translate(4 307)"><path d="M0 -12L12 0L0 12L-12 0Z" fill="#F7770F"></path></g><g transform="translate(137 410)"><path d="M0 -10L10 0L0 10L-10 0Z" fill="#F7770F"></path></g><g transform="translate(27 398)"><path d="M0 -10L10 0L0 10L-10 0Z" fill="#F7770F"></path></g><g transform="translate(526 375)"><path d="M0 -8L8 0L0 8L-8 0Z" fill="#F7770F"></path></g><g transform="translate(856 598)"><path d="M0 -11L11 0L0 11L-11 0Z" fill="#F7770F"></path></g><g transform="translate(208 278)"><path d="M0 -7L7 0L0 7L-7 0Z" fill="#F7770F"></path></g><g transform="translate(353 443)"><path d="M0 -8L8 0L0 8L-8 0Z" fill="#F7770F"></path></g><g transform="translate(80 593)"><path d="M0 -10L10 0L0 10L-10 0Z" fill="#F7770F"></path></g><g transform="translate(151 163)"><path d="M0 -7L7 0L0 7L-7 0Z" fill="#F7770F"></path></g><g transform="translate(14 177)"><path d="M0 -6L6 0L0 6L-6 0Z" fill="#F7770F"></path></g><g transform="translate(204 61)"><path d="M0 -8L8 0L0 8L-8 0Z" fill="#F7770F"></path></g><g transform="translate(861 251)"><path d="M0 -10L10 0L0 10L-10 0Z" fill="#F7770F"></path></g><g transform="translate(843 573)"><path d="M0 -9L9 0L0 9L-9 0Z" fill="#F7770F"></path></g><g transform="translate(250 484)"><path d="M0 -12L12 0L0 12L-12 0Z" fill="#F7770F"></path></g><g transform="translate(625 509)"><path d="M0 -10L10 0L0 10L-10 0Z" fill="#F7770F"></path></g><g transform="translate(116 439)"><path d="M0 -6L6 0L0 6L-6 0Z" fill="#F7770F"></path></g><g transform="translate(803 134)"><path d="M0 -11L11 0L0 11L-11 0Z" fill="#F7770F"></path></g><g transform="translate(417 438)"><path d="M0 -9L9 0L0 9L-9 0Z" fill="#F7770F"></path></g><g transform="translate(153 86)"><path d="M0 -9L9 0L0 9L-9 0Z" fill="#F7770F"></path></g><g transform="translate(534 164)"><path d="M0 -9L9 0L0 9L-9 0Z" fill="#F7770F"></path></g><g transform="translate(713 80)"><path d="M0 -6L6 0L0 6L-6 0Z" fill="#F7770F"></path></g><g transform="translate(356 24)"><path d="M0 -11L11 0L0 11L-11 0Z" fill="#F7770F"></path></g><g transform="translate(106 239)"><path d="M0 -11L11 0L0 11L-11 0Z" fill="#F7770F"></path></g><g transform="translate(124 335)"><path d="M0 -6L6 0L0 6L-6 0Z" fill="#F7770F"></path></g><g transform="translate(897 423)"><path d="M0 -6L6 0L0 6L-6 0Z" fill="#F7770F"></path></g><g transform="translate(64 321)"><path d="M0 -9L9 0L0 9L-9 0Z" fill="#F7770F"></path></g><g transform="translate(333 359)"><path d="M0 -9L9 0L0 9L-9 0Z" fill="#F7770F"></path></g><g transform="translate(781 480)"><path d="M0 -6L6 0L0 6L-6 0Z" fill="#F7770F"></path></g><g transform="translate(748 348)"><path d="M0 -10L10 0L0 10L-10 0Z" fill="#F7770F"></path></g><g transform="translate(175 212)"><path d="M0 -9L9 0L0 9L-9 0Z" fill="#F7770F"></path></g><g transform="translate(597 399)"><path d="M0 -10L10 0L0 10L-10 0Z" fill="#F7770F"></path></g><g transform="translate(828 599)"><path d="M0 -10L10 0L0 10L-10 0Z" fill="#F7770F"></path></g><g transform="translate(161 309)"><path d="M0 -12L12 0L0 12L-12 0Z" fill="#F7770F"></path></g><g transform="translate(201 516)"><path d="M0 -6L6 0L0 6L-6 0Z" fill="#F7770F"></path></g><g transform="translate(891 74)"><path d="M0 -12L12 0L0 12L-12 0Z" fill="#F7770F"></path></g><g transform="translate(151 593)"><path d="M0 -12L12 0L0 12L-12 0Z" fill="#F7770F"></path></g><g transform="translate(159 362)"><path d="M0 -9L9 0L0 9L-9 0Z" fill="#F7770F"></path></g><g transform="translate(2 48)"><path d="M0 -8L8 0L0 8L-8 0Z" fill="#F7770F"></path></g><g transform="translate(373 167)"><path d="M0 -7L7 0L0 7L-7 0Z" fill="#F7770F"></path></g><g transform="translate(515 186)"><path d="M0 -7L7 0L0 7L-7 0Z" fill="#F7770F"></path></g><g transform="translate(668 245)"><path d="M0 -6L6 0L0 6L-6 0Z" fill="#F7770F"></path></g><g transform="translate(599 107)"><path d="M0 -8L8 0L0 8L-8 0Z" fill="#F7770F"></path></g><g transform="translate(375 284)"><path d="M0 -12L12 0L0 12L-12 0Z" fill="#F7770F"></path></g><g transform="translate(690 596)"><path d="M0 -8L8 0L0 8L-8 0Z" fill="#F7770F"></path></g><g transform="translate(9 568)"><path d="M0 -12L12 0L0 12L-12 0Z" fill="#F7770F"></path></g><g transform="translate(414 196)"><path d="M0 -10L10 0L0 10L-10 0Z" fill="#F7770F"></path></g><g transform="translate(567 506)"><path d="M0 -6L6 0L0 6L-6 0Z" fill="#F7770F"></path></g><g transform="translate(763 533)"><path d="M0 -7L7 0L0 7L-7 0Z" fill="#F7770F"></path></g><g transform="translate(640 145)"><path d="M0 -8L8 0L0 8L-8 0Z" fill="#F7770F"></path></g><g transform="translate(31 427)"><path d="M0 -10L10 0L0 10L-10 0Z" fill="#F7770F"></path></g><g transform="translate(170 494)"><path d="M0 -7L7 0L0 7L-7 0Z" fill="#F7770F"></path></g><g transform="translate(168 545)"><path d="M0 -6L6 0L0 6L-6 0Z" fill="#F7770F"></path></g><g transform="translate(301 566)"><path d="M0 -7L7 0L0 7L-7 0Z" fill="#F7770F"></path></g><g transform="translate(852 548)"><path d="M0 -11L11 0L0 11L-11 0Z" fill="#F7770F"></path></g><g transform="translate(354 559)"><path d="M0 -11L11 0L0 11L-11 0Z" fill="#F7770F"></path></g><g transform="translate(544 259)"><path d="M0 -8L8 0L0 8L-8 0Z" fill="#F7770F"></path></g><g transform="translate(618 172)"><path d="M0 -10L10 0L0 10L-10 0Z" fill="#F7770F"></path></g><g transform="translate(895 533)"><path d="M0 -10L10 0L0 10L-10 0Z" fill="#F7770F"></path></g><g transform="translate(807 97)"><path d="M0 -9L9 0L0 9L-9 0Z" fill="#F7770F"></path></g><g transform="translate(654 495)"><path d="M0 -7L7 0L0 7L-7 0Z" fill="#F7770F"></path></g><g transform="translate(330 220)"><path d="M0 -6L6 0L0 6L-6 0Z" fill="#F7770F"></path></g><g transform="translate(276 526)"><path d="M0 -11L11 0L0 11L-11 0Z" fill="#F7770F"></path></g><g transform="translate(591 8)"><path d="M0 -6L6 0L0 6L-6 0Z" fill="#F7770F"></path></g><g transform="translate(582 330)"><path d="M0 -10L10 0L0 10L-10 0Z" fill="#F7770F"></path></g><g transform="translate(568 92)"><path d="M0 -8L8 0L0 8L-8 0Z" fill="#F7770F"></path></g><g transform="translate(2 131)"><path d="M0 -11L11 0L0 11L-11 0Z" fill="#F7770F"></path></g><g transform="translate(328 313)"><path d="M0 -7L7 0L0 7L-7 0Z" fill="#F7770F"></path></g><g transform="translate(207 218)"><path d="M0 -7L7 0L0 7L-7 0Z" fill="#F7770F"></path></g><g transform="translate(828 284)"><path d="M0 -7L7 0L0 7L-7 0Z" fill="#F7770F"></path></g><g transform="translate(327 520)"><path d="M0 -9L9 0L0 9L-9 0Z" fill="#F7770F"></path></g><g transform="translate(630 295)"><path d="M0 -9L9 0L0 9L-9 0Z" fill="#F7770F"></path></g><g transform="translate(579 560)"><path d="M0 -8L8 0L0 8L-8 0Z" fill="#F7770F"></path></g><g transform="translate(469 366)"><path d="M0 -9L9 0L0 9L-9 0Z" fill="#F7770F"></path></g><g transform="translate(448 85)"><path d="M0 -6L6 0L0 6L-6 0Z" fill="#F7770F"></path></g><g transform="translate(715 318)"><path d="M0 -11L11 0L0 11L-11 0Z" fill="#F7770F"></path></g><g transform="translate(86 387)"><path d="M0 -7L7 0L0 7L-7 0Z" fill="#F7770F"></path></g><g transform="translate(561 287)"><path d="M0 -11L11 0L0 11L-11 0Z" fill="#F7770F"></path></g><g transform="translate(779 245)"><path d="M0 -8L8 0L0 8L-8 0Z" fill="#F7770F"></path></g><g transform="translate(835 2)"><path d="M0 -12L12 0L0 12L-12 0Z" fill="#F7770F"></path></g><g transform="translate(206 436)"><path d="M0 -6L6 0L0 6L-6 0Z" fill="#F7770F"></path></g><g transform="translate(102 102)"><path d="M0 -7L7 0L0 7L-7 0Z" fill="#F7770F"></path></g><g transform="translate(869 527)"><path d="M0 -8L8 0L0 8L-8 0Z" fill="#F7770F"></path></g><g transform="translate(54 599)"><path d="M0 -6L6 0L0 6L-6 0Z" fill="#F7770F"></path></g><g transform="translate(480 281)"><path d="M0 -8L8 0L0 8L-8 0Z" fill="#F7770F"></path></g><g transform="translate(712 386)"><path d="M0 -7L7 0L0 7L-7 0Z" fill="#F7770F"></path></g><g transform="translate(29 355)"><path d="M0 -8L8 0L0 8L-8 0Z" fill="#F7770F"></path></g><g transform="translate(93 453)"><path d="M0 -12L12 0L0 12L-12 0Z" fill="#F7770F"></path></g><g transform="translate(332 79)"><path d="M0 -7L7 0L0 7L-7 0Z" fill="#F7770F"></path></g><g transform="translate(35 294)"><path d="M0 -7L7 0L0 7L-7 0Z" fill="#F7770F"></path></g><g transform="translate(625 535)"><path d="M0 -12L12 0L0 12L-12 0Z" fill="#F7770F"></path></g><g transform="translate(160 40)"><path d="M0 -10L10 0L0 10L-10 0Z" fill="#F7770F"></path></g><g transform="translate(245 543)"><path d="M0 -7L7 0L0 7L-7 0Z" fill="#F7770F"></path></g><g transform="translate(725 218)"><path d="M0 -6L6 0L0 6L-6 0Z" fill="#F7770F"></path></g><g transform="translate(307 118)"><path d="M0 -8L8 0L0 8L-8 0Z" fill="#F7770F"></path></g><g transform="translate(494 425)"><path d="M0 -9L9 0L0 9L-9 0Z" fill="#F7770F"></path></g><g transform="translate(192 3)"><path d="M0 -7L7 0L0 7L-7 0Z" fill="#F7770F"></path></g><g transform="translate(181 599)"><path d="M0 -10L10 0L0 10L-10 0Z" fill="#F7770F"></path></g><g transform="translate(849 415)"><path d="M0 -12L12 0L0 12L-12 0Z" fill="#F7770F"></path></g><g transform="translate(361 469)"><path d="M0 -8L8 0L0 8L-8 0Z" fill="#F7770F"></path></g><g transform="translate(483 535)"><path d="M0 -6L6 0L0 6L-6 0Z" fill="#F7770F"></path></g><g transform="translate(256 307)"><path d="M0 -7L7 0L0 7L-7 0Z" fill="#F7770F"></path></g><g transform="translate(402 113)"><path d="M0 -6L6 0L0 6L-6 0Z" fill="#F7770F"></path></g><g transform="translate(880 151)"><path d="M0 -11L11 0L0 11L-11 0Z" fill="#F7770F"></path></g><g transform="translate(96 212)"><path d="M0 -6L6 0L0 6L-6 0Z" fill="#F7770F"></path></g><g transform="translate(446 598)"><path d="M0 -7L7 0L0 7L-7 0Z" fill="#F7770F"></path></g><g transform="translate(410 549)"><path d="M0 -6L6 0L0 6L-6 0Z" fill="#F7770F"></path></g><g transform="translate(799 2)"><path d="M0 -9L9 0L0 9L-9 0Z" fill="#F7770F"></path></g><g transform="translate(899 382)"><path d="M0 -12L12 0L0 12L-12 0Z" fill="#F7770F"></path></g><g transform="translate(636 227)"><path d="M0 -12L12 0L0 12L-12 0Z" fill="#F7770F"></path></g><g transform="translate(284 103)"><path d="M0 -7L7 0L0 7L-7 0Z" fill="#F7770F"></path></g><g transform="translate(247 2)"><path d="M0 -11L11 0L0 11L-11 0Z" fill="#F7770F"></path></g><g transform="translate(305 594)"><path d="M0 -6L6 0L0 6L-6 0Z" fill="#F7770F"></path></g><g transform="translate(271 158)"><path d="M0 -11L11 0L0 11L-11 0Z" fill="#F7770F"></path></g><g transform="translate(786 599)"><path d="M0 -10L10 0L0 10L-10 0Z" fill="#F7770F"></path></g><g transform="translate(2 219)"><path d="M0 -8L8 0L0 8L-8 0Z" fill="#F7770F"></path></g><g transform="translate(200 376)"><path d="M0 -9L9 0L0 9L-9 0Z" fill="#F7770F"></path></g></g></svg>