<?xml version="1.0" encoding="UTF-8"?>
<svg id="Layer_1" data-name="Layer 1" xmlns="http://www.w3.org/2000/svg" viewBox="0 0 1920.56 1125.73">
  <path d="m.37,30.03c23.29,92.08,132.54,111.68,219.8,116.6,80.49,6.09,199.65-37.61,183-117h-15.7c5.57,7.89,9.98,14.47,8.7,24.4C366.64,191.84,26.3,162.58,9.07,29.63c-1.61.01-8.37-.11-8.7.4Z"/>
  <path d="m22.77,31.83c20.58,117.96,272.91,136.89,338.7,64.8,19.27-17.64,27.89-44.57.5-59.8,0,0-10.8-7.2-10.8-7.2-5.38.03-28.56-.14-29.8.4,0,.3,2.4,1.2,5.3,2.2,15.6,5.19,34.81,16.78,35.5,21.5.3.19.74.48,1.22.91.8.71,1.27,1.37,1.42,1.58.7.98,2.47,3.07,5.54,6.56.46,3.76.24,6.88-.09,9.13-.39,2.69-.59,4.03-1.44,5.69-1.08,2.12-2.14,2.66-5.52,6.98-1.01,1.29-1.54,2.13-1.94,2.57-11.38,12.37-15.9,15.9-15.9,15.9-4.17,3.45-9.36,7.21-15.64,10.73-9.29,5.2-17.99,8.19-24.86,9.97.7,1.2-21.2,7.2-23.8,6.5-1.73.7-9.35,2.93-27.8,4.4-34.83,2.58-81.6-3.18-109.3-11.3.3-.6.1-.7-.6-.3-1.7,1.1-11.2-1.3-10.5-2.6.4-.6-.1-.8-1.3-.4-2.9.9-25.9-7.4-24.6-8.9.5-.4.2-.5-.6,0-2,1.1-13.3-4.5-12.6-6.3.4-1.2.2-1.2-.9-.3-1.4,1.2-4.6.5-4.6-1,0-.5-.5-.9-1.1-.9-2,0-12.9-7.1-12.4-8.1.4-.5,0-.6-.7-.4-.8.3-3.1-1-5.2-3-2.1-1.9-4.2-3.5-4.6-3.5-1.49-.13-18.81-18.18-19.4-24.1.4-.7.3-.9-.4-.6-2.61,1.07-11.79-23.57-12.5-33.3-2.85.13-7.4-.73-9.3,2.2Z"/>
  <path d="m47.67,36.43c.6,7.6,5.1,20.4,9.2,26.5,1.4,2,2.3,4.2,2,4.7-.4.6-.2.9.2.8.5-.2,3.2,2.4,6,5.7,3.1,4.67,7.76,6.91,7.6,9.8-.3.5-.1.7.4.4,1.3-.8,10.9,7,10.5,8.4,54.36,34.18,155.63,50.33,220.2,26.7,7.83-4.68,11.88-4.22,22.1-10.8,3.84-1.84,4.81-4,7.3-5.5,2.22-1.23,4.13-1.31,6.9-3.5,1.8-1.47,1.14-3.12,3.9-6.8,1.15-.48,8.66-13.43,7.8-16,.74-5.67.44-5.25-1.3-9.4-.8-4.47-3.29-9.12-7.4-10.1-17.68-5.17-72.38-28.43-107.2-27.4-16.8-.3-17.8-.2-14.6,1.2,13.89,6.39,120.76,31.13,115.5,42.9-.6,53.65-113.01,58.84-165.9,45.6-58.88-13.76-106.21-34.12-111.9-90h-11.9l.6,6.8Z"/>
  <path d="m84.77,35.33c2.54,81.13,148.31,96.29,201.2,73.2,17.1-7.1,26.3-18.9,20.9-26.6-1.6-2.3-14.3-10-21.8-13.2-1.7-3.46-81.48-19.33-105.7-39.1h-93.9l-.7,5.7Z"/>
  <path d="m423.87,34.33c-24.13,98.58-134.84,126.39-233.8,114.8C112.55,143.98,32.94,118.65.87,63.43c0,0-.3,20.3-.3,20.3-.3,23.5-1.9,19.8,12.8,29.6,56.02,35.53,120.14,41.98,188,48.9,99.65,10.24,187.36-25.52,245.1-105.8,7.88-10.75,15.26-18.9,23.3-26.8h-45.2l-.7,4.7Z"/>
  <path d="m589.37,30.03c77.47,42.52,27.3,85.87,43.4,139.6,10.8,27.86,45.19,58.63,74.7,80,16.65,12.07,20.25,19.05,38.9,31.2,6.8,4.5,21.9,15.4,33.4,24,41.19,31.43,42.16,27.75,60.1-16.7,20.97-66.04,79.75-81.36,137-51.1,25.7,12.4,56.9,31.8,93.9,58.4q38.4,27.7,104.1,29.2c79.88-1.1,61.92,13.24,129,33.6,14.4,4.2,28.4,6.7,50.5,8.9,43.17,5.24,132.53,17.81,159.4,8.5,30.17-2.66,115.79-49.66,151.3-81.2,33.26-26.04,115.35-91.2,131-67.9,5.79,9.52-2.66,43.75-6.7,59.6-5.02,22.44-5.72,45.29,12.7,61.5,14.9,13.6,27.6,11.7,50.4-7.7,23.17-20.3,51.26-49.15,67.9-71.8,0,0,0-21.2,0-21.2,0-12.4-.4-21.3-.9-21.3s-13.1,12.1-28,26.9c-34.77,34.34-41.59,40.67-50.4,23.1-8.81-52.94,55.66-112.87,12.5-114-42.81.55-151.47,88.05-193.2,123-102.51,97.29-254.83,83.84-363.2,40.4-30.63-21.53-110.95-20.46-154-22.39-37.39-3.01-70.37-32.17-99.8-49.5-78.67-50.71-166.25-93.57-216.2,16-15.78,30.06-22.08,31.94-48,19.7-20.76-9.74-41.82-26.75-56.7-38.5,1.51.76-34.99-26.19-45.5-38.6-5.1-6.4-15.9-29.5-21.7-46.2-4.55-13.91-4.93-26.62.5-40.9,6.5-17.13,10.49-35.82,20.9-51,28.82-49.79,90.36-6.41,129.9,8,41.01,11.17,90.36-1.45,112.1-34.1,2.8-4.4,7.7-15.5,7.7-17.4,9.46-.58-346.44-.63-337-.1Z" fill="#c10e0e"/>
  <path d="m945.37,33.83c-13.42,41.61-60.54,72.3-104,71.5-29.58,3.69-62.66-19.38-85.5-26-34.16-8.76-49.53-4.83-71.5,26.9-21.6,30.3-23.5,43.2-11.8,79.4,5.9,18.2,8.7,23.1,18.7,33.1,9,8.9,20.8,18.5,21.8,17.6.9-1-1.1-3.4-7.2-8.4-9-7.4-16.9-16.6-20.8-24.1-20.23-47.25-15.3-77.53,30.3-107,26.11-13.84,53.44-2.02,86.8,10.4,0,0,25.3,9.4,25.3,9.4,22.86.86,49.75-1.88,65.9-11.1,24.73-14.42,61.21-44.88,64.2-75.9h-11.1l-1.1,4.2Z"/>
  <path d="m973.37,33.43c-2.81,34.23-34.62,57.73-63.4,85.6-10.8,9.5-16.8,13-29.1,16.9-18.2,5.7-26.2,4.7-55.5-6.8-158.4-73.42-193.9,90.28-46.7,138.5,10.5,1.9,19.9-1.3,27.4-9.2,14.88-17.3,47.17-77.57,68.1-91.8,51.21-29.71,203.43,89.29,252.9,110,16.8,7,16.1,6.9,86.3,10,202.95,25.86,320.5,131.46,498-64.52,49.99-53.74,121.22-75.26,139.31-113.78,9.33-19.45,33.25-59.06,46.1-77.5.5-.9-.3-1.2-3.1-1.2-3.2,0-4,.4-5.1,2.7-2.5,5.7-12.9,21.2-13.7,20.5-.5-.4-.5-.1-.1.6.9,1.5-1.2,4.5-2.5,3.6-.9-.5-1.3,1.1-.9,3.1.1.5-.7,1.5-1.6,2.2-1,.7-1.5,1.3-1.1,1.3.85.32-1.34,4.4-2.4,3.4-.6-.3-.9,0-.7.7.2,1.3-2.3,6.1-8.3,15.7l-2.8,4.4c-.37-.71-2.63-5.58-3.1-4.7,0,.6.7,2,1.5,3.3,2.62,1.47-.62,7.96-2.7,7.6-.7-.4-.8-.3-.4.4,1,1.6-1.2,5.4-2.6,4.6-.7-.4-.8-.3-.4.5.9,1.3-5.4,14.2-6.6,13.5-.4-.3-.5.1-.2.9.6,1.7-4.4,8-5.7,7.1-.5-.3-.8,0-.7.6.2.7-2.6,3.5-6,6.3-5.2,4.1-6.6,4.8-7.4,3.6-.8-1.1-.9-1-.4.4.99,2.25-2.53,2.63-3.4,3.7-1.7,2.2-12.6,9-13.8,8.5-.7-.2-1.1-.1-.8.4.8,1.2-4.2,4.3-5.6,3.5-.6-.4-.8-.3-.5.3.9,1.4-4,4.6-5.5,3.7-.7-.5-.8-.3-.3.6,1.31,2.44-2.35-.64-2,.9.3.5-3.3,3.3-8,6.1-11.82,7.88-9.2,1.68-12.1,4.1-.4.7-.3.9.4.5,5.46-.54-4.39,5.92-6,4.8-.7-.4-.8-.2-.4.4.44,2.38-7.2,4.74-11.9,9-5.4,4.1-8.3,5.6-8.8,4.8-.5-.7-.7-.3-.5.9.44,2.99-2.14.74-1.8,2.3.7,1.2-8.8,10.4-9.9,9.5-.4-.5-.5-.3-.2.3.9,1.6-1.9,3.8-3.5,2.8-.7-.4-1-.4-.6.1,1.1,1.1-1.2,3.6-2.5,2.8-.5-.3-.7-.2-.4.4.7,1.1-3.7,5.4-4.7,4.7-.3-.2-.4-.1-.1.3.8,1-10.7,12.3-11.8,11.6-.6-.3-.7-.1-.4.4.36,1.47-14.2,14.87-16,14.9-.7-.3-1,.1-.6,1,.62,3.09-4.13.3-3.3,2.3.8,1.3-17.3,18.3-18.6,17.5-.6-.4-.8-.3-.5.3.8,1.3-1.7,3.6-2.8,2.5-.5-.4-.5-.2-.2.4.8,1.4-3.8,5.8-5.2,5-.6-.4-.9-.1-.7.6,1.34.09-22.62,23.69-15.9,12.5,1.42-1.47-2.53.12-2,2.2,0,2.5-4.1,6.4-5.8,5.4-.6-.3-.7-.1-.3.5.8,1.3-3,3.6-4.4,2.7-.5-.3-.7.1-.4.9.6,1.6-2.8,4-4.1,2.8-.5-.4-.5-.2-.1.5,1.01,1.6-4,3.52-4.4,4.2-1.6,2.1-7.2,5.1-8.2,4.5-.7-.4-1-.4-.6.1,1,1-6.1,5.7-7.4,4.9-.6-.4-.8-.2-.4.4.8,1.3-15.2,9.5-17.1,8.8-.8-.3-1.6.1-1.9.8-.7,1.7-6.2,3.8-7.7,2.9-.5-.3-.7-.1-.3.5-140.31,52.04-242.81-45.57-391.9-37.79-31.88-1.86-44.83-2.37-59.2-12.7-1.1.7-7.6-2.3-10.4-4.9-5.25-2.94-1.54-.28-9.6-5.2-15.5-9.5-24.2-15.6-23.6-16.5.3-.6.1-.7-.5-.3-1.7,1-15.6-7.5-14-8.7.9-.6.7-.7-.6-.3-.8,1.6-28.15-12.77-26.1-14.4.3-.4-.5-.6-1.6-.3-2.07,1.21-4.03-2.33-5.2-2.5-.3.2-4.3-1.9-9.1-4.6-7.3-4.3-8.3-5.2-7.3-6.5q1-1.4-.4-.3c-1.4,1.1-3,.4-10.5-4.2-4.9-3-8.8-6-8.7-6.5.2-.6-.5-.7-1.4-.4-1.2.5-1.4.3-.8-.7.5-.9.4-1.1-.3-.6-1.8,1.1-26.8-14.5-25.5-15.8.5-.4.1-.7-.7-.5-1.8.4-4.9-1.3-19.5-10-16.74-9.99-35.6-17.34-24.2-38.6,4.13-7.64,13.45-18.13,15.5-18-1-1,4.2-7.6,5.3-6.9.5.3.8.1.7-.3-.5-1.6,17-19.5,17.6-18.1.3.8.5.7.3-.3,11.04-19.91,18.68-25.98,20.3-50.2,1.18-4.23-7.68-2.28-11-2.7v3.8Zm-191.7,89.6c29.13,4,41.88,15.31,42.6,16.2,1.4-.9,14.4,6.2,13.6,7.4-.3.6,0,.7.7.5,4.06.1,14.89,12.4,13.8,19.1,0,3.6-2.8,11.6-3.9,11-.3-.2-.7.6-.8,1.7-2.91,10.34-29.91,53.61-38.9,65.3-10.84,18.73-29.54,22.76-51,10.1-7.69-2.82-35.79-24.87-42.8-29.9-8.24-6.06-11.33-9.87-16.8-21.3-4.8-9.93-10.44-43.88-.5-53.8.6.3.7.1.3-.6-1.4-2.2,11.8-17,15.2-17.1,6.8-3.05,30.92-12.33,68.5-8.6Z"/>
  <path d="m751.87,132.73c-12.92,1.95-25.1,5.74-31.3,7.4.4.4-.9,2-3,3.5-4.24,3.06-5.95,5.35-9.2,8.7-5.54,9.4-5.95,21.44-5,37.2,1.13,16.53,2.6,16.29,10.9,27.4,2.96,6.12,10.12,9.83,15.62,13.66,8.01,5.7,15.1,12.13,25.98,16.14,17.77,7.37,24.19,9.31,35.6,2.2,12.43-5.98,39.88-44.69,41.4-75.3.76-11.26-3.86-13.72-9-21.4,0-.5-.8-1-1.8-1.2-.66-.13-1.95-1.1-3.5-1.7-50.47-19.44-66.7-16.6-66.7-16.6Zm26.7,9.3c24.26,6.15,43.95,14.63,43.9,36.4-7.68,58.56-45.78,92.46-97.6,41.7-12.7-12.7-13.8-15.3-13.9-32.4-3.62-44.31,32.16-51.03,67.6-45.7Z"/>
  <path d="m747.67,154.13c-21.47,4.58-25.24,23.7-25,42.7,1.7,19.6,25.8,37.8,48.5,36.6,21.49-.38,37.11-26.05,36.7-44.3,1.68-30.16-35.72-40.13-60.2-35Z"/>
  <path d="m1005.07,35.03c.31,29.54-20.37,50.18-37.5,67.1,1.84,2.73-3.56,2.51-2.8,3.4,1.37,2.71-3.56,3.44-3.1,3.7-23.12,35.21,19.16,56.6,40.1,78.5,2.97-.07,9.97,7.41,10.8,8.1,8.6-1.11,2.28,6.35,5.3,4.1,1.27-2.53,14.97,6.91,14,7.4,2.46-.69,11.14,5.55,10.2,5.9,2.91-1.16,10.52,5.71,10.1,6,1.6-1,7.4,2.2,6.6,3.6,1.41.61,5.84,1.04,22.9,12.1,57.87,47.07,122.48,43.5,204.5,44.5,27.34-.42,36.69.27,38-9.7-.61-25.36-25.97-42.04-40.6-55.7-2.35.85-7-5.25-6.8-5.1-1.5.8-18.6-8.7-17.6-9.8-.51.44-11.72-3.15-11-5-16.45-4.34-77.51-24.98-89.6-38.1-4.03.59-18.76-13.45-22.2-16.4-2.97.09-4.3-4.73-4.7-4.7-2.4.94-17.52-16.58-18.5-16.7-1.96,1.11,1.2-3.17-1.5-1.9-2.78,1.39.53-2.87-1.6-2.4-1.67.46-.17-2.73-1.7-1.8-2.11-1.23-7.19-6.42-7.3-9.8-15.5-12.74-26.92-51.45-20.7-72.7h-11.9c-13.22,113.97,157.87,146.55,222.71,199.39,83.49,120.14-343.6-8.9-311.8-106.5.97-13.34,57.39-70,46.79-92.89h-21.7l.6,5.4Z"/>
  <path d="m1090.87,34.23c-4.17,26.39,5.74,53.13,16.9,71.6-.4.6-.3.8.4.4,2.5-.81,7.2,8.62,6.9,9.1,3.17-.94,3.4,4.56,4.3,4.1,4.27,1.1-1.2,2.34-.3,3.8.4,3.76,4.36-5.48,3.9,0-.44,1.82,4.44.52,3.9,5.1,6.86.36,1.7,6.29,3.5,4.5,4.93-3.17,1.05.84,3.1.8,3.84,1.45,10.69,10.39,11.5,11.8,2.71-1.77,2.41,3.63,3.3,2.8,2.43-1.05,5.9,3.81,5.6,4.3,2.3-.84,15.45,10.42,14.1,9.3-2.16-3.03,13.25,4.93,12.7,6.1-.4.6,0,.8,1,.4,2.19-1.06,1.38,1.81,2.3,1,3.38-.32,38.18,15.72,16.5,2.7-60.47-23.28-111.48-77.82-102.6-142.4-3.89.24-6.61-1.43-7,4.6Z"/>
  <path d="m1108.97,30.53c-8.35,40.36,5.51,77.17,44.5,110.1,10.9,9.4,10.4,7-.7-3.8-33.81-32.27-46.32-63.17-37.8-107.2-1.47-.02-5.45-.15-6,.9Z"/>
  <path d="m1124.97,31.33c-3.13,9.56-4.86,42.85-.8,53.3,8,31.01,43.34,65.14,74.1,75.4,23.68,11.9,65.31,21.97,92.6,33.4,48.52,24.17,106.42,69.26,153.5,63.5,46.99,2.93,197.39-53.14,203.7-110.89-3.27-20.45-31.29-14.07-58.7-10.6-132.87,20.76-188.45,38.96-287.8-27.89-39.09-30.45-65.05-44.22-79.7-77.9-3.87.06-20.74-.26-21.5.8,15.31,31.2,55.9,57.43,87.5,82.1,92.6,66.95,94.18,56.49,231.6,45.61,64.16-9.21,123.56-13.27,72.6,29.4-61.94,44.82-136.9,70.04-208.3,38.6-18.14-9.22-42.97-26.82-59.3-34-43.01-20.33-118.31-29.01-144.7-51.5-38.76-26.11-52.25-68.97-30.4-110.2,0-.4-5.4-.8-11.9-.8-10.5,0-12,.2-12.5,1.7Z"/>
  <path d="m1163.57,33.23c-31.07,29.83-17.32,80.67,18.2,103.6,22.9,16.2,63.5,29.5,104.6,34.3,22.8,2.7,41.1,7.9,55,15.7,7,4,21.6,13.9,32.8,22.4,55.78,42.68,150.01,20.03,203.2-20.3,42.07-37.22-18.15-29.6-64-25-121.56,8.95-141.27,23.38-198.5-21.29-40.38-36.07-97.67-73.86-131.6-113.01-6.69.24-15.93-1.4-19.7,3.6Zm12.2,7.6c8.42-1.49,24.94,15.66,29.9,23.8.5,0,.2-.9-.8-2-8.07-8.26,17.9,11.07,11.8,10.7,2.25-2.04,21.2,13.02,24.9,17.8,5.14.29,10.22,10.13,13.8,10.8.36-1.2-3.2-1.99-2.7-2.9.9-.9,6.7,3.8,6,4.9,10.39,5.63,21.15,12.68,25.8,21.3,1.82,1.04-.7-1.69.7-1.6,1.11-.33,1.74,4.38,2.9,3.7,2.58-.71,13.28,13.74,13.7,13.7,3.13-.89,2.59,4.85,3.5,4.4,41.3,43.8-106.19,6.44-113.89-7.6-2.46-.73-14.88-8.84-13.4-10.3.3-.5-.3-.6-1.2-.2-2.67,1.08.34-1.59-1.4-1.7-11.87-10.55-14.39-13.06-21.9-32.8-4.82-21.79,5.41-53.53,22.3-52Zm391.5,125.7c11.36,1.47,12.83,12.5,5,16.5-.5-.3-.7.1-.4.8.4,1.2-10.5,9.8-12.4,9.8-.5,0-1.4.7-2.1,1.5-1.23,2.86-6.85-2.48-4.1.8,1.98,2.48-.96,1.31-2.1,3-2.1,2-13.5,7.6-14.2,7-.3-.4-.6-.2-.6.4,0,1.5-11.8,6.5-13.3,5.7-.6-.4-.9-.3-.4.1,1.4,1.5-17.4,7.7-33.3,10.9-31.43,5.82-71.43,6.25-90.8-9-2.98.83-16.81-10.27-15.7-12.2-1.1,1.1-3.6-1.2-2.8-2.5.3-.5.2-.7-.4-.4-3.23.24-13.5-12.76-4.1-15.2,31.99-4.77,157.13-20.33,191.7-17.2Z"/>
  <path d="m1172.17,57.33c2.13,1.73-8,4.77-7.5,6.3-.4,1.3-.3,1.3.6,0,2.29-2.66.42,1.43-.9,3-2.9,4.1-5.1,13.9-4.8,21.4.2,3.6.5,6.6.8,6.6,1.72,2.46,3.3,9.58,5.8,12.9,1.5,2.5,2.5,5.3,2.3,6.1-.1.8,0,1.2.5.8.8-.9,4,3.2,3.6,4.5-.1.5.2.6.7.3,1.2-.8,5.3,4.9,4.3,5.9-.4.5-.1.5.5.1,1.4-.8,10.5,6.2,9.7,7.5-.2.4.1,1.1.7,1.5,1.97,1.21-1.24-2.3,1-1.4,1.93.68,1.05,2.34,2.3,3.5.5.5.6.3.2-.5-2.77-4.29,13.7,7.17,13.2,7,3.04,1.52,6.46.96,10.6,4.8,2.99,2.07-.53-1.23,2.6-.3,2.67.54.25,2.63,1.7,2,4.62.02,22.1,5.01,26.3,6.2,4.5,1.48,9.11.63,17.5,1.5,11.29,1.26,15.87-.91,23.2-2.6,1.8-.2-.24-1.15,2-3,3.8-4.02-.97-10.2-1.2-15,.1-2-.2-2.4-1.1-1.7-.8.6-2-.2-4-2.8-4.9-6.6-9.2-11.1-10-10.5-.4.4-.4-.1-.1-1.1.4-1.1.3-1.6-.4-1.2-1.5,1-6.8-4.6-6.2-6.5.4-1.2.3-1.2-.5-.1-.7,1-1.6.6-4.3-1.9-5-4.89.43-.95-.4-3.1-.4-.6-1.4-.8-2.2-.5-2.1.9-3.8-.4-2.2-1.6,1.1-.8,1-.9-.3-.5-1.8.6-7.1-3-6.3-4.3.3-.4-.2-1.3-1-2-1.94-1.98-1.96,1.05-.3,1,.6,0,.9.3.5.6-.8.9-9.7-5.7-9.1-6.7.51-1.54-4.78,1.91-1.6-2.7q.7-.9-.2-.2c-1.6,1.3-2.4,1.3-4-.3-1.12-1.16-4.99-2.84-5.1-4.5.1-.6-.4-1.3-1.3-1.6-1-.4-1.3-.2-.8.7.96,1.86-3.06-1.9-1.9-2.6.3-.6.1-.7-.6-.3-1.2.8-15-7.7-16.4-10.1-.4-.7-1.3-1.3-1.8-1.3-6.15-3.01-20.26-13.29-25.1-12.5-9.4-1.3-10.3-1.3-9-.8Zm22.5,14.9c8.6,3.6,46.8,29,61.9,41.1,9.36,9.06,31.97,27.91,14,36.5-35.47,7.29-94.94-20.87-101.2-50.1-7.5-22.5,4.9-36,25.3-27.5Z"/>
  <path d="m1185.17,90.63c-10.85,15.95,10.66,33.51,25.8,41.1,14.22,5.29,34.91,15.45,44.2,2.7,7.34-15.16-61.72-58.74-70-43.8Zm31.7,15.5c18.5,8.65,33.59,26.5,9.3,23.6-27.93-5.18-45.43-41.15-9.3-23.6Z"/>
  <path d="m1507.87,174.73c-29.21,3.84-116.1,7.38-91.1,33.5,19.56,19.59,86.87,11.9,117.8-8.9,2.6-1.6,5.3-2.5,5.9-2.1.8.5.9.3.4-.6-.6-1-.4-1.2.8-.7.9.3,1.6.3,1.4-.1-.3-1.1,7-7.4,7.5-6.5.3.5.4.3.2-.3-.38-2.19,4.79-7.18,2-9.3-.9-1.2-1.2-2.6-.8-3.3.4-.6.3-.8-.3-.5-10.78-1.64-22.43-3.26-43.8-1.2Zm21.4,9.3c9.4,13.15-38.98,27-58,28.2-14.43,1.35-38.78-3.76-32.3-14.3,2.61-9.76,67.53-21.57,90.3-13.9Z"/>
  <path d="m1230.37,30.13c6,25.29,66.23,68.75,88.5,82.2,97.5,65.6,208.57,25.47,314,9.6,15.7-.7,22.9.9,28.1,6.1,27.22,59.53-157.37,139.07-220.6,136-67.63,6.06-136.68-70.93-196-82.7-5.98-.86-49.69-18.88-44-13.3,3.91,3.84,78.98,24.96,99.8,41.3,34.84,19.16,64.82,50.6,105.7,57,71.42,13,155.19-27.54,220.7-67.5,29.33-19.75,58.44-51.63,45-77.3-8.8-10.6-27.4-10.1-76.8,2.1-62.7,15.4-94.6,20.4-138.4,21.7-77.21,6.79-177.43-46.4-219.2-111.1-2-4.55-4.19-5.43-6.8-4.1Z"/>
  <path d="m1246.37,37.33c46.57,66,141.42,110.55,221.5,103.2,43.8-2.2,79.5-8.9,133.7-25.3,52.9-16,70.6-19.1,82.2-14.2,7.1,3,9.8,12.3,7.8,27.7.35,52.09-98.07,97.75-150.2,120.2-70.91,29.54-103.17,34.2-162,20.1-32.09-8.95-49.18-36.57-81-54.6-19.12-11.43-53.03-31.64-63.7-27.2-1.6,1.6-1.6,1.7-.1,1.1,2-.7,7.1,1.6,6,2.8-.4.5-.1.5.6.1,1.3-.8,11.4,2.3,10.7,3.3,5.57.74,33.19,14.69,31.3,17.4-.9.6-.7.7.5.3,1.9-.6,6.2,1.6,5.1,2.6-.3.3.3.5,1.3.4,1.3-.1,1.7.5,1.5,1.9-.2,1.6-.1,1.7.7.6.89-2.99,17.14,10.7,18,11.8,1.3,1.4,2,1.9,1.5,1.1-.54-1.8,5.29,3.86,3.9,4.3-.3.6-.1.7.6.3,1.3-.9,11.3,8.2,10.5,9.6-.3.5-.2.7.3.6,1.2-.4,8.3,6.3,7.7,7.4-.3.5-.1.7.4.6.6-.2,2.1,1,3.5,2.7,2.1,2.4,2.4,3.2,1.4,4.5q-1,1.3.5.2c1.4-1.1,2.3-.8,6.5,2.4,2.6,2,4.7,4.1,4.5,4.6-.1.5.2.7.7.4,1.2-.8,16.3,6.9,15.4,7.8,13.38,1.54,22.46,6.29,45.2,7.1,16.15,1.55,55.56-3.83,73-7.6-.7-1,8.2-3.2,9.7-2.3.7.4.9.3.5-.1-.7-.9,18.9-8.5,22.5-8.8.9-.1,1.5-.4,1.3-.8-.6-.9,6.6-2.9,7.9-2.2.6.3.8.3.4-.2-.9-.9,1-1.9,10.7-6,5.55-1.49,10.49-6.81,13.3-4.4,1.4,1.1,1.5,1.1.5-.1-2.05-2.43,16.73-8.72,18.4-10.1,2.3-1.1,4.8-1.7,5.4-1.3.7.4.9.3.6-.3-.4-.6,1.7-2.2,4.6-3.6,45.47-21.36,67.91-36.73,81.6-45.2.7.3,1,.3.9-.2-.5-1.5,10.2-10.4,11.5-9.7.7.4.9.4.5-.1-1.1-1.1,1.2-3.6,2.5-2.8.5.3.7.2.4-.4-.8-1.3,3.7-5.6,4.7-4.6.4.5.6.3.4-.3-.5-1.8,4.1-7.6,5.4-6.8.6.4.8.3.5-.3-.9-1.5,3.7-9.5,4.9-8.6.5.5.6.4.2,0-.8-1.1,1.1-6.7,2.4-6.7.5,0,.6-.5.3-1-.3-.6-.1-1,.5-1s.9-.3.6-.8c-.2-.4.8-6,2.4-12.3,2.55-8.98,2.91-17.64,4.9-23.3.95-12.71-1.04-36.44-18.7-30.8-5.91.65-16.79,5.83-20.8,6,.7,1.2-6.1,3.5-7.6,2.6-53.82,22.38-132.41,46.09-189.3,47.5-40.43,3.23-84.52-4.9-112.5-20.1,0-.5-.5-.6-1-.3-.6.4-1.6.3-2.3-.2-.59-.88-20.53-8.87-20-10.6.3-.6.1-.7-.4-.4-1.8,1.1-27.7-14.8-26.7-16.4.3-.5-.2-.6-1-.3-1.91,1.06-2.38-2.57-3.7-2.6-1.2,0-12.9-9.1-12.9-10,.16-1.05-4.74-1.45-3.4-3.1.4-.7.3-1-.3-.6-1.2.8-13.8-10.3-13.7-12,.1-.7-.2-1-.7-.7-1.4.8-12-9.8-11.4-11.4.2-.7,0-1-.5-.7-1.2.7-5.1-5.5-4.3-6.8.3-.6.1-.7-.6-.3-3.38-.08-4.37-11.9-9.2-10.4,0,0-3.1,0-3.1,0l4.2,7.7Z"/>
  <path d="m1255.37,30.13c-.03.58,3.4,7.95,3.2,8.7-.1.5.2.8.7.8,1.3,0,6.2,8,5.6,9.1-.4.5-.3.8.2.7,1.83.59,17.63,15.83,17.7,17.9.5.5.6.3.2-.5-1.2-2,.9-1.4,3,.9.13,1.59,17.72,11.96,14.2,13.8q-1.1,1.4.3.4c.1-2.97,15.21,7.51,13.9,8.7-1.81.66,2.14,2.35,1.5,1-1.2-1.9,1.3-1,6.3,2.3,2.69,2.78,19.93,10.13,21.5,13.1,2.44-.02,22.66,9.01,26.1,10.2,10.7,3.9,28.5,9.5,31.6,9.9,49.96,11.28,114,3.58,167.3-10.8.6.3.7.1.3-.5-.7-1.1.7-1.6,4.2-1.5,1.61.21.81-1.82,2.5-1.7,1.02.14,19.73-7.24,20.9-6.6.7.1.9.1.4-.2s1.7-1.5,4.8-2.9c3.1-1.3,6.2-2.1,6.8-1.7s.8.3.5-.3c-.8-1.2,11.1-6.5,12.6-5.6.5.3.7.2.4-.4-.3-.5,3-2.6,7.5-4.7,13.67-5.8,23.8-14.89,32.3-22.1.6,0,.9-.9.7-1.9-.2-1.2.1-1.6,1-1,.7.4,1,.4.6-.1-.4-.4.2-2.6,1.4-4.9,4.06-7.9,3.04-21.47-.9-30.1-7.05-.15-21.25-.45-28.3-.6,45.65,46.34-57.39,77.43-105.2,90.5-97.92,24.48-215.57-7.32-269.31-88.4.11-2.27-5.71-2.41-6.5-1.5Z"/>
  <path d="m1271.47,33.83c30.81,52.59,133.14,90.75,200.9,87.5,52.24-.63,156.71-34.73,130-63.1-5.7-3.4-23.8-3.4-47.5-.2-81.54,7.21-119.97,23.46-151.7-28.4h-39c2.75,13.57,2.78,28.05-2.2,32.7-18.87,13.77-59.28-18.6-67.8-32.7h-24.8l2.1,4.2Z"/>
  <path d="m1425.27,32.53c34.46,38.64,121.28,11.96,166.6-2.4-12.21-.12-40.89-1.5-46,2-28.09,8.71-68.63,17.13-95.3,3.9-3.4-1.5-7-3.6-7.9-4.6-.63-2.52-15.08-1.67-19.4-1.8l2,2.9Z"/>
  <path d="m1698.37,35.83c13,23.81,25.92,9.74,41.4-.9,2-1.7,3.1-2.1,3.6-1.3,1.1,1.42.75-3.39.8-4h-49.7l3.9,6.2Z"/>
  <path d="m1755.17,37.23c-6.5,9.4-9.2,12.7-8.4,10.1.7-2.4-.1-2.1-1.5.4-2.55,4.79,5.25-4.32-3.2,8.6-16.05,24.02-19.66,65.2-25.5,91.8-3.19,17-29.79,42.07-42.5,44.8-.7-.3-.9-.2-.5.2,1.1,1.1-11.9,8.8-13.4,7.9-.6-.4-.8-.3-.5.3.8,1.3-8.9,6.6-10.5,5.7-.6-.4-.8-.3-.5.3.8,1.3-4.1,3.6-5.5,2.7-.6-.4-.8-.3-.5.2.8,1.3-14,8.7-15.4,7.8-.7-.4-.9-.3-.6.3.8,1.2-8.1,5.6-9.6,4.7-.7-.4-.9-.3-.4.1.9,1.1-10.3,6.7-12.1,6-.7-.3-1.1-.1-.8.4.7,1.1-23.3,12.3-24.6,11.5-.7-.5-.8-.2-.3.6,1.68,2.38-2.91-.62-2.2.6.42,1.42-18.19,8.84-18.6,9.5-1,.5-2.3.7-3,.3s-.9-.4-.5.1c.1,1.68-20.52,10.34-21.5,11.1-1.5.8-3.2,1.2-3.7.9-.6-.3-1-.2-1,.2,0,2.1-39,17.5-39,15.5-1.74,1.55-27.1,8.81-45.5,12.3-11.64,3.48-35.26,4.15-35,13.5,2.5,4,44.9,16.9,55.7,17,4.65-.51-2.64,2.79,1.1,1.6,16.39.81,47.76,4.03,64.2,1.3,7.78-1.07,11.53-1.01,16.5-2.2,4.5-1.7,14.5-3.7,15.8-3.2.9.3,1.3.3.9-.1-1-1.1,8.1-4.4,10-3.7,2.94,1.34-1.33-2.74,1.6-1.4,1,.3,1.7.2,1.7-.2,0-1.3,6-3.2,7.4-2.4.6.3.8.2.3-.2-.9-1,10.3-6.6,12-6,.7.2,1.2-.1,1-.8-.55-1.67,4.93-.48,3.4-1.4-1.42-2.24,10.45-6.49,10.9-7.8,1.22-2.15,4.22-.23,3.5-1.4,1.68-3.98,7.91-6.3,12.7-10.9,4-3.2,7.2-5.1,7.9-4.6.7.4.9.3.6-.3-.4-.6,1-2.5,3.1-4.2,2.17-1.75,22.05-21.56,23.7-21.8-.6-.8,13.6-15.3,14.5-14.8.4.3,1.6-.5,2.6-1.7,1.1-1.2,1.3-1.8.7-1.4-2.9,1.6-.8-1.3,5.4-7.9,3.6-3.9,7.1-7,7.7-7s1.1-.7,1.1-1.5c2.02-5.36,6.22-8.1,12-15.8,4.3-5.2,8.1-8.9,8.7-8.6.7.4.8.2.4-.5-.9-1.4,10.3-13.3,11.7-12.4,1.35.66-.69-1.25,1.5-2.8,9.5-7.9,21.6-15.4,23.4-14.3.6.4.8.3.4-.4,1.12-2.74,8.41-3.68,11.7-6.4,2.6-1.5,4.5-2.3,4.2-1.6-.4.7,0,.4.9-.6,1.3-1.6,1.8-1.7,3.1-.6s1.4,1,.9-.4c-.4-1,0-1.8,1.2-2.3,2.15-.43,6.63-4.64,9-3.9.8.3,1.3.2,1-.3-.9-1.4,11-8.2,13.1-7.5,1.2.4,1.4.3.6-.3-1.6-1.1,15.2-12.7,16.9-11.7.7.4.8.3.4-.4-.6-1.1,3.1-3.8,4.6-3.4.5.1.7-.3.5-.9-.68-.99,2.99-3,1.8-.9-.5.9-.4,1.1.4.6.6-.4.9-1.1.6-1.5-.7-1.2,4-5.3,5-4.4.4.5.5.3.2-.3-.8-1.4,1.7-3.7,2.7-2.6.4.4.6.2.5-.3-.5-1.6,3.2-6.5,4.4-5.8.6.4.7.1.3-.6-.5-.7-.1-2,.7-2.9,3.13-4.84,5.52-8.8,8.7-14.5,2.3-5.1,3.22-3.31,4.4-7.2.4-1.4,1-2.4,1.5-2.1.4.3.8,0,.8-.7,0-2.3,6.5-12.7,7.5-12,.7.3.8.1.4-.6-1-1.5,3.3-8.3,4.6-7.5.6.4.9.1.6-.7-.3-.8.7-3.2,2.2-5.4,4.12-5.97,6.23-10.18,10.4-16.9,2.12-4.64,6.11-7.41,1.3-7.6-1.9,0-3.5,1.9-8.4,9.7-37.12,58.54-42.59,81.47-111.3,108.4-27.69,8.74-25.97-10.5-25-32.8,1.92-28.14,15.05-57.19,33.9-85.3-7.39.33-7.82-2.15-14.1,7.6Zm-77.7,173.4c5,2.7.5,12.6-13.9,30.6-40.36,50.62-99.47,86.45-167,78.5-19.56-2.17-49.96-8.99-41-18.6,30.79-13.26,54.43-19.94,104.3-44.5,53.74-23.17,96.43-47.85,117.6-46Z"/>
  <path d="m1617.47,241.23c-17.24,4.54-93.77,39.89-114.8,59.1-5.89,10.23,33.47,10.44,47.9,7.8,27.6-4.8,56.9-21.5,80.4-45.7,21.49-20.87,8.98-28.03-13.5-21.2Z"/>
  <path d="m1773.97,42.33c-13.66,30.11-18.55,46.86-13.1,69.7,7.18,20.87,51.3-2.52,63.1-16.1,5.86-6.41,35.01-48.66,45.6-66.3h-20.9c-19.08,26.51-48.17,53.58-45.4,0h-23.4l-5.9,12.7Z"/>
  <path d="m1899.77,42.33c-21.3,30-34.2,52.5-42.9,74.3-4.5,11.3-7.9,16.4-14.3,21.2-22.83,14.04-83.7,51.18-95.8,63.1-43.57,33.27-104.64,96.54-151.5,118.8-82.38,44.97-202.68,25.65-285.8-7.7-37.4-15.1-59.7-18.8-119.7-19.9-59.56.68-74.17-10.08-114.9-35.8-30.87-21.22-102.51-59.56-129.5-69.5-31.09-8.37-62.63-8.04-85.4,11.1-6.48.1-33.36,49.02-50.9,71-23.74,26.21-62.45-13.24-90.8-29.1,7.26,10.17,58.92,47.74,74.6,44.2,12.5.2,17.9-4.7,33.5-30.2,35.93-55.05,34.33-59.12,83.6-63.9,22.34-6.69,96.73,28.1,133.5,53,41.64,25.62,63.95,44.57,98.7,51.4,46.03,3.76,122.15-.25,160.7,21.5,85.85,36.92,231.04,55.85,316.9-5.91,10.06-3.9,118.97-97.92,137-109.9,21.8-16.3,46.8-32,76.1-47.6,21.8-11.7,25.3-15.3,31-32.3,9.89-30.38,30.65-62.56,55.5-90.5h-10.6l-9,12.7Z"/>
  <path d="m503.87,32.23c-32.96,10.1-21.83,5.5-57.5,39.5-127.84,139.58-255.02,95.97-420.3,70.1-6.6.5-6.2,3.2,1.7,10.5,44.96,40.25,145.44,60.87,213.1,68.3,92.74,4.32,126.92,43.9,231,55.99,133.18,24.67,261.49,62.41,227.39,211.51-3.37,55.07-19.42,75.03-34.11,82.79-22.02,11.63-54.74,3.06-67.95,23.81-3.01,4.72-4.02,9.43-4.43,12.27,6.26,26.98-.7,41-4.5,46.83-24.78,38-107.52,22.66-124.38,19.53-17.7-3.28-26.55-4.92-36.58-8.94-6.86-2.75-18.08-7.94-35.03-12.39-3.5-.92-9.15-2.4-9.32-1.9-.27.78,12.71,6.38,66.82,26.26,7.75,2.09,19.53,4.87,34.07,6.65,33.14,4.06,83.07,10.17,109.96-18.36,5.16-5.48,18.87-22.19,18.11-56.87,2.02-2.41,4.47-4.94,7.43-7.39,9.81-8.15,20.25-11.38,27.01-12.78,3.69-1.17,8.12-2.99,12.76-5.88,2.13-1.33,4.01-2.7,5.66-4.03.71-.48,1.74-1.19,2.93-2.09,2.09-1.58,9.12-7.08,15.75-16.75,1.92-2.8,4.28-6.63,6.5-11.46.79-2.03,2.06-4.98,3.92-8.4.9-1.66,3.66-6.73,4.33-6.45.65.28-.82,5.7-2.55,10.12-1.42,3.63-2.43,5.08-6.4,13.29-.84,1.74-1.52,3.17-1.95,4.08-2.23,2.98-4.53,5.99-6.9,9.03-2.59,3.31-5.17,6.54-7.73,9.67-3.79,3.33-8.07,6.77-12.86,10.2-3.34,2.39-6.6,4.54-9.73,6.46-3,1.49-5.33,2.79-6.97,3.74-.92.53-1.64.97-2.52,1.64-1.75,1.34-2.96,2.73-3.71,3.73-2.29,2.15-10.64,10.48-12.07,24.09-1.18,11.21,3,19.67,4.7,22.72.96.96,2.61,2.5,4.88,4.06,18.14,12.51,43.78,4.39,53.65,1.26,10.83-3.43,19.78-8.3,27.2-12.34,6.23-3.39,11.25-6.54,14.78-8.87.51-.27,1.23-.67,2.07-1.18,1.87-1.14,3.15-2.5,5.21-3.76,1.67-1.02,3.96-2.71,6.58-5.68,1.07-.72,2.53-1.77,4.16-3.18.18-.16.88-.76,2.02-1.86,0,0,1.88-2.28,4.13-4.25,6.16-5.42,9.37-13.45,16.4-19.3,1.56-2.33,5.01-7.78,3.61-9.24-.22-.23-.59-.39-1.21-.36-18.35,33.6-117.42,104.65-137.41,45.81-.69-11.81,1.71-16.01,17.11-29.61,7.68-5.89,18.38-15.13,28.79-28.35,6-8.1,60.66-84.3,33.56-166.28-13.17-39.83-40.83-66.48-45.47-70.86-19.25-18.16-37.39-26.37-63.44-38.26-44.76-20.44-94.86-31.39-100.44-32.57-1.84-.39-7.85-1.63-15.86-3.87-11.31-3.16-18.9-6.15-24.89-8.34-15.63-5.72-25.34-7.82-35.3-10.68-29.62-8.49-117.83-39.75-114.83-55.35.44-2.29,3.04-5.25,13.56-7.43,10.59-5.17,26.48-13.43,44.86-25.09,41.61-26.4,47.2-39.27,78.57-58.69,30-18.57,67.37-41.72,99.76-28.44,25.95,10.64,36.91,39.82,40.84,52.5-1.07,62.99,57.87,106.86,106.99,136.5-21.16-24.69-80.81-54.67-89.99-92-17.2-45.49,6.75-79.78-57.61-106.3-54.95-16.31-86.15,16.06-126.8,46.7-3.46,2.52-6.17,4.69-7.99,6.2-3.18,2.64-4.71,4.13-7.74,6.35-2.55,1.87-4.74,3.22-6.17,4.05-2.98,2.74-14.01,11.77-18.7,12.5-23.4,16.27-61.97,42.76-103.3,49.8-12.51,12.48,15.47,14.54,17.7,18.8,6.82,2.6,13.76,5.36,20.81,8.3,4.2,1.75,8.33,3.52,12.39,5.3,72.27,37.25,175.89,44.82,253,79.6,5.33,2.4,10.6,4.6,10.6,4.6,14.52,6.58,25.23,12.59,28.85,14.66,19.37,11.05,37.56,24.28,36.95,25.27-.09.14-.61.09-2.5-.75-9.61-7.61-14.57-10.78-17.07-12.22-.36-.21-2.62-1.5-5.37-3.06-3.12-1.77-5.62-3.17-6.44-3.63-6.23-3.49-14.25-7.78-17.01-9.25-6.92-2.84-13.95-5.84-21.09-8.99-6.11-2.7-12.09-5.42-17.92-8.15-45.74-10.18-93.39-21.98-142.68-35.66-45.21-12.55-88.41-25.75-129.51-39.3-29.55-3.41-60.18-7.58-91.77-12.66-25.49-4.1-50.18-8.55-74.04-13.28.72,2.16-15.36-1.82-15-3.1-15.25-3.79-49.68-16.29-56.8-26.8-.16-4.4-.67,1.88-2.9-1.6-4.95-10.26,37.85-2.93,35.7-2.5,141.94,21.54,204.1,32.97,321.7-52.7,3.9-3.57,7.8-7.13,11.7-10.7.73-.36,1.79-.94,2.92-1.84,2.56-2.03,3.84-4.32,4.28-5.06,1.32-2.24,3.85-5.44,9.2-9.6,1.52-2.3,3.65-5.01,6.6-7.62,2.63-2.33,4.31-3.15,8.98-6.45,4.52-3.19,5.5-4.22,8.23-6.19,5.97-4.32,11.27-6.61,16.12-8.72,16.59-7.18,37.15-9.19,40.7-9.52,5.37-1.32,26.48-5.82,48.42,5.82,27.2,14.43,33.82,42.07,34.73,46.18,2.37,23.21-.17,77.89,15.07,92.33,11.25,22.53,118.57,97.83,49.23,42.37-28.64-22.9-40.65-37.05-46.53-49.09-11.37-23.32,1.51-31.09-6.69-80.19-3.87-23.17-5.8-34.75-13.21-44.92-25.29-34.72-91.11-24.67-104.57-22.39Z"/>
  <path d="m1915.37,59.83c-19.79,21.84-32.14,55.15,4,25.3,1.5-1.32.56-23.84.5-29.6l-4.5,4.3Z"/>
  <path d="m506.37,80.53c-28.4,6.4-41.3,13.3-83.9,44.8-34.21,27.23-66.5,44.12-61.1,64.8,28.08,36.19,84.65,53.18,143.6,67,55.1,9.11,132.59,49.85,168.1,80.5,4.51,4.82,8.66,4.57,2.7-.8-25.77-25.13-110.35-73.53-152.9-80.6-53.11-10.43-160.84-43.01-143.1-84.4,31.77-39.54,157.34-137.2,189.6-46.3,1.96,20.55,22.13,48.66,34.1,68.4,20.7,29.06,59.47,44.85,86.4,67.1,18.9,14.4,18.5,14.1,18.5,12.4,0-2.7-36.8-30.7-57.5-43.8-40.04-24.66-62.3-59.81-71.4-102.9-6.09-35.52-40.25-53.73-73.1-46.2Z"/>
  <path d="m1039.87,88.43c-6.2,2.9-9.8,6.4-16.5,16.2-41.16,57.35,16.29,86.83,68.5,119.2,31.38,17.37,41.56,28.76,74.8,36.8,25.96,7.26,85.45,11.85,107.7.7,8.2-4.1,11-8,11-15.2-4.11-31.09-35.97-42.24-77.5-58.5-31.2-11.6-45.8-18.4-59.2-27.4-15.2-10.1-50.2-38.6-75.1-60.9-12.7-11.4-24.5-15.2-33.7-10.9Zm55.4,60.3c35.35,11.79,65.8,35.95,105.1,46.7,28.74,10.05,40.47,14.64,53,32.7,4.66,20-13.66,24.35-35.5,25.1-42.68.52-62.87-14.56-110.3-47.5-22.5-16.8-31.2-28.1-32-41.6-1.3-14.11,8-18.37,19.7-15.4Z"/>
  <path d="m1111.57,174.83c-3.3,3.3-.6,9.8,8.6,21.1,24.41,26.38,51.37,48.65,89.2,48.2,15.8,0,16.8-.1,21.5-2.5,10.5-5.82,11.08-14.26.5-24.2-17.27-15.31-32.75-14.56-61.5-26.6-22.03-6.5-46.56-20.4-58.3-16Zm43.1,17.4c22.54,7.31,82.98,18.23,70.4,40-19.13,14.35-57.18-.17-74.7-17.3-17.67-16.19-18.87-30.27,4.3-22.7Z"/>
  <path d="m504.87,103.73c-25.89,3.3-62.07,27.15-83.8,43.8-42.67,34.07-8.36,60.3,26.8,76.6,36.59,21.38,104.1,20.59,150.1,53.6,95.38,59.61,131.72,85.95,122.91,178.3-4.36,45.57.11,90.2-24.01,126.3-12.7,22.4-12.6,37.5.1,39.9,12.5,2.3,34.5-8.6,51.4-25.6,12.3-10.29,23.66-34.03,31.6-48.5,12.17-19.68,11.36-81.68,10.5-108.9.4-34.82,3.79-67.57-12.7-96-4.89-13.42-45.51-52-60.6-56.6-.9,0-3.3-1.5-5.1-3.4-8.43-7.27-11.76-7.64-25.2-18.1-16.8-12.6-32.6-23.1-49-32.5-15.83-9.04-29.68-15.5-39-30.6-17.02-27.71-35.91-46.62-48.4-72.8-10.22-21.91-21.47-27.78-45.6-25.5Zm5.5,50.3c18.9,5.2,42.5,24.7,51.2,42.3,18.39,41.41-62.73,24.49-78,16.2-61.28-28.06-25.51-71.24,26.8-58.5Zm125.3,101.5c19.64,6.54,36.71,17.85,57.7,28.4,30.2,15.4,42,23.5,55.5,37.8,41.76,47.68,27.12,86.81,30.9,165.9.79,46.67-10.01,72.7-40.3,96.1-22.38,12.44-21.92,1.98-16.2-26.6,4.2-21,5.5-32.9,5.1-48-1.43-60.54,17.82-93.59-11.5-143-.63-12.01-67.83-76.22-94.1-100.5-12.92-13.53-4.13-15.97,12.9-10.1Z"/>
  <path d="m497.87,177.33c-22.22,9.32,16.84,33.81,26.6,18.5,2.97-7.81-15.97-22.3-26.6-18.5Z"/>
  <path d="m673.37,287.33c-12.67,6.91-2.25,12.29,11.1,28.5,42.32,46.43,64.16,84.58,51.4,146.3-5.06,23.84-.78,75.62-3.8,102.5,1.62,1.82,4.6,5.17,7,5,53.44-21.7,31.02-110.42,32.4-165.5,4.14-63.69-41.52-110.47-98.1-116.8Zm34.9,15.8c3.45-.69,8.05,2.87,17.1,10,19.81,16.88,17.97,16.06,25.12,28.81,15.65,28.03,16.33,38.31,15.48,67.19-1.23,27.03,6.84,92.71,2.5,110.3-.7,3.9-1.7,7-2.2,6.7-.5-.4-.6.1-.3.9.84,5.35-13.69,34.78-24.7,25.9-1.1-1.2-1.6-8.5-2.4-29.7-1.4-42.6-1.2-49.5,1.9-59.6,13.57-44.22-1.69-75.56-4.9-81.3-.34-.6-1.86-3.23-3.74-7.01-2.21-4.44-3.2-7.01-4.5-9.86-1.44-3.14-3.7-7.56-7.16-12.73-1.56-2.68-3.97-6.54-7.3-10.9-9.33-12.22-14.92-13.69-15.8-20.2-1.03-7.57,4.25-17.17,10.9-18.5Z"/>
  <path d="m713.87,322.03c-.32.45-1.5,2.27-.93,4.05.3.94,1.06,1.75,1.56,2.29.67.73.95.8,1.37,1.27,1.11,1.23,1.12,2.84,1.2,3.56.39,3.74,4.78,3.97,6.78,8.74,1.53,3.65.64,7.48,2.02,7.78.62.14,1.08-.59,2-.43.97.17,1.61,1.19,2,2.04.97.88,2.34,2.24,3.7,4.11,4.95,6.75,4.27,12.36,7.27,13.47,1.43.53,3.86.09,8.22-4.33.4-.76.65-1.48.81-2.13,1.15-4.74-1.88-8.96-2.72-10.05-1.68-8.7-2.99-11.56-4.02-11.52-.52.02-1.08.78-1.7.53-.53-.22-.49-.92-1.07-2-.37-.68-.74-1.04-1.31-1.66-7.62-8.24-11.09-13.13-11.09-13.13-.91-1.28-1.02-1.54-1.6-2.1-2.22-2.15-6.15-3.63-9.67-2.3-.67.25-1.73.76-2.82,1.82Z"/>
  <path d="m751.17,466.83c-6.66,11.53-7.03,29.49-2.6,44.2,2.69,11.91,9.08,11.31,11.2-.4,2.4-10.6,1.8-24.9-2-42.8-.5-2.5-4-3-6.6-1Z"/>
  <path d="m1916.77,112.83c-21.89,23.23-25.14,50.6-26.4,80.6-.84,22.44,16.95,15.69,30,11v-11.6c-26.02-8.12-17.59-48.4-3.3-66.4,4.51-4.81,2.98-10.8,2.8-17.1l-3.1,3.5Z"/>
  <path d="m.37,160.53v8.8c36.14,16.91,68.76,29.74,116.1,44.7,31.27,10.9,57.87,20.84,62.9,40.2,1.15,17.61-87.34,52.94-108.5,48.9-28.79,1.38-47.36-11.6-70.5-26.7v37.9c28.76,16.24,62.71,20.15,94,8.8,17.24-5.86,50.09-18.49,64.5-16.9,52.12-.31,40.42,81.47,52.4,120.1,16.11,72.32,63.53,147.5,120.6,190,31.08,21.41,43.06,24.38,71.5,37,36.81,18.64,94.54,26.81,136.1,19.6,33.51-8.19,54.54-43.84,22.9-66.6-8.5-6.4-16.9-10.6-35.8-17.8-51.27-21.68-121.81-58.05-115.3-117,1.5-10.1,6.6-26,11.6-36,19.32-39.52,97.03-47.01,128.4-14.9,18.33,20.49,26.55,44.17,27.1,80-2.46,52.01,27.29,88.71,73.8,68.9,42.44-18.88,44.29-69.47,47.29-122.5,13.41-117.87-122.66-143.22-227.09-160.4-99.78-13.22-131.87-32.83-205.5-47.9-52.59-6.33-74.03-16-119-28.2-29.6-7.8-48.7-13.6-64.9-19.6-29.96-10.83-59.37-25.84-82-39.3-.3,0-.6,4-.6,8.9Zm553.8,159.1c66.52,7.1,137.32,42.05,137.7,111.5-6.77,33.62.57,89.44-26,106.8-10.3,9.57-29.67,12.16-41.6,6.4-57.94-37.16,18.63-147.69-127.9-181.4-17.1-4.4-17.8-4.5-28.6-3.9-10.9.6-24.4,2.6-31.4,4.8-6.45-.39-52.8,34.07-63,38.7-8.01,4.22-21.47,5.86-27.7.5-11.76-8.09-11.93-28.46-7.7-42.4,6-15.2,18.7-28,33-33.1,24.42-6.58,47.28,5.21,76.4,3.5,0,0,16.5.1,16.5.1,0,0,9.5-3.7,9.5-3.7,21.8-8.96,56.43-9.85,80.8-7.8Zm-288.7,2.7c3.4,2.9,8.9,10.8,8.9,12.8,0,.7-2.3,4-5,7.5-33.63,40.91,10.56,111.8,57.5,113,23.4,3.7,25.1,5.1,46.8,38.1,13.8,20.9,28.6,37.7,48.9,55.6,21.4,18.8,53.3,40.7,85.2,58.4,21.21,12.63,32.03,18.18,25.3,36-6.2,11.6-23.7,17.9-50.1,17.9-33.05,1.57-65.1-11.12-95.1-23.6-5.59-1.27-8.46-4.45-12.5-5.4-1,0-2.3-.6-2.9-1.4-3.04-2.87-8.18-3.82-12.2-7.3-5.1-4.36-14.46-3.99-16.4-9.4-.4-1.1-4.3-4.7-8.8-8.1-59.45-50.6-116.33-130.99-97.3-218.3,3.2-19.2,3.9-25.7,4-39,.2-18,.6-19.6,7.5-25.8,5.3-4.8,11.2-5.2,16.2-1Z"/>
  <path d="m543.37,331.73c-57.94,12.66,45.13,42.43,53,94.1,3.7,13.6,9.7,47,12.1,66.8,1.8,15.7,7,28.8,14.1,35.7,8.4,8.1,22.7,10.2,34,5.1,21.4-11.24,24.6-29.85,25.8-58.9.1-24.76,7.3-38.82,3.6-58.6-11.71-59.56-86.13-91.08-142.6-84.2Zm50.7,8.4c50.31,6.83,101.29,55.53,87.4,109.2-3.6,30.96-1.11,72.74-29.1,79.3-29.72,3.61-34.35-12.98-40.5-50.6-9.1-54.3-10.1-58.7-16.5-71.4-3.86-11.37-30.79-39.77-40-51.5-8.93-18.4,20.91-17.17,38.7-15Z"/>
  <path d="m592.67,354.13c-10.47,6.6-4.3,13.72,3.6,30.8,10,19.7,14.5,32.3,16.7,47.1,10.14,54.96,7.1,81.75,33.9,85.6,20.92-1.5,25.74-20.88,26.5-43.5,0-18.09,6.46-35.66,4.2-51,.11-36.9-58.18-79.32-84.9-69Zm30.6,12.4c.5.7,1,1.2,1.2,1,1-.6,7.9,2.4,7.4,3.2-.4.5,0,.6.8.3s2.8.7,4.6,2.1c3.79,3.55,2.41.77,4.6,2.5,3.47,1.68-3.79,3.53.4,3.6,2.63.05.56-1.39,1.9-1.6,1.7,0,11.2,9.1,10.6,10.1,3.34,1.24,12.33,13.34,16,25.9,4.69,12.96-2.2,42.87-2.4,59.9.12,12.89-1.34,17.56-3.8,20.1,1.3,0-1.3,5.8-4,8.7-39.72,33.02-36.94-76.86-45.9-94.4-1.94-4.76-2.29-12.9-3.7-12.5-1.38.71.62-4.05-.6-3.3-.8.5-4.7-11.7-5.6-17.7-2.64-11.43,13.61-10.74,18.5-7.9Z"/>
  <path d="m636.27,393.53c1.1.7,1,1-.6,1.5-3.3,1-6.3,7.7-6.3,13.8,1.97,16.94,1.98,59.54,12.7,72,.8.9,1.2,2.2.7,2.9-.4.7-.3,1,.3.6s1.8.2,2.7,1.2c2.3,2.5,7.6,1.4,9.3-1.9,2.3-4.7,9.3-43.3,9.3-51.4-.4-10.52-4.7-24.42-12.9-32-2.2-2.2-3.9-4.2-3.7-4.5s-.6-.6-1.7-.7c-3.3-.2-6.6-.9-7.3-1.7-.29-.7-5.04-1.25-2.5.2Z"/>
  <path d="m256.27,453.53c-2.3,1.8-2.4,2.4-2.1,11.8,2.28,43.85,15.39,60.17,52,105,34.65,41.78,67.61,59.31,113.8,75.3,21.32,9.98,88.42,17.15,94.4-10.6,0-8.2-2.8-10.8-41-37.4-55.2-38.6-67.9-49.2-101.6-85.3-24.9-26.6-29.3-29.4-69.4-43.7-8-2.9-19.9-7.6-26.5-10.5-15.5-6.9-16.5-7.1-19.6-4.6Zm32.7,22c43.5,12.3,54.8,18.6,82.2,45.5,49.7,47.15,25.45,25.54,96.2,79.3,23,17.1,32.5,26.1,33.6,31.7.09,23.09-58.47,21.18-83.1,9.9-70.3-22.9-119.04-72.45-150.8-137.1-2.59-3.81-3.5-26.65-.2-29.2,7.54-6.94,8.66-2.98,22.1-.1Z"/>
  <path d="m286.37,496.83c-16.4,10.07,9.41,43.46,20.1,56.8,19.04,24.65,45.41,54.63,72.4,67,17.95,7.21,50.58,23.07,74.5,21.7,35.69-2.03,31.02-19.39-6.5-46.6-43.67-33.32-71.25-58.68-101.5-82.3-17-10.38-43.88-23.7-59-16.6Zm15.35,22.22c5.53-7.39,20.03-5.16,21.59-4.92,4.52.7,8.54,2.4,10.22,3.18.99.45,2.94,1.4,7.41,4.36,5.25,3.48,7.76,5.62,11.63,8.46,2.77,2.04,6.77,4.83,11.9,7.9,1,.73,2,1.47,3,2.2,2.31.97,3.43,2.22,4.04,3.21.67,1.1.5,1.55,1.26,2.29,1.4,1.35,2.9,1.97,3.61,2.21,1.98.67,2.75,1.71,7.27,5.97,2.25,2.12,5.53,5.13,10.02,9.02,5.43,1.51,19.76,14.5,25.2,18.5,3.7,2.74,6.51,5.14,8.42,6.83,2.97,2.64,5.27,4.95,9.29,7.87.77.56,1.38.61,1.89,1.4,1.36,2.1,6.63,4.04,6.2,6.5-.3.6-.2.8.2.3,1-.9,5.6,3.2,4.9,4.4-.3.5.1.6.8.4,3.11.45,15.67,12.32,13.3,18.7-1.33,1.92-3.59,4.55-7.1,6.4-1.99,1.05-3.65,1.47-4.14,1.59-2.9.69-5.37.47-6.86.21-38.23-11.17-53.19-15.36-56.31-16.02-.53-.11-2.99-.6-6.13-1.77-1.77-.66-3.19-1.32-4.16-1.8-5.39-2.67-16.85-10.75-21.1-14.2-2.39-1.74-5.93-4.45-9.92-8.09-8.23-7.5-13.23-14.23-15.48-17.21-12.72-16.79-26.48-23.53-31.4-41.1-1.28-4.56-3.3-11.77.45-16.78Z"/>
  <path d="m330.34,536.94c-.71-.08-1.88-.11-3.18.37-.75.28-1.83.67-2.59,1.77-.81,1.17-.77,2.42-.74,2.88.15,1.32.4,2.82.81,4.43.56,2.18,1.29,4.03,2,5.54.5,1.92,1.44,4.72,3.4,7.61,1.73,2.55,2.33,2.35,4.5,5.09,2.92,3.68,2.59,5.01,6.52,11.18,1.29,2.03,2.05,3.21,3.31,4.71,2.42,2.87,4.89,4.79,6.65,5.99,1.41,1.53,3.44,3.66,5.97,6.13,4.85,4.73,9.2,8.16,10.86,9.68,4.4,4,16.6,10.5,27,14.3,13.15,4.82,28.72,4.88,36.6.7,1.3.4.1-7.4-1.6-10.7-.9-1.9-4.1-6-7.1-9-1.99-1.99-3.62-4.31-5.4-6.5-.15-.18-.45-.55-.9-1-1.7-1.69-3.44-2.4-3.9-2.6-5.88-2.58-18.87-16.3-22.3-18-.3-.15-.73-.67-1.31-1.3-1.65-1.77-2.59-3.31-2.81-3.66-1.94-3-6.16-2.35-10.98-5.94-4.38-3.26-6.02-7.67-8.49-6.99-.82.22-1.29.9-2.27.82-1.45-.12-2.52-1.77-3.22-3.24-.07-.68-.29-1.67-1.02-2.41-1.4-1.41-3.42-.7-5.74-1.38-1.33-.39-3.11-1.35-4.88-3.92-.95-1.19-2.3-2.53-4.14-3.62-6.45-3.83-13.64-1.47-15.08-.96Zm46.43,35.29c11.1,6.2,23,15.6,29,22.9,8.2,10.2,7.2,14.1-3.7,13.9-33.41.06-70.01-59.78-25.3-36.8Z"/>
  <path d="m.37,177.53c0,1.4,2.4,3,10.3,6.4,20.7,9.1,45,18.2,75.7,28.4,30.11,11.51,56.44,14.36,62,39.2,0,4-3.7,8.1-13.7,15.3-38.64,25.11-71.81,30.12-114.8,2.2C-1.43,256.13.37,256.93.37,260.83c.1,3.1.8,3.7,11.3,10.5,37.6,24,58.7,28,90.9,17.3,26.9-9,51.7-24.1,54.8-33.4,1.68-22.92-25.91-30.63-62.5-43.2-42.5-13.9-69.7-24.4-88.5-33.9-5.9-3-6-3-6-.6Z"/>
  <path d="m.37,188.13c-.17,3.47,2.46,1.72,2.7,3.2-.3.5.6.9,2,1,2.52-.28,3.18,1.88,4.7,2.3,11.61,3.75,49.47,18.08,62.6,22.4,6.1,1.5,15.7,5.3,15.3,6-.3.5-.1.6.4.3,1.3-.8,11.7,2.6,10.8,3.5-.4.4.1.5,1.2.2,2.4-.5,15.9,6.8,15.5,8.5-.1.7.2,1,.8.6,1.6-1,6.9,5.5,7.6,9.4.8,3.9-1.9,10.6-3.8,9.5-.6-.4-.8-.3-.4.4,1.3,2.1-10.1,9.3-21.4,13.3-7.86,3.3-33.54,3.41-41.5-.5-11.4-4.1-17.7-7.1-16.8-8.1.5-.4.2-.5-.4-.1-.29,1.57-39.02-17.73-38.9-17.4-.55,8.51-4.35,2.42,33.1,22.9,30.1,16.25,50.09,16.24,77.9,4.1,40.66-20.24,20.49-38.51-26.4-52.4-36.99-12.38-60.12-21.85-84.2-31.6-.4,0-.8,1.1-.8,2.5Z"/>
  <path d="m.37,199.13v3.2s34.3,11.8,34.3,11.8c53.6,18.5,61,21.6,63.6,26.9,1.2,2.5,1.1,3.3-.3,6.3-17.76,21.05-64.53-3.92-89.8-14.3-5.92-2.25-8.09-6.25-7.8,0-2.14,4.43,14.03,8.66,16,10.6,4.89,1.77,35.27,13.2,35.3,14.5-.5.4-.2.5.4.1.7-.4,4.9.4,9.3,1.9,9.6,3,21.1,3.3,30.5.9,5.88-1.82,7.28-.61,10.9-3.7,3.14-2.48,3.1-1.07,5.6-5.3,3.1-5,2.4-11.4-1.8-15.4-1.7-1.5-2.7-3.1-2.4-3.5.4-.3-.1-.3-1.1.1-2.4.79-2.44-2.72-6.5-3-2.01.23-15.1-6.37-16.6-6.5.2.4-.5.5-1.6.2-2.69-.5-.16-2.81-1.9-1.9,1.24,1.51-52.66-15.56-71.2-25.3.7-.4-.2-.8-1.9-.8-2.7,0-3,.3-3,3.2Z"/>
  <path d="m910.07,232.63c-74.45,9.67-58.83,97.68-89.8,112-4.6,0-6.4-1.3-19.9-14.4-18.29-17.15-33.54-32.64-36.39-31.28.29,3.97,16.73,18.23,21.02,21.53,6.25,6.55,11.37,14.86,16.76,20.12,5.5,3.97,5.78,7.07,10.46,12.81,13.01,13.04,18.49,10.09,27.05-17.48,1.54-6.57,4.87-15.97,7.45-23.02,7.94-19.61,8.63-31.38,19.35-48.29,1.93-3.58,13.62-15.38,15.5-13.49,1.7.4,1.9.4.9-.3-2.91-1.38,5.64-4.45,6.1-3.6.6.4.8.3.5-.3-.8-1.3,2-2.4,13.3-5.7,23.77-10.77,67.65,6.2,85,18.3,2.5,1.36,5.39,2.11,10.5,5.3,4.92,3.59,10.56,4.44,12,7.9-.4.5,0,.6.8.4.7-.3,2.2.3,3.2,1.5,2.67,1.79,20.84,12.71,21.7,15.9,9.72,3.47,41.4,35.51,41.2,38.2-.4.8-.3.9.4.5,1.75-1.09.69,1.78,2.1.9,4.09,3.08,19.14,12.05,32.1,14.7,2.73,1.43,86.97,2.19,89.9,3.1,10.91,1.13,24.9,12.64,35.2,16.7,9.53,3.18,1.36,4.18,5.4,3.6,1.9-.5,7.2.7,25.3,6.1,3.5,1,5.9,2.3,5.5,2.7-.4.5-.2.6.4.2,1.7-.9,8.4.4,7.7,1.5,16.79,2.66,29.49,7.61,50.1,7.4,53.04,2,130.82,10.61,172,6,7.06-.78,21.28-4.73,27.7-4.9.4.3.8,0,.8-.6,0-.6.6-1,1.3-.9,1.3.2,1.5.2,11.5-3.6,3.5-1.3,7.1-2.1,8-1.8.9.3,1.4.2.9-.2-.7-.8,15-9,16.6-8.7.4.1.7-.3.7-.9s.7-.8,1.7-.5c1,.4,1.4.4,1.1,0,2.31-3.91,12.54-8.17,17.5-12.8,7.4-5.5,9.5-6.7,8.1-4.4-.4.7-.3.8.5.4.6-.4.9-1.1.6-1.6-.7-1.1,2.2-3.3,3.4-2.6.5.4,1.3.1,1.7-.5.5-.8.3-.9-.6-.4-2.22,1.22.38-2.08,1.7-1.1.8.3,1.1.2.8-.3-.8-1.4,8.3-7.4,9.8-6.5.6.4.9.3.4-.1-.8-.9,7.2-6.7,8.4-6,.4.3.9-.2,1.2-1,.41-1.56,6.89-4.47,7.7-5.5,1.5-2,10.2-7,11.2-6.4.6.4.8.3.4-.4-.8-1.4,5-5.5,6.6-4.6.7.4,1,.4.6-.1-2.13-2.93,8.53-4.39,6.2-5.5-1.93-1.12,1.12-2.24,2.2-1.4,1.72,1.02-.83-1.74.5-1.6.86.19,7.5-6.19,8.6-5.3.6.3.7.1.3-.5-.22-2.72,7.02-5.72,8.6-8,1.6-1.4,3.1-2.1,3.9-1.7.7.5,1,.4.5-.3-.8-1.4,10.3-10.5,12-9.8.8.3,1.3,0,1.1-.6-.1-.6,2.9-3.3,6.6-6,5.9-4.2,7.1-4.7,8.5-3.6q1.5,1.1.5-.3c-1.1-1.4-.6-2,3.5-4.1,22.3-12.1,27.6-14.1,37.3-14.2,19.75-.55,14.47,15.86,13,48.4-.74,9.45,3.77,35.1,8.8,48.5-.73.01,9.81,21.05,9.6,23.2-.21,1.9,1.99,5.12,1,1.3-.7-2.5-.7-2.4,2.6.6,3,2.8,10.6,7.8,11.9,7.9,26.52,10.49,60.68,10.76,81.2-13.4,10.95-10.1,6.84-22.86,10.8-35,2.3-4.9,6.9-10.7,8.2-10.3.5.1.7-.2.3-.8-.8-1.3,3.6-7.1,4.8-6.3.6.3.7.1.3-.5-.32-1.9,11.49-16.05,14.4-19.7-.04-1.86.31-12.38-.8-12-3.3,3.8-33.4,41.1-38.7,48-13.19,15.61-11.57,31.27-29.9,40.8-58.18,21.96-84.62-40.37-74.6-88.7,3.7-19.7,1.4-37.5-5.6-42.1-26.96-5.74-68.11,27.45-99.6,52.3-18.8,15.4-29.5,23-53.8,38.2-31.03,19.28-56.99,39.89-89.2,47-31.54,9.08-73.22,7.35-108.3,3.7-54.81-5.45-108.99-5.12-156.5-23.8-17.5-5.8-17.1-5.6-26-11.4-24.24-22.1-110.39-5.84-135.6-19.7-14.67-4.21-28.54-19.03-41.75-30.32-39.37-30.12-100.47-76.12-149.95-66.48Z"/>
  <path d="m910.37,247.33c-2.17.3-7.59,1.6-10.3,1.6-1.5,0-2.5.2-2.2.5-1.08,1.59-12.19,5.82-13.8,7.4-3.62,3.53-5.2-1.4-5.7.7,0,.6.5,1.1,1.2,1.1,1.46.22-2.8,4.42-3.4,3.4-.4-.3-.7,0-.6.8.2.7-.3,1.2-1,1-.8-.1-1.1.2-.8.7s-1.1,3.5-3.2,6.7c-8.4,13.82-13.27,28.81-16.5,40-2.51,9.82-4.94,14.18-5.97,23.67-8.01,31.42-16.21,49.26-4.03,91.63,7.24,20.78,17.45,38.83,28.44,57.56,10.46,23.81,18.59,46,21.32,72.5,4,52.99-24.24,97.55-63.43,132.27-3.89,4.6-19.47,15.02-26.01,19.53-4.81,2.87-6.27,5.85-9.22,5.65-.6-.4-.8-.3-.5.3,1.99.54-18.63,9.72-17.7,8,.3-.7,0-.5-.8.3-1.7,2-8.5,6-10.3,6-.7,0-1.5.6-1.7,1.2-.3.7-2.2,1.3-4.6,1.3-5.91-.05-.33,1.46-3.8,1.5-3.13.35-24.34,7.31-26.9,8.1-4.3,1.81-9.81,3.9-15.93,5.65-3.89,1.11-7.11,1.82-7.89,1.99-3.2.7-5.68,1.1-7.11,1.34-2.69.44-5.06.75-7.02.97-2.54.53-6.86,1.37-12.25,2.05-12.42,1.58-61.24,7.77-79.2-15.7-1.89-2.47-9.19-9.17-11.4-19.8-2.78-13.36-10.68-21.24-23.7-22.4-25.06-.36-46.21-2.76-62.28-5.28-57.73-9.06-102.42-27.9-106.52-30.82h0c-2.78-1.67-3.87-1.56-5.81-2.21-.27-.09-.13-.05-3.85-1.97-2.7-1.39-4.04-2.09-5.04-2.57-.51-.25-1.54-.75-6.27-2.83-1.42-.63-3.38-1.49-5.73-2.51-.76-.43-1.89-1.04-3.28-1.72-3.54-1.74-10.03-4.58-10.59-3.65-.06.1-.07.29.16.67,54.28,31.73,96.09,44.6,174.2,54.7,29.4,4,34.7,5.6,41.4,12.3,3.5,3.6,5.7,6.9,7,10.7,28.37,67.43,136.21,34.05,193.1,10,78.83-31.48,156.49-122.61,117.9-216-5.4-16-9.9-26.1-23.1-51.7-36.14-63.51-18.25-118.19,6.3-180.8,9.58-24.2,43-32.88,67.4-27.6,11,2.8,32.9,12.8,50.6,23.2,34.25,21.17,55.2,36.86,58.8,66.4,4.79,22.44-54.19,58.52-62.5,75.3-9,13.5-11.1,27-5.9,37.3,6.1,12,24,32,32.2,36.2,15.83,8.98,54.81,7.55,75.8,2.5,19.38-4.88,62.29-6.63,74.4-12,3.2-1.7,18.3-16.7,23-22.8,10.41-11.91,13.96-32.7,23.3-41.2,24.18-22.29,77.07-.79,120.5-8.4,112.57-4.66,203.76,16.8,277.3-50.4,31.66-26.64,46.07-36.17,76.8-59.2,21.49-15.31,40.43-31.23,58.8-25.2,4.1,2.1,6.5,8,7.4,17.9,1.5,18.3,11.6,74.1,15.7,86.4,11.28,21.85,41.8,27.06,67.3,31.1,18.57,3.3,54.72-4.82,87.5-13.4-.26-4.03.34-19.47-.6-20.8-.3-.3-1.6.5-3,1.9-1.4,1.4-2.9,2.1-3.7,1.7-.6-.4-.9-.3-.4.1,1,1.2-4.3,4.4-6.1,3.7-.9-.3-1.3-.1-.9.5.9,1.4-15.5,8.7-24.3,10.8-26.36,11.94-60.68,8.59-82,0-1.3.8-13.2-4.7-17.7-8.1-18.56-17.19-23.8-79.79-24.4-100.1-.2-7.8-.6-14-1.1-13.7-.4.3-.8-.1-.8-.9s-.9-2.5-2.1-3.8c-1.1-1.3-1.7-1.8-1.3-1,.5,1.1.1,1-1.7-.2-5.74-4.73-23.4,1.36-31.3,3.4-1,0-1.6.3-1.3.6-1.26,2.18-11.97,6.88-14,8.9-2.9,2.52-4.04,1.6-5.6,3.6-.3,1-.7,1-1.8.1-1.5-1.92-5.38,1.46-2.7.3,7.32-1.07-5.24,8.06-7.2,7.6-1.2-.2-1.2-.1-.1.6,1.7,1.2-.1,2.4-2.6,1.6-1.3-.4-1.4-.3-.5.4,1,.7.7,1.3-1.5,2.7-3.57,2.3-6.88,6.3-11.1,7.6-1.7.6-3,1.4-2.7,1.9-1.87,3.13-8.1,6.5-12,9.4-2.7,1.9-5.4,3.2-6,2.9-.5-.4-.7-.3-.3.2,1,1.1-9.2,8.6-10.5,7.8-.6-.4-.7-.1-.2.7,1.47,2.44-2.73-.72-2,1,.6,1.34-4.21,3.27-4.5,4-.3.3-6.1,4.9-13,10-7.88,4.92-16.53,15.26-18.9,12.7q-1.4-1-.3.5c1.4,1.7.1,3.5-1.8,2.3-.5-.3-.8,0-.5.7.3.8-1.6,2.7-4.6,4.8-14.3,9.8-19.5,12.9-20.7,12.5-.7-.3-1,0-.7.5,1.1,1.8-27.5,14.6-30.2,13.6-.8-.3-1.1-.1-.8.4.6.9-1.2,1.4-4.5,1.2-3.28,2.11-21.39,6.19-39.5,8.4-43.67,4.51-95.28.02-139.5-.4-52.9.5-58.7.3-76.5-3.2-26.99-4.43-65.72-14.61-91.4-6.7-3.5,1.5-6.8,2.4-7.3,2.1-.4-.3-.7,0-.6.8.2.8-.6,1.2-2.2,1-4.52-.04,2.25.97-1.9,3-2.1,1.05-9.32,8.64-11.2,9.3-.41-.28-3.16,2.11-1,1,2.12-1.16.38,2.32-.7,1.8-3.3,6.45-6.51,15.22-9.7,26.2-3.52,11.72-9.77,32.14-17.5,34.4,0,1.5-5.9,4.3-7.6,3.7-.8-.3-1.3-.2-1,.3s-.7,1.4-2.2,2c-4.9,2-19.4,5.2-20.9,4.7-.9-.4-1.1-.1-.7.5.5.8-.4,1-3.2.6-2.1-.4-3.2-.4-2.4,0,2,.8-12.8,3.8-26.3,5.4-18.93,1.71-52.42,1.29-59.4-7.6-1.7.5-3.6-.8-9.3-6.1-3.9-3.7-6.9-6.9-6.6-7.1.67-.8-7.23-7.35-5.8-8.5.4-.7.3-.8-.5-.4-.7.5-1.8-.9-3.1-3.9-5.12-9.06.93-27.69,8.9-33-1.3,1.8-1.3,1.9.3.6,1-.7,1.5-1.7,1.2-2.2-.8-1.3,5.6-7,6.9-6.2.5.3.7.1.4-.4-.9-1.4,9-10,17.8-15.5,3.27-3.09,20.68-15.25,22.7-15.2.6.4.8.3.5-.3-.7-1.2,7.3-8,8.8-7.5.6.2.7,0,.3-.3-.4-.4.8-2.6,2.8-4.8,6-7.1,7.7-16.6,4.8-26.7-1.42-3.46-.97-7.91-2.6-8.4-.4.3-.8.1-.8-.4,0-2.5-13-20.2-20.5-27.9-8.4-8.5-9.7-10.2-7.2-8.7.8.5.8.2-.2-.9-1.5-1.8-2.6-2.3-1.6-.7.3.5.4,1,.1,1-30.97-30.42-63.41-44.97-82.01-47.8-11.84-1.8-33.56-1.19-38.59-.5Z"/>
  <path d="m913.57,261.73c-50.09,5.76-65.25,118.42-59.1,155.1,2,10,7.9,26.3,13.5,37.3,28.4,56.94,41.12,82,36.5,132.5-12.26,64.91-71.77,121.8-134.6,147.5-15.23,5.61-60.52,26.89-72,27.4-43.89,5.83-111.25,9.05-130.7-33-2.5-4.6-6.6-10.3-9-12.5-2.13-11.37-103.04-26.33-115.3-31.9-15-4.2-20.8-4.4-9.5-.2,8.2,2.9,25.7,7.4,67.5,17.2,30.3,7.1,35.9,8.9,44.4,14.6,6.7,4.5,9.7,8,15.9,18.5,4.6,8,13.4,16.7,21.4,21.2,26.54,15.38,66.89,13.83,102.8,12.3,21.25,1.86,57.57-19.72,79.8-29.1,75.9-28.35,163.86-111.19,142.3-200.3-4.26-36.07-53.48-101.62-49.5-140.7,2.35-46.03,11.95-106.33,47.2-125.8,29.73-12.53,74.47,16.77,92.8,32.6,25.26,23.97,21.57,47.4-4.5,72.1-30.86,34.47-44.59,61.44-22.8,97.1,11.9,21,29.3,44.5,37.4,50.5,20.46,13.71,40.8,3.42,67.8-3.2,27.67-16.46,105.92,1.44,132.5-5.7,41.96-25.67,46-66.55,115.5-75.2,45.83-7.95,134.57,12.49,181.5-12.4,108.11-32.74,105.79-64.33,178.7-116.6,24.5-16.4,38.6-19.4,46.1-9.9,9.84,7.58,16.58,88.89,26.4,95.5,42.42,33.03,100.46,39.35,163.8,31.7.41-15.71.38-9.92-19-8.7-56.98,7.98-97.84,2.27-135.5-23.3-7.4-6.6-10-12.1-12.5-26.7-4.3-25.6-11.1-59.7-13.1-66-2.7-8.5-4.3-11.4-7.6-14-15.47-6.21-27.86,3.16-52.8,20-43,27.57-72.75,69.39-116,89-38.32,17.42-118.64,34.31-157.5,28.9-25.85-1.59-71.28-2.74-95.5,1.5-72.4,7.44-62.56,32.11-107.5,70.3-21.66,15.32-49.88,3.3-79,4.9-32.29-1.96-74.1,19.81-105.4,9.9-14.78-.1-47.17-47.87-51.1-60.9-4-13.5.5-30.9,12.8-49.1,13.2-16,50.53-49.75,47.4-62.8,6.05-33.58-75.04-85.06-114.5-79.6Z"/>
  <path d="m912.37,283.13c-35.67,17.93-43.25,70.64-46.6,113-.94,32.47,3.87,36.08,21.8,72,74.43,121.65,8.09,204.54-95.7,263.1-31.5,13.9-44.1,20.6-56,29.5-7,5.3-16.3,9.7-25.3,12-63.35,10.47-150.12-.04-164.7-37.5-18.11-25.94-30.32-22.15-70.2-35.1-50.41-12.3-73.22-24.81-110.7-41.4-16.93-7.19-31.21-14.96-45.6-24.1-25.6-17.76-52.98-41.51-78.7-81.7-14.69-21.55-28.19-50.54-43.1-74.8-6.3-10.5-16.6-28.5-23-40-16.84-29.77-24.54-47.87-48-37-21.7,11.45-39.87,44.66-27.1,69.5,13.06,22.12,32.88,53.78,35.9,83,2.92,35.86,20.26,74.51,14.2,107.6-8.66,30.42-77.68,46.08-105.1,31.6-14.08-5.37-32.67-21.19-44.1-34.1v47.4c49.56,39.14,85.75,26.15,151.3,1.3,20-8.2,26.7-14.3,26.7-24-7.12-27.81-38.25-136.53-33-136.3-1.18-19.37-21.93-93.39,5.1-93.2,26.13,8.17,51.95,50.23,67.2,78,25.28,46.88,57.94,87.21,102.2,113.4,25.2,15.1,92.2,45.9,123.5,56.9,26.95,9.75,60.16,17.61,67.9,43.9,0,0,7.1,14.5,7.1,14.5,0,0,7.3,5.1,7.3,5.1,28.48,25.88,114.85,24.54,162.6,31.5,11,2,23.6,2,30.4,0,8.9-2.6,16.7-8.7,33.4-26.3,25.75-30,49.16-31.32,77.7-50.1,27.3-16.9,63.2-48.8,97.2-86.2,29-32,31.8-33.4,55.4-28.1,7.4,1.6,18.8,3.8,25.3,4.7,26.44,2.57,25.04,1.2,53.5-23.3,15.8-14.3,26.6-21.2,40.2-25.9,29.81-8.34,109.12,9.13,141.5,8,64.42,4.52,49.38-85.17,186-63,69.87,7.74,105.3-4.89,157-56.9,12.1-12.2,25.4-24.6,29.5-27.7,14.05-6.75,36.32-44.46,49.6-57.2,29.04-27.5,44.14-10.98,51.9,29.2,2.1,11.1,3.2,12.6,15.3,21.5,32.33,25.14,87.59,41.17,124.7,61.5,21.6,10.9,22.5,11,40.7,5.2,10.11-3.37,16.42-5.24,22.8-8.2v-31c-48.58,8.55-96.4-4.22-142-22.7-10.1-4.4-24-13.2-30.2-19.2-7.45-4.55-12.32-40.31-14.7-50.7-11.22-72.71-47.58-37.75-99.9,14.6-32.34,37.17-59.72,46.67-96.7,68.2-21.6,13.8-37.2,20.5-58,25-23.93,6.7-98.59-1.04-122.7.2-50.2,5.15-60.89,12.54-102.1,50.7-18.5,17.2-22.7,20.4-28.9,22.1-48.03,4.76-131.06-16.1-169.9,14.61-13.5,7.59-19.8,9.69-29.4,9.79-33.26,4.68-66.35-76.08-75.7-103.7,0,0-2.2-7.8-2.2-7.8,5.23-29.76,13.55-55.04,31.1-74.7,7.91-10.29,14.32-18.49,13.8-31.6,1.16-32.84-54.58-62.27-80.5-55.1Zm17,41.7c23.94,17.91,3.92,47.82.9,74.8-3.88,19.3-8.56,43.76-19.2,49.8-3.7.4-7.8-2.7-14.9-11.5-10.7-13.1-12.3-18.8-10.8-37.2,2.9-34.3,9.2-52.4,23.7-68.1,9.3-10,14.2-11.9,20.3-7.8Z"/>
  <path d="m765.17,318.43c23.52,27.26,33.48,50.62,31.7,86.2-1.56,36.66.59,78.09-3.6,112.3-2.45,21.6,3.52-3.84,3.6-19.8,2.08-24.57,1.51-57.44,2.6-80.5,4.73-28.62-2.9-61.64-20.3-84.8-6.26-9.41-33.29-35.28-14-13.4Z"/>
  <path d="m771.37,314.33c24.41,31.24,42.04,60.05,34.6,98.7-2.46,17.61-2.29,49.56-3.8,70.6-1.1,21.3-.7,29.4,1.1,27.4,1.43-.31,3.38-34.19,4.7-46.3.79-8.55,1.3-41.99,4-51.1,2.6-13,3.2-29.2,1.5-36,0,0-1.47-6.92-12.5-28.8-3.15-6.24-5.69-9.99-8.8-13.8.85,1.59-19.64-26.67-20.8-20.7Z"/>
  <path d="m138.87,319.33c-7.9,1.2-16.3,4-31.4,10.4-39.44,16.76-70.9,19.83-105.4,7.4-3-3.19-.95,15.14-1.2,18,38.92,6.3,64.21,1.87,109.7-18,19.5-8.5,24.4-9.9,35.3-9.9,9.1-.1,19.2,2.4,18,4.5-.4.5,0,.6.7.4,2.1-.8,8.9,5.9,8.2,8.1-.4,1.4-.3,1.5.3.6,1.2-1.7,2.1-.7,6.1,7.3,1.2,2.49,9.19,21.07,10.1,34.3,0,2.4.4,4.9.9,5.5,1.36,1.5,2.23,8.99,2.9,10.7,1.91,9.16,4.45,24.12,6.7,32,.2,2,3.5,12.9,4.8,15.7.6,1.1.7,2.7.3,3.5-.5.7-.4,1,0,.6,1-.9,7.7,14,6.9,15.3-.3.5,0,.8.8.7,1.77-.76.75,3.98,1.8,3.7,1-.6,4.1,6.5,3.4,7.7-.4.6-.3.8.3.5,1-.6,7.3,12.2,7.3,14.9,0,.8.5,1.4,1,1.4,1.44.06.67,3.93,1.9,4.2,8.54,10.91,11.24,17.75,12.03,22.09.28,1.52,1.31,8.24,5.84,11.32.51.35.83.48,1.5,1.01,3.09,2.41,4.1,5.49,5.24,8.25.98,2.38,2.49,5.61,4.89,9.44.3.03.6.07.9.1.7-.7,7,8.5,7,10.2,3.11,2.26,15.57,18.23,19,22,2.3,2.5,4.1,5.4,4,6.3.47.58,1.17,1.37,2.13,2.17,2.1,1.76,4.12,2.49,4.47,2.63,2.21.88,7.98,5.98,21.4,20.8,3.75,2.84,7.51,5.67,11.26,8.51,4.23,1.87,7.59,3.57,9.94,4.81,3.53,1.86,6.34,3.52,7.25,2.64.45-.43.29-1.34.07-2.07-3.37-2.11-6.71-4.31-10.03-6.59-43.25-29.82-105.01-90.81-136.3-221.7-.8-2.5-1.5-5.9-1.5-7.7-.14-4.85-3.23-11.11-3-16.5.14-6.35-2.08-4.43-2-10.8-5.73-32.61-19.2-50.75-53.5-46.4Z"/>
  <path d="m137.37,339.73c-9.7,1.2-24.5,7.3-44.7,18.6-3.5,1.9-6.8,3.1-7.4,2.7-.7-.4-.9-.3-.6.3.3.5-1.3,1.9-3.6,3.1-13.3,6.5-23.5,10.4-24.9,9.6-.6-.4-.8-.3-.5.3,1.37.85-10.35,3.7-16.8,5.8-14,5.8-21,8.3-21.8,7.8-.6-.3-.7-.1-.4.4.8,1.3-3.9,2.3-10.9,2.3H.37c.69,10.52-1.62,67.92,1.9,63.5,3.5,1.1,5.1-.6,7.2-7.9,4.1-14,5-16.4,8.5-22.2,4.39-17.66,66.5-49.39,88.7-62.6,46.04-28.27,62.7-7.7,75.1,40.7,8.52,29.39,18.17,57.64,29.9,75.4,2.57,2.27,1.21,3.83,4,6.8,3.02,4.11,9.5,24.72,14.2,19.3.94-1.48-2.34-.06-1.7-1.8.1-.6-.2-1.2-.6-1.2-.9,0-5.8-11.1-5.4-12.3.13-1.37-2.56,1.91-1.9-3-4.71-2.41-21.38-40.76-21.4-46.5.2-.7.1-1.1-.3-.8-1,.6-9.5-27.5-9.7-31.9-1.15-1.09-6.67-22.74-6-24.6.4-.5.2-.9-.3-.9-1.2,0-4.3-11-3.5-12.3.4-.6.1-.7-.7-.2-1,.6-1.2.4-.7-.8.3-.9.3-1.7-.2-1.9-1.3-.6-5.2-8.9-4.5-9.9.3-.5.1-.8-.4-.7-1,.3-11.4-10.7-10.7-11.3-6.88-2.42-15.59-5.36-24.5-3.8Z"/>
  <path d="m134.07,364.63c-7.7,2-15.8,7-35.6,22.4-40.49,29.89-45.1,45.15-38.3,78.1,4,8.7,9.4,14.7,19.8,22,30.9,21.7,44.3,44.9,51.3,89.1,3.8,24.1,7.1,49.3,7.1,54.6,3.54,38.44-58.66,56.59-90.5,35.7-27.9-16.7-40.5-38.3-46.4-79.4-.6-4.5-.9-.3-1,16.6-4.9,40.45,29.82,69.14,60.9,78.6,30.64,7.21,82.26-6.44,81.7-45.2.4-7.9-.1-11.9-4-32-8.44-48.15-10.99-85.11-46.3-118.6-33.97-32.22-23.16-63.18,20.1-97.7,12.9-9.7,18.2-12.2,26.1-12.2,13.9,0,21.3,9.4,38.4,49.5,12.16,29.06,24.66,50.58,34,64.8.1,1.5,3.7,6.3,4.3,5.7.7-.6-1.2-4.6-6.8-14.5-13.1-23.2-20.8-40-30.7-67.5-15.09-36.32-18.09-52.2-44.1-50Z"/>
  <path d="m1140.77,378.03c-13.83,10.77,12.19,15.57,22,9.5,5.6-2.9,7.2-5.7,5-8.8-1.4-1.9-2.4-2.1-12.7-2.1-7.1.1-12.3.6-14.3,1.4Z"/>
  <path d="m1677.37,380.93c-63.99,65.16-134.39,182.03-269.01,146.99-83.8-14.23-86.57,45.86-129.69,68.62-104.25-10.08-173.69-54.33-239,33.3-31.45,15.93-82.28-14.34-108.8,17.99-24.28,22.96-96.91,82.06-131.4,93.79-26.4,9.57-37.36,28.98-53.8,57.5-15.93,27.94,34.95,57.1,28,86,7.9,46.65-77.83,80.33-79.4,24.2-15.52-91.84,27.99-107.91-90.9-111.39-141.22-9.76-91.97,14.22-110.69,95.69-15.16,79.92-150.97,42.19-93.4-36.4,21.4-34.58,57.53-55.68,75.6-88.6,65.85-58.61-172.61-99.77-198.39-151.51-40.98-28.23-66.23-121.57-115.2-139.9-40.41,28.79,7.1,151.64,22.99,186.4,29.59,73.02,74.82,32.36,111.71,60.2,30.16,33.71-.36,42.56-33.81,23.8-24.25-6.77-34.46-32.29-57.3-31.4-62.17-3.02-148.17,61.89-204.6,10.5.71,10.73-3.08,15.13,8,19.9,59.66,41.19,128.17-29.18,190.1-12.3,39.43,13.16,72.94,42.38,115.5,52.2,28.89,10.56,78.5,6.06,81.2,28.9-6.04,32.2-28.67,65.41-17.4,96.5,16.71,43.21,94.43,45.73,122,9,1.68-10.31,12.69-32.25,14.3-45.8,4.69-20.66,1.37-58.86,22.5-62.9,23.02-9.42,111.42-15.21,135.7,7.39,9.42,21.3-.78,102.6,15.3,118.81,22.28,20.3,58.29,10.03,77.9-8.2.56.71-3.94,5.14-.7,2.4,21.17-24.03,21.52-62.23,5.39-91.5-9.59-8.21-18.69-26.01-13.29-42.9,6.59-24.34,34.29-53.96,48.2-54.4,54.8-22.77,93.44-66.35,146.2-95.81,27.46-10.29,58.02,14.38,85.7,1,44.8-31.48,50.74-76.33,123-60.89,104.63,26.01,100.7,29.29,65.49,114.09-11.23,53.9,2.41,72.04,61.01,58.8,15.79-9.55,132.93,15.93,128-27.39-21.24-46.72-69.22-70.88-97.2-113.31-4.89-4.05,1.45-44.36,9.5-38.3.4,1.06,1.88-.83.6-2.59-1.6-3.67,5.17-8.05,6.7-9.6,11.54-13.6,13.82-16.6,33.6-23.9,25.73-5.64,107.39,5.72,130.3-3.2,63.3-11.14,107.27-51.1,140.9-101.4.52.64.26-5.25,2.8-4.1.68.58.89-4.54,3.2-2.9.28.13-.34-4.81,1.9-2-.49-.28.96-5.49,3.1-4,.51.28.06-4.11,3.4-3,1.2.3,1.3.2.4-.4-1.02-5.71,10.33-7.94,13.7-10.3,19-9.18,41.64,9.93,56.41,19.3.52-.27,8.88,2.56,8,5.51-.4,1.3-.2,1.4.5.4.13-2.42,8.61,2.73,7.5,4.1.2-.32,12.72,4.03,12,6,.37-.05,9.68,1.85,9.1,3.8-.32,1.28,3.64-1.26,2.1.9-2.26,1.1,10.73,1.57,8.3,4.3.07-1.02,24.14,9.79,22.4,12.2.21-.36,7.38,1.25,6.3,3.5-.55,1.49,3.5-1.22,2,1-.5.9-.4,1.1.4.6,1.85-.93,7.96,5.84,8.4,5.8,1.5-.5,6.3,3.3,5.9,4.8.89.27,5.91,1.21,5.8,4.6.51,1.53,3.98.53,3.3,3.6-.02.44,3.92.1,3,3.4-.4,1.3-.3,1.4.5.3,33.48,30.48-9.73,43.49-47.5,54.5-44.32,15.89-106.64,15.81-126.9,53.2-148.15,187.83,106.78,295.53,265.6,220.7-.3-4.12.21-12.2,0-16.3-28.54,12.18-41.88,17.06-84.4,27.4-120.61,29.97-279.34-71.97-193.89-200.6,29.81-45.46,42.82-50.13,100.79-64.4,82.5-22.5,109.62-17.72,174.4-.59,18.7-10.86-49.41-11.74-27.39-32.31-1.13-3.11,26.07-40.63,28.39-34.1,1.48-.62-.29-2.4,1-2.6,1.44-.14,1.08-11.59,1.1-14.2-8.52,4.94-36.65,25.33-39.6,22.4-39.41-14.01-50.76-39.64-106.4-60.99-33.3-15.91-60.1-32.11-68.4-41.31-6.65-10.36-13.65-30.84-28.6-28.6ZM157.33,504.86c.84-2.24,2.63-6.86,7.17-9.46,2.58-1.48,5.14-1.78,6.65-1.85,1.07-.16,2.64-.25,4.36.3,1.82.58,2.44,1.43,4.86,3.28,3.85,2.94,4.29,2.32,6.82,4.63.66.61,1.75,1.86,3.92,4.36,1.82,2.09,2.72,3.14,3.56,4.21,1.86,2.37,3.11,4.3,5.39,7.83.94,1.46,1.7,2.67,2.21,3.48,1.39,1.73,2,3.26,2.29,4.36.22.83.26,1.37.61,2.23.61,1.47,1.57,2.48,2.3,3.1,1.71,1.38,2.75,2.73,3.37,3.69,1.14,1.76,1.41,2.98,3.08,6.08.59,1.1,1.12,1.98,1.45,2.53,2.82,3.98,13.05,19.22,13.8,22.5,1.07,1.49,2.13,2.99,3.2,4.5,1.66,2.34,3.29,4.68,4.9,7,2.05,4.99,4.33,7.87,6.1,9.6.58.57,1.45,1.35,2.57,2.7,2.55,3.06,2.02,3.77,3.83,5.8,2.13,2.39,3.34,1.93,6.52,5.26.74.77,1.25,1.4,1.7,1.95,1.27,1.57,2.86,3.78,4.38,6.7.2.15.51.37.9.6,1.6.96,2.1.77,2.78,1.28,1.32,1.01.42,2.59,1.81,4.06.71.75.91.56,2.18,1.19,1.93.96,1.79,2.62,3.83,4.88.58.64,1.52,1.54,2.97,2.37l8.79,8.13c.3.63.82,1.56,1.74,2.39,1.14,1.03,2.28,1.36,3.14,1.68,3.96,1.45,5.5,3.88,10.16,6.84.17.11.65.41,1.29.85,1.04.71,1.87,1.33,2.41,1.75,10.63,6.25,19.34,11.31,25.7,15,3.72,2.16,6.25,3.62,9.73,5.49,8.11,4.37,14.97,7.55,19.67,9.61,10.42,3.68,37.82,17.73,37.4,16.9,1.65.7,4.15,1.77,7.19,3.05,8.87,3.75,14.58,6.08,17.17,7.16,16.55,6.88,24.78,10.38,32.56,15.95,3.61,2.58,8.87,6.83,14.37,13.43,2.09,3.49,2.16,6.02,1.8,7.7-.99,4.7-5.65,4.96-8.5,11-1.9,4.03-.55,5.46-2.39,9.05-2.23,4.36-6.46,6.65-9.68,7.91-1.43.75-2.97,1.56-4.63,2.44-1.8.96-2.3,1.23-2.9,1.7-1.96,1.53-2.29,3.05-3.26,4.43-1.56,2.21-4.69,3-10.94,4.58-2.01.51-4.79,1.13-8.17,1.61-3.66.73-8,1.25-12.87,1.17-13.4-.24-23.78-4.96-29.67-8.29-.68-.28-1.69-.72-2.9-1.3-2.47-1.18-4.17-2.18-4.9-2.6-3.28-1.87-4.82-2.15-8.82-3.97-2.29-1.04-5.52-2.64-9.31-5.03-2.02-1.13-5.15-3.01-8.65-5.76-12.07-9.51-12.85-17.08-24.52-30.14-5.56-6.23-10.77-11.91-19.41-16.16-7.82-3.85-14.28-4.41-22.59-5.34-9.99-1.11-24.48-2.94-42.93-6-11.72-2.6-15.12-6.04-15.96-8.79-.22-.71-.28-1.43-.9-2.41-2.06-3.22-6.01-2.57-10.03-4.84-1.57-.89-3.71-2.53-5.62-5.84-1.76-2.6-3.28-4.65-4.36-6.06,0,0-1.27-1.66-2.96-4.14-.55-.81-2.86-4.27-2.13-5.73.06-.12.37-.68.26-.77-.05-.04-.17.01-.36.17-.8.64-4.95-7-6.8-10.3-2.03-3.61-2.21-3.61-3.68-6.43-1.49-2.85-2.6-5.34-3.39-7.25-1.01-3.49-2.18-7.15-3.56-10.95-1.59-4.4-3.26-8.48-4.94-12.25-.49-2.36-1.11-4.88-1.92-7.54-1.26-4.15-2.73-7.83-4.21-11.01-3.99-13.54-6.29-25.13-7.69-33.7,0,0-5.58-34.42,2.66-56.54Zm1158.14,156.76c23.05,2.39,81.57,60.76,42.3,78.9-5.7,1.9-71.2,3.8-81.7,2.3-14.2-2.1-22-7.4-27.8-18.9-16.92-36.62,33.97-69.01,67.2-62.3Z"/>
  <path d="m169.87,506.13c-15.83,6.06-12.39,55.63-11.5,59.3.62,2.55.27,4.75.6,6.8.95,5.9,2.65,9.37,4.31,14.14,1.12,3.21,2.56,7.99,3.59,14.16.62,1.35,1.54,3.37,2.66,5.8,2.18,4.73,3.34,7.21,3.85,8.31,1.49,3.23,3.48,8,5.59,14.59.75,1.61,1.49,3.21,2.24,4.82,2.38,3.93,4.76,7.94,7.14,12.03,2.2,3.79,4.34,7.54,6.43,11.26.49,1.74,1.26,2.92,1.81,3.62.76.97,1.57,1.59,3.18,2.81,1.47,1.12,2.63,1.79,3.02,2.01,1.16.66,1.59.79,2.29,1.16,2.66,1.41,2.94,3.02,5.62,5.25.72.6,1.88,1.47,3.55,2.29,1.64,1.3,3.53,2.67,5.68,4.01,2.47,1.54,4.83,2.77,6.96,3.75,5.19,2.7,9.62,4.32,12.69,5.3,6.99,2.22,21.45,5.63,29.2,6.6,4,.5,5.4,1,4.5,1.7-1,.6-.7.7.9.3,1.48-.37,17.2-3.05,27.2,3.7,2.11,1.42,4.85,3.86,9.02,4.28,1.01.1,1.55.03,2.89.26,3.36.59,5.71,2.04,7.09,2.92,2.94,1.87,4.94,4.07,6.21,5.76,1.87,3.19,4.91,7.39,9.7,11.08,1.68,1.29,3.32,2.34,4.86,3.18,2.19,1.5,4.4,3.04,6.62,4.6,2.65,1.87,5.24,3.73,7.79,5.59,2.09,1.09,5.19,2.71,8.94,4.66,10.33,5.36,15.5,8.05,17.13,8.8,5.58,2.56,14.17,5.21,26.76,4.86,3.46,0,7.68-.32,12.35-1.39,2.49-.57,4.73-1.26,6.73-2,2.76-.91,5.52-1.82,8.28-2.73,10.5-8.31,11.19-15.1,11.13-17.81-.25-12.51-17.9-21.38-34.64-29.78-11.18-5.62-21.09-8.96-28.16-10.98-1.76-.26-3.88-.73-6.21-1.58-3.1-1.14-5.54-2.59-7.29-3.83-1.47-.81-2.99-1.61-4.55-2.4-5.15-2.62-10.17-4.81-14.97-6.66-8.77-3.38-18.91-9.35-26.88-14-14.29-8.33-23.11-15.07-39.91-27.92-.59-.45-4.64-3.37-11.59-10.41-4.48-4.53-5.54-9.83-9-11.7-.63-.34-.98-.58-1.69-1.05-2.05-1.37-3.91-4.25-3.91-4.25-1.88-2.8-3.09-2.55-6.39-5.92-1.45-1.49-3.43-3.8-5.31-7.18-2.83-3.36-4.98-6.18-6.44-8.15-1.85-2.5-3.81-5.3-7.34-9.9-.47-.62-.86-1.12-1.12-1.45-.56-1.12-1.47-2.8-2.75-4.76-1.61-2.46-2.17-2.75-3.55-5.03-.14-.23-.93-1.71-2.51-4.66-.89-1.66-1.54-2.88-2.88-4.06-.88-.78-.86-.59-1.41-1.1-1.37-1.24-1.35-2.87-2-4.8-.47-1.42-.69-1.18-5.16-7.76-.62-.91-1.12-1.66-1.44-2.14-1.28-2.14-2.61-4.3-3.97-6.48-1.55-2.48-3.1-4.91-4.65-7.29-2.09-2.56-3.58-4.73-4.58-6.28-.97-1.5-1.41-2.32-2.51-3.47-.99-1.04-1.41-1.18-3.47-3.18-.96-.93-1.02-1.05-1.72-1.66-1.11-.99-1.71-1.14-2.51-2.14-.46-.59-1.03-1.08-1.51-1.65-1.5-1.78-9.77-4.15-14.99-2.15Zm17.1,12.1c6.3,3.4,22.99,30.33,29.4,38.9,49.15,88.52,114.6,118.44,200.8,157.7,38.26,24.79-24.09,52.22-83-8.1-4.8-4.4-10.1-8.7-11.8-9.6-21.34-4.83-99.18-16.86-104.9-28-32.18-20.25-56.87-86.85-56.1-121.1.28-18.96,4.62-42.04,25.6-29.8Z"/>
  <path d="m173.47,531.03c-19.85,29.61,11.03,86.31,27.1,110.6,17.61,24.29,60.46,35.39,88.3,33.5,5.4-.6,8.5-2.4,8.5-4.8,0-2.6-4.5-8.2-17.1-21.4-26.3-27.4-36.9-40.8-63.9-80.9-20.46-28.59-27.34-45.63-42.9-37Zm12.3,7.6c18.14,11.41,58.46,80.43,72.2,95.1,10.6,14.1,13.6,19.2,13.2,23.1-1.44,11.84-34.43,3.76-43.3-1.7-27.85-11.6-40.58-44.93-51.9-71.6-6.51-21.92-7.32-49.01,9.8-44.9Z"/>
  <path d="m186.37,560.93c-12.55,14.35,16.15,55.68,24.4,65.1,7.79,7.88,26.34,17.63,26.3,3.9,2.12,1.74-38.25-77.61-50.7-69Z"/>
  <path d="m1037.47,412.13c-17.28,4.31-41.58,27.76-27.6,44.3,1.9,2.1,3.1,4.3,2.7,4.7-.4.5-.2.5.5.1.6-.89,7.54,2.56,6.6,3.6,24.52,6.26,47.15,9.55,69.6-3.7,1.65,1.13-.75-3.14.7-2.2.5.3,1-.2,1.1-1.1,1.41-10.84.49-8.6-4.7-20.7-2.3-5.4-5.4-11.5-6.9-13.4-4.3-5.55.75-1.18.4-3.1-1.68-1.56-3.33-.35-5.8-2.4-4.92-2.67,1.7-3.32-2.7-3.5-9.2-2.12-23.75-5.79-33.9-2.6Z"/>
  <path d="m486.87,419.53c-21.8,3.6-35.5,13.5-45.2,32.6-5.79,12.64-12.4,24.88-11.7,38.5-.54,35.12,55.03,70.97,86.7,78.5,31.87,8.08,52.48,3.97,50.1-26-1.91-47.84,3.91-64.69-9.5-88.4-11.34-27.05-43.16-38.73-70.4-35.2Zm28.5,18c7,1.2,17.2,5,16.5,6.2-.4.5,0,.6.8.3,1.59-.6,13.22,6.81,18.2,22.8.05.17.16.53.3,1,3.86,11.1,9.11,31.55,4.2,55.8-1.74,8.62-4.43,16.02-7.2,22.07-1.08,2.41-3.55,6.96-8.58,9.93-1.92,1.13-5.03,2.52-12.52,2.8-5.18.19-13.07-.12-22.61-2.96-3.93-1.17-8.87-3.07-14.11-6.21-3.66-2.2-6.67-4.52-9.08-6.63-2.5,0-22.1-15.8-21.3-17.2-.15-.13-.4-.34-.7-.6-1.54-1.34-5.93-5.38-11.5-14.9-2.03-3.47-3.06-5.26-3.88-7.71,0,0-1.35-4.04-1.52-8.79-.25-6.7,7.23-24.11,22.3-44.1,6.42-11.14,35.04-14.34,50.7-11.8Z"/>
  <path d="m499.45,466.29c-1.09-.85-3.25-2.3-6.2-2.59-6.44-.65-12.67,4.52-12.2,6.75.18.86,1.91,1.78,9.15,1.83,3.07,1.03,5.11,3.36,5.01,5.58-.13,2.77-3.44,4.6-5.01,5.01-2.89.75-4.3.49-8.06,1.09-3,.48-5.37,1.44-6.93,2.2-1.42,1.3-4.5,4.47-5.9,9.59-1.88,6.86.53,12.5,1.27,14.07.5,1.09,10.98,23.08,31.4,24.9,9.18.82,21.1-2.37,24.62-7.4.51-.72,1.77-2.82,4.14-5.45,2.47-2.74,3.35-2.97,4.79-5.01,1.88-2.67,2.49-5.28,2.91-7.18.42-1.91.33-2.28.34-9.56,0-9.5-.3-11.6-2.2-15.3-1.3-2.3-2-4.8-1.6-5.4.17-.25.2-.35.21-.58.01-.47-.34-1.32-3.8-2.73-2.88-1.17-4.79-1.53-4.79-1.53-2.45-.46-5.81-1.16-10.45-2.34-3.41-.91-7.07-2.07-10.9-3.54-2.03-.78-3.96-1.59-5.79-2.42Z"/>
  <path d="m843.59,447.64c-4.85-11.62-11.63-19.25-17.17-18.5-5.8.79-8.66,10.55-11.96,21.78-5.86,19.99-3.43,21.36-6,42.5-2.96,24.37-5.04,26.8-.6,28.1.2-.2,3.1-15.5,6.4-33.9,6.4-35,8.8-43.1,13-44.5,8.36-1.1,19.74,20.89,29.4,33.2,77.95,118.89-23.29,247.03-154.3,262.7-29.28,5.07-63.84,10.49-81.7-7.69-12.94-16.74-6.14-35.51,16.5-45.5,26.78-14.18,59.67-16.95,84.2-35,31.15-19.81,58.67-49.41,67-78.8-.21-.66-.49-1.04-.85-1.14-1.79-.48-5.46,6.01-11.03,19.48-.78,1.35-1.55,2.71-2.33,4.06-1.15,1.16-2.83,2.95-4.7,5.4-.26.34-.46.61-.6.8-3.01,4.08-4.34,4.77-5.9,7.3-.99,1.6-.5,1.34-1.4,2.76-1.89,2.96-4.09,4.2-5.62,6.28-.14.18-.59.82-1.33,1.55-.47.47-.86.78-.97.87-1.4,1.14-3.17,3.41-3.46,3.78-1.94,2.43-4.2,3.27-10.12,7.75-1.18.89-2.92,2.25-5,4-.27.23-.4.4-.4.4-1.83,1.87-2.06,2.63-3.11,3.37-.37.27-.95.6-1.79.83-10.42,12.73-60.25,29-75.6,31.5-.75.12-1.48.35-2.23.52-18.46,4.27-22.78,4.38-27.37,7.58-1.29.9-2.53,1.99-5.2,3.6-2.13,1.29-3.32,1.78-5,3.2,0,0-1.57,1.33-3,3.2-3.1,4.06-10.64,28.94-6.6,36.7,23.14,44.41,114.46,14.12,157.8,2.4,1.93,1.17-1.76-2.74,1.2-1.3,2.25.99-.18-1.12,2.8-1.9,1.8-.01,16.18-7.63,18-6.8.7.4.8.2.4-.4-.99-1.6,5.15-2.39,5.4-3.1.8-1,14.1-9.2,15.3-9.4,6.57-5.55,13.17-8.84,21.8-16.2,9.74-9.82,17.89-18.21,25.8-28.3,5.79-7.52,10.4-17.16,16.5-23,7.95-13.85,17.67-35.43,20.14-63.02,6.1-68.2-37.16-117.23-46.31-127.16Z"/>
  <path d="m1673.27,437.03c-4.19,1.46-7.63,3.57-7.63,3.57-3.12,1.22-13.85,12.26-15.97,13.33-.4.1-.7.6-.5,1.1-.95,3.26-4.33,5.7-6.3,10.3-1.5,2.9-3.2,5-3.8,4.6-.6-.3-.7-.1-.3.5.26,2.85-6.33,13.91-8.1,16.9-.4,2.2-5.1,8.2-5.8,7.5-.5-.4-.5-.1-.1.6.9,1.6-5.8,9.8-16.3,19.9-5.8,5.5-8,7.2-9.6,6.7-1.4-.4-1.6-.3-.7.4,1.1.7.7,1.4-1.6,3.1-3.3,2.3-4.7,2.7-3.6.9,1.06-1.79-2.03.54-1.2,1.1.5.8-5.4,4.7-6.6,4.3-.5-.1-.8.2-.8.7-1.28,2.32-20.09,10.15-23.4,11.2.5.9-21.7,8.1-23.3,7.5-.8-.3-1.2-.2-.8.3.5.8-3.5,2.2-7.5,2.6-3.92,1.61-32.91,8.43-48.5,11.6-10.15,1.77-65.78,3.66-76.8,4.9-20.84.73-30.5,8.6-42.2,19.2-.5.2-.9.7-.7,1.1.1.4-.9,2.4-2.3,4.5-1.4,2-2.5,4.3-2.5,5,0,.7-.3,1.1-.7.9-1.1-.7-1.7,4.4-1.5,12,.1,8.6.5,11.2,1.6,10.5,1.28-.77-.72,3.17.5,2.3,1.39-.78,4.26,5.75,5.4,5.5,1.16-.19-.55,3.13.6,2.6,3.5,1.56,8.82,9.3,12.9,12.8,2.8,2.8,4.8,5.4,4.6,5.8-.3.5-.2.7.3.6,1.3-.5,8.3,5.3,7.7,6.3-.3.5-.1.8.4.7,1.3-.4,18.2,12.4,17.7,13.3-.3.4.3.6,1.2.5,2.36-.09,1.45,1.92,2.7,3.1.5.5.6.3.2-.5-1.1-1.8.7-1.5,3,.6,4.42,3.49,4.48,2.96,11.5,8,13.08,9.32,35.89,25.48,47.9,33.8,0-.5.7-.3,1.5.4,1.3,1.1,1.3,1.4-.2,2.7q-1.6,1.3.5.3c2-1,3-.7,6.3,1.6,5.04,4,9.94,9.71,8.7,16.8-.4,5.4-4.1,12.2-5.9,11.1-.5-.4-.6.2-.2,1.1,1.16,2.84-2.22-.07-2.4,1.3-9.94,13.92-44.6,19.04-64.1,23.7-.7.2-1-.1-.7-.6.68-1.58-1.62-1.05-1.5.1-14.71,2.84-109.07-6.11-132.1,2.3-4.91,1.1-18.87,6.72-22.5,6-1.6-.5-1.6-.4-.4.5,1.6,1.1,1.7,1.1-2.6,1.5-2.04.5-4.15,3.06-6.8,3-1.3,0-2.2.4-1.9.8.4.8-1.6,1.2-5.2,1-1.2,0-1.5.1-.6.5,1.78,1.04-14.33,7.8-14.2,6.6-.6-.3-.7-.1-.3.5s-.5,1.7-2.2,2.6c-6,3.1-15.7,11.3-21.7,18.3-5.59,5.13-15.24,26.25-18.7,31.4-2.62,6.09-6.78,18.47-9.9,26.6-2.49,7.93-3.7,7.15-4.5,11.1-.1,3.5-7.4,19.3-8.5,18.6-.5-.3-.7.1-.4.8.6,1.6-3.2,8.1-4.3,7.4-.5-.3-.8.5-.8,1.7.83,3.25-4.31,1.08-2.6,2.9.6.6.7,1.5.1,2.2-9.09,11.45-11.42,13.34-13.6,14.3.8,1.3-2.7,4.6-3.8,3.6-.4-.5-.5-.3-.1.4.7,1.3-13,16.3-14.7,16-1.7,2.77-17.95,22.36-20.7,22.3-.3-.5-1.2.1-1.9,1.3-2.73,4.11,1.41-1.16,1.9.5,0,1.3-2.5,3.3-3.3,2.7-.4-.3-.5-.2-.2.1.8,1.1-3.6,6.5-4.7,5.8-.6-.4-.8-.3-.5.3.3.5-2.1,4.5-5.4,8.9-4.97,5.61-9.6,17.19-13.3,20.7-.4-.4-.4,0-.1.9.3.8-1.2,5.5-3.3,10.4-3.09,5.23-5.55,17.48-7.4,15.3-.7-1-.8-.8-.3.7.8,2.9-3.4,12.2-4.7,10.3-.7-1-.7-.7-.3.9,1.5,5.3-9.9,18.2-16,18.2-3.5,0-7.2-3.1-5.9-5.1.5-.8.3-1-.6-.4-1,.6-1.2.4-.7-.7.3-.9.1-2-.5-2.6-1.9-1.9-.7-23.2,1.4-23.2.5,0,.6-.4.3-1-.3-.5.4-5.6,1.6-11.2,4.61-20.11-3.24-71.47-5-86.8-.5-2.5-.7-4.9-.4-5.4.4-.5.1-.6-.5-.2-.8.5-1.2,0-1.2-1.3-.9-9.97-14.94-32.71-17.3-42.5.3-.6.2-.8-.2-.3-1.2,1-6.5-9.1-5.9-11.1.5-1.3.4-1.4-.4-.4-1.42,2.54-2.29-2.33-1.5-3,.3-.6.2-.8-.3-.5-1.2.7-11.7-18.1-10.8-19.4-1.73-1.65-3.64-4-8.2-12.4-8-14.9-8.5-16.1-7.8-18.2.4-1.4.3-1.5-.4-.5-1.18,2.53-2.07-1.91-2.1-2.4-3.81-4.66-8.58-18.5-4.2-25.9,2-4.3,17.6-21.2,19.3-20.7.5.1.7-.2.4-.6-.7-1.2,6.4-10.3,7.5-9.6.5.3.7-.1.4-.8-.3-.7.8-2.7,2.3-4.3,3.67-3.57,1.74-3.37,4.7-6.7,1-1.3,1.7-2.3,1.5-2.3,5.55-9.26,14.97-26.58,12.6-36.4-.84-4.76-.09-8.1-1.7-10.1-.4,0-1.2-1.4-1.9-3-.63-2.54-18-19.29-18.7-21.4.1-.6-.3-1-.9-.9-1.3.2-12.9-12.4-12.9-14.1-.1-.6-.7-1-1.4-.8-.8.2-2.3-.6-3.5-1.7-1.13-1.98-7.6-2.83-6.7-4,1.8-1.2-20-.3-25.4,1-7.38.93-19.16,8.8-26.1,11.7-21.09,11.63-41.3,30.16-64.2,40.7-8.31,8.69-23.4,12.8-32.9,18.2-2.35,1.34-11.13,6.62-12.5,5.7-.6-.4-.8-.3-.5.3.7,1.1-3.7,2.8-6.2,2.4-.7-.1-1,.2-.6.8.3.6-.2,1.1-1.3,1.1-1.1,0-3.1.9-4.5,2-4.79,2.75-12.6,11.23-15.7,15.6-5.89,9.52-13.11,23.24-14.2,34.9-1.9,13-.4,18.7,9.5,37.5,26.11,44.48,11.56,94.31-27.3,114.1.26.46-7.14,3.15-5.5.9,1.24-2.04-1.92.15-1,1,1.1,1.7-17.2,6.9-19.5,5.5-.5-.3-1-.1-1,.4,0,.6-.3,1-.7.9-.5-.1-4,.1-8,.6-7.3.7-23.2-.2-21.5-1.3.6-.3-.9-.6-3.2-.7-2.4,0-5.6-.7-7.2-1.6-10.3-5.1-12.9-6.7-12.7-7.7.2-.6-.4-.8-1.1-.5-2.1.8-7.8-7.3-7-10,.4-1.6.3-1.8-.5-.7-1.3,2-2.6-2.7-2.4-8.9,2.27-70.77.97-88.68-7.3-104.1-1.35,1.03-10.95-5.87-12.2-5.5-6.5-.8-11.9-1.6-13.2-2.1-8.02-2.19-50.73-1.75-54.1.7-1.13-.42-18.17,8.46-19.2,8.2-.5-.1-.6.2-.2.8.4.6-1.3,3-3.6,5.3-10.35,11.11-12.07,30.78-14.7,50.8-.18,2.96-2.19.01-1.5,2.8.7,2.8-7.8,27.5-9,25.9-.6-.9-.7-.8-.3.4,1.14,6.59-3.01,2.94-2.1,4.5,1,1.5-6.2,12.1-11.7,17.3-6,5.8-12.6,10.1-13.9,9.3-.5-.3-.7-.1-.4.4,1.3,2.1-17.8,9.2-28.8,10.7-15.62,3.8-47.96,3.98-60.1-3-3.4-.2-15.6-7.3-14.8-8.6.4-.6.3-.8-.4-.5-1.3.9-9.5-6.6-8.5-7.8.5-.4.3-.5-.3-.2-2.88,1.3-14.56-21.45-13.1-23.3-1.37,2.21-4.36-10.55-3.6-10.3.41-1.5-1.42,1.55-2.3-3.5-3.35-11.48-4.49-21.84-1.4-37,2.74-14.5,4.04-24.97,2-28.1,1.81-3.71-19.18-13.58-22.2-17.6.4-.5,0-.6-.9-.3-.15.96-14.7-3.33-14-4.3-8.25-.42-37.84-11.31-51.6-17.9-1.8-.7-3-1.7-2.6-2.3.3-.5.1-.7-.5-.3-1.6,1-25.5-10.6-24-11.7.9-.6.8-.7-.5-.3-.79,1.16-28.62-11.67-28.7-12.1-40.49-20.98-62.92-22.12-106.5-2.1-.5-.4-.5-.2-.2.4.7,1.1-1.9,2.9-3.6,2.5-.5-.1-.6.3-.3.8s-.7,1.7-2.2,2.6c-4.3,2.7-13.8,12.9-17.9,19.2-6.97,11.83-30.9,36.76-38.5,41.4-.7.1-1.7.1-2.1,0-.5-.1-.6.3-.3.8-2.81,3.97-14.99,7.11-22.9,6.6-8.6,0-10.6-.3-14.3-2.4-4.2-2.3-7-5-4-3.9.8.4,1.5,0,1.5-.7,0-1.1-.5-1.1-1.9-.4-1.5.8-2.4.6-3.9-.7-1.9-1.7-1.9-1.4-1.9,13.5,0,0,0,15.2,0,15.2,15.86,8.85,35.5,4.72,55.8-10.4,21.7-16.82,28.43-35.36,54.3-56.6,45.69-40.5,59.62-31.08,139.9,1.39,31.34,17.1,87.71,27.74,100,49,2.1,4.3,2.1,5.4,1.5,20.7-3.87,32.52,17.7,79.32,44.2,92.6,25.52,14.86,83.82,13.73,118.7-9.6,23.28-21.66,26.94-31.97,33-60.2,8.96-49.56,23.8-62.58,68.3-56.6,17.4,3.1,22.9,6.3,27.4,16.1,7.99,9.95,5.17,63.92,1.8,79.9-2.8,14.2-1.1,21.3,6.8,28.7,59.78,42.77,162.34-6.26,143.1-88.1-1.88-18.02-25.69-49.83-18.5-69.4,10.6-52.38,48.39-48.5,84.2-72.1,28.83-17.11,69.12-43.56,93-43.5,16.14-1.17,32.65,21.76,38.8,34.7,18.05,45.19-33.67,67.77-35.3,90.1,0,6.1,4.2,15,21.7,45.5,41,69.11,60.99,119.53,42.1,197.2-4.17,13.85-6.12,47.82,2.2,55.8,2.6,2.9,3.3,3.2,8.7,3.2,36.22-3.09,53.11-73.59,71.9-108.3,25.7-35.53,68.69-66.36,82.4-115.7,3.9-11.9,12.9-31.9,17.8-39.5,12.07-23.42,59.35-46.55,83.9-52.4,26.71-10.25,129.33.61,161.8-3.6,19.95-2.13,35.55-16.69,52.1-30.7,10.67-8.81,12.82-28.14,13.4-38.6,0-11.3-4-14.9-24.5-22.2-38.86-14.79-90.73-42.77-110.1-78.1-.8-4.4,1.6-9.1,7.9-15.4,24.6-24.3,95.64-17.73,127.2-31,40.79-11.48,92.46-15.83,117-46.39,1.3-2.3,3.6-8.6,5-13.9,10.47-35.84,24.86-61.14,57.8-60.5,11,.7,15.6,2.3,38.4,13.6,108.26,50.15-15.4,85.98-67.2,84.3-19.2.1-21.8.8-29,8.3-10.7,11.1-16.5,25-16.5,40.1,0,10.3-1.9,18.9-6.5,29.5-23.6,63.02-42.88,77.68-30.1,128.8,21.27,44.69,21.27,35.63,80.6,72,30.06,17.62,55.26,27.75,82,39.1,13.2,6.1,14.6,6.6,25.1,9.1,38.68,8.91,102.68-4.79,147.9-7.1-.73-18.81,3.16-16.7-10.7-13.9-30.85,5.7-89.51,14.09-112.8,12.7-10.1-.3-18.4-1.1-22.5-2.1-22.4-7.34-59.49-18.06-71.4-26.8.5-.7.2-.8-.5-.4-1.9,1.2-22.3-9.4-21.6-11.2.4-1.1.2-1.2-.7-.4-1,.8-2,.6-3.8-.8-3.85-2.88-3.43-1.52-8.2-4.6-3.2-2-3.8-2.8-2.7-3.6,1.1-.7.9-.8-.6-.4-2.4.6-16.1-7.5-15.7-9.4.1-.6-.3-.8-.9-.5-1.91.85-6.45-3.45-8.2-3.8-1-.4-1.5-1.1-1.2-1.7.3-.5,0-.7-.8-.5-.7.3-2.7-.7-4.3-2.1-4.92-3.72-7.11-4.41-14.3-11.5-5.9-5.9-9.2-10.3-8.7-11.6.92-1.08-2.04-3.39-.9-1.2.61,4.03-8.32-14.2-7.8-15.3-4.27-11.71-5.43-14.71-5.1-33.8-2.33-21.9,10.85-56.42,14.7-66.2-.4-1.9-.3-2.1.7-.8,1,1.3,1.1,1.3.6-.2,1.07-10.81,10.68-25.16,13.6-29.3.24-1.38,2.19,0,1.3-1.5-.4-.6.9-3.8,2.9-7,3.2-5.5,6-12.8,10.1-27,2.2-7.7,4.6-13,5.6-12.4.5.3.7-.1.4-.8-.7-1.8,4.9-8.4,9.8-11.5,5.1-3.2,10.2-4.6,26.2-7.3,10.83-1.87,31.94-6.4,38.8-6.7,28.99-10.6,108.37-29.25,66.4-70-2.8-2.6-5.1-5.1-4.9-5.5.1-.5-.2-.7-.6-.5-.5.1-4.3-2.1-8.5-4.9-6.1-4.1-7.4-5.4-6.4-6.5,1-1.1.9-1.1-.5,0-.76,2.52-10.75-3.56-10.1-5.1.3-.7.1-.8-.5-.4-.24,1.05-13.11-4.35-10.1-5.6,1-.7.8-.8-.7-.3-1.4.3-5.5-1.1-12-4.4-12.06-6.12-14.13-6.46-21.9-9.5-4.64-1.81-25.23-9.86-38.6-5.2Z"/>
  <path d="m830.67,469.93c-7.47-1.93-19.07,53.64-24.3,66.9-5.29,13.63-2.28,10.52-8.5,23.1-8.8,21.31-10.01,28.79-26.5,51.2-18.1,26.05-62.29,57.4-94.8,68.1-16.41,5.48-37.6,16.25-45.8,28.7-5.39,11.27,3.45,22.13,14.5,26.3,7.6,2.7,25.7,2.9,46.6.5,115.15-8.68,216.26-102.99,178.3-216.6-9.26-25.48-23.13-52.95-39.5-48.2Zm16.6,41c39.96,58.22,5.83,137.17-51.7,176.4-24.5,17.5-54.1,27.1-80.7,26.1-16.2-.6-22.5-3.3-22.5-9.5,0-4.2,3.7-7.7,40.1-38.3,39.31-33.73,53.82-47.18,69.8-89.2,4.2-11.12,6.67-18.77,9.2-27.4,7.97-11.4,22.19-56.11,35.8-38.1Z"/>
  <path d="m833.77,527.53c-8.25,6.8-19.02,25.66-22.3,40.1-8.15,44.83-53.45,83.27-78.7,111.2-21,28.95,21.43,24.42,48.5,9.6,15.1-8.6,36.8-27.6,47.3-41.3,18.42-25.52,31.06-55.11,27.4-87.5-3-26.5-11.5-38.6-22.2-32.1Zm7.2,11.6c15.17,11.98,9.86,41.83,3.2,67.5-10.04,35.01-53.41,82.79-91.6,83.8-33.2-3.71,35.96-56.19,42.1-73.3,9.7-15.2,14.3-25.9,22.8-54.2,4.14-10.92,12.89-29.47,23.5-23.8Z"/>
  <path d="m829.77,574.43c-2,1.4-7.4,11.9-10.5,20.7-5,14.4-10,22.9-24.2,41-17.1,21.9-17.7,22.8-17.7,25.8s2.6,4.2,7,3.2c19.09-5.26,44.34-47.77,50.5-67.9,1.37-7.81,4.77-27.51-5.1-22.8Z"/>
  <path d="m1688.87,484.13c-10.7,3.7-18.2,20.5-12.5,27.7,7.4,9.5,35.4,8.5,46.3-1.6,14.32-10.66-18.08-32.77-33.8-26.1Z"/>
  <path d="m712.97,495.83c-.97,6.1-3.46,30.08-5.1,36.4-6.42,47.01-71.19,85.52-48,104,21.52,17.44,66.11-4.93,85.9-24.7,11.51-10.58,19.61-22.61,22-27.6,1.4-.9,3.6-4.6,3.6-6.2,0-2.4-2.2-.9-3.8,2.7-10.98,19.63-42.3,48.22-68.1,53.1-14.5,3.6-23,2.5-29.3-3.9-4.2-4.2-4.7-6.9-2.3-12.6,6.42-15.7,29.94-44.77,36.4-62.6,5.8-14.8,9.8-35.4,10.2-53.1.3-9.5-.6-12.5-1.5-5.5Z"/>
  <path d="m31.37,493.53c-14.6,3.1-16.6,11.8-14.2,63.7,1.8,37.8,3.9,49.8,11.9,66.4,14.53,35.95,75.57,53.7,96.6,18.2,8.09-4.68,1.01-80.88-8.7-97.7-13.27-35.1-53.99-54.07-85.6-50.6Zm46,18c7,2.7,15.2,8.2,14.5,9.9-.3.7,0,1,.5.7,2.3-1.4,16,15.7,22,27.4,5.85,13.39,4.48,14.12,7,31.1,2.99,31.88,8.81,55.39-15.7,68.6-8.3,3.3-35,1.9-32.8-1.7.4-.5-.1-.6-1-.3-1.7.7-7.5-1.4-7.5-2.7,0-.5-.3-.8-.7-.7-1.4.5-8.3-4.3-7.7-5.3.3-.5.2-.8-.3-.7-1.4.5-6.4-4.1-11.2-10.2-5.87-7-11.01-19.71-10.9-22-1.2,0-3.8-12.7-5.3-24.9-1.11-16.51-1.83-50.3,6.5-58.5-.8-2,1.5-5.9,3.1-5.2.9.3,1.2,0,.8-1-.3-.9.1-1.4,1.2-1.4.9,0,1.4-.4,1.1-.9-.6-.9,3.8-3.3,7.9-4.5,4.6-1.2,23,.2,28.5,2.3Z"/>
  <path d="m64.17,527.53c-17.94,6.36-18.48,22-21.8,37.6-3.08,5.54,4.39,35.73,7.3,44.8-.61,1.52,1.27-1.67,3.6,3.4,2.3,4.7,12,14,18.1,17.5,9.1,5.3,21.7,7.3,26.9,4.4,1.4-.8,3.2-1.1,4-.8.9.3,1.3.2.9-.3-.8-.8,5.2-6.1,6.5-5.7.5.1.6-.1.3-.6s.6-3,1.9-5.5c7.31-13.72,5.89-58.54-5.5-71.8,0-2.6-6.6-9.3-20.8-21-2.5-2-17-3.4-21.4-2Zm20.9,15.2c9.44,4.61,19.6,17.85,23.8,28.4-.11,9.23.68,33.31-1.9,37.3-4.17,13.79-17.62,18.39-29.4,13.3-5.6-2.8-14.8-13.1-18.2-20.2-10.42-19.86-6.45-72.79,25.7-58.8Z"/>
  <path d="m1799.37,573.23c-53.1,5.7-94.6,17.2-116.6,32.2-38.43,26.88-63.8,91.64-49.3,138.1,14.59,56.59,94.49,86.28,148.9,87.8,44.76,1.82,104.38-27.09,138-46.8-.08-9.67.23-51.72-.5-53.9-9.49,3.12-23.66,13.25-34,22.6-19.3,17.2-34.3,27.2-57,38.4-62.36,35.81-167.38,8.09-177.9-69.1-7.82-40.71,16.85-90.77,51-109.1,68.2-33.46,141.09-17.95,218.4-14.5v-17.3c-19.57,1.16-44.13-5.06-64.5-8.5-12.4-1.8-39.5-1.8-56.5.1Z"/>
  <path d="m1784.37,599.63c-33.1,2.1-66.8,11.4-84.9,23.4-77.17,61.17-40.86,174.25,63.4,173.9,62.3,1.31,86.44-44.92,143.8-74.4,7.2-3.2,13.3-5.9,13.4-5.9.2,0,.3-1.8.3-4.1,0-2.9-.4-4-1.2-3.6-18.05,8.44-45.36,18.56-58.1,32.4-33.6,31.3-62,46.6-91.4,49.2-45.46,3.14-92.84-20.37-103.9-65.4-8.79-34.6,8.01-77.96,33.9-97.2,36.35-23.36,86.04-28.37,132.2-22.8,16.43,1.12,88.04,11.29,88.5,4,0-2.3-.4-2.5-4.7-2.5-33.2.29-98.3-10.09-131.3-7Z"/>
  <path d="m1522.27,600.03c-25.54,6.52-31.97,2.28-27.9,31.7,12.69,29.01,84.74,38.69,79.8-10.3-.3-6.4-.7-7.3-3.5-9.8-7.53-6.9-37.34-14.75-48.4-11.6Z"/>
  <path d="m1116.87,605.13c-4.32.76-8.41,3.43-11.7,2.9-.6-.4-.8-.2-.5.3.9,1.4-7,6.6-8.5,5.7-.6-.4-.8-.3-.5.3.7,1.2-7.3,8-8.8,7.5-.5-.2-.7-.1-.3.3s-1.2,3.5-3.6,6.8c-7,10.4-7.8,14.3-7.4,38.4.3,20.7.3,20.8,3.2,26.2,5.2,9.9,16.3,19.1,35.1,29.1,20.05,10.03,41,15.45,56.4,9,3.26,1.47,21.3-17.29,21.1-21,4.06-12.92,10.41-29.57,12-43.7,3.06-14.58-2.37-24.57-6.4-35.5.3-.4.2-.7-.3-.6-.4.2-3-2.1-5.7-5-3.35-4.53-9.63-6.95-11-10.4.4-.7.2-.8-.4-.4s-3.1-.4-5.4-1.7c-13.83-8.09-42.07-12.03-57.3-8.2Zm26.9,14.5c28.9,7.4,43.2,29.7,37.2,58.1-5.63,27.2-23.52,38-47.8,30.1-19-7.81-31.85-18.13-36.5-36.9-9.92-33.94,10.83-60.43,47.1-51.3Z"/>
  <path d="m1771.37,610.63c-19.4,2.4-42.3,8.7-56.5,15.6-36.29,18.49-56.2,74.16-34.4,112.6,38.98,62.8,120.41,48.77,166.89-4.6,19.74-21,47.27-26.22,72.5-39.3.03-1.69.76-8.89.2-9.3-.11-.35-15.52,7.23-15.7,6.3,0-.3-.8.1-1.8,1-11.59,5.77-42.91,17.45-49.3,23.7-2.8,2.1-5.7,3.6-6.4,3.4-.7-.3-1.6-.1-2,.5-.4.7.1.8,1.2.5,1-.4-1.5,2.7-5.6,6.9-4.1,4.2-7.9,7.3-8.5,7s-.8-.3-.4.2c1,1-7,8.7-8.2,8-.6-.4-1,0-1,.8,0,2-3.7,5-5.1,4.1-.7-.4-1-.3-.6.3.8,1.2-1.1,2.8-10.8,9.1-17.6,11.7-32.3,16.2-52,16.2-9.45,1.09-36.97-6.16-43.1-12.9.57-1.2-3.13-.23-2.7-1.8.12-1.86-2.64.55-3.3-1.7-.3-.9-.9-1.4-1.3-1.1-.9.5-11.9-10.7-14.5-14.7-1-1.5-1.5-3.2-1.2-3.7.4-.5.1-1.3-.5-1.7-2.02-1.41,1.2,2.9-.7,1.1-9.87-15.97-13.66-43.19-4.1-65.4,2.5-7.6,10.34-18.9,11.6-20-.4-1.5,8.4-11.2,9.5-10.5.6.4.8.3.5-.3-.9-1.4,5.5-7.1,7.6-6.8.9.2,1.5-.1,1.2-.5-1.1-1.8,17.5-9.7,19.6-8.4,17.6-11.77,80.69-13.53,106.9-4.1,3,.8,6.5,1.5,7.8,1.5,2.2,0,2.3.2,1.1,1.7-1.3,1.5-1.2,1.5.6.6,8.41-1.88,61.47,2.5,71.5,2.2-.45-4.77,2.12-6.56-6.2-6.9-22.31-1.13-62.27-1.85-80.3-6.8-14.82-4.16-47.79-3.83-62.5-2.8Z"/>
  <path d="m1761.87,622.23c-36.43,5.9-60.72,18.33-73.5,52.6-9.7,27.12-1.39,59.11,21.4,75.2,1.94,2.23,5.08,2.38,4,3.8-.4.6-.3.8.3.5.6-.4,3.5.6,6.4,2.2,3.6,2.61,12.9,4.27,15.4,6,4.37,1.09,26.7,1.49,31.2-.4,4-.9,7.8-1.3,8.4-.9,1.82.96-.98-1.8,1.4-1.6,2.1,0,17.1-7.6,21.2-10.7,1.8-1.4,3.7-2.1,4.4-1.7s.9.3.6-.3c-.8-1.3,5.7-6.5,6.8-5.5.5.4.5.2.2-.4-.8-1.4,2.8-4.8,4.2-3.9,1.57,1.13-.56-3.16.6-2.3,1.25,1.13,3.35-3.58,4.7-2.6.6.4.8.3.5-.3-1.38-.49,12.36-13.23,11.5-13.3-.46-.52,3.75-3.1,4.2-2.3.5.4.6.1.3-.4-1.2-1.9,19.7-18.7,22-17.8.8.2,1.2.1.9-.4-.9-1.3.9-2.5,13.3-8.6,6.8-3.4,11.9-5.4,12.9-5,.9.3,1.3.3.9-.1-1-1,17.3-7.5,18.6-6.7.6.3.7.2.4-.4-.3-.5,1.5-2,4.1-3.2,4.16-1.92,7.88-4.22,11.2-6.6-.13-4.64.21-26.49-1.1-27-.5.3-3.5.1-6.6-.4-12.39-1.52-67.86-3.08-72.8-8.6-23.36-11.15-51.72-12.11-78-8.9Zm46,5.8c10.7,2.3,18.2,5.2,27.5,10.5,13.3,7.6,16.1,8.9,27.7,12.2,15,4.3,18.2,6.4,16.8,11-13.11,12.91-31.28,26.78-52,47.9-28.7,28.2-37.8,35.5-51.5,41.1-53.75,22.24-106.86-32.16-77.9-84,18.21-39.77,71.61-44.2,109.4-38.7Z"/>
  <path d="m1769.37,634.23c-33.95,4.25-56.03,12.29-67.1,46.9-7.31,26.52,10.12,56.86,38.6,60.5,36.69,6.18,70.46-31.43,88.6-62,9.45-18.54-9.44-39.24-29.4-42.9-7.2-1.9-24.2-3.2-30.7-2.5Zm1.9,30.5c29.05,20.48-34.77,57.05-35.9,20.1-.95-18.48,20.83-27.99,35.9-20.1Z"/>
  <path d="m927.37,707.33c-34.19,5.13-74.36,31.54-99,39.9-25.85,9.27-28.2,16.43-38.4,36.4-4.16,7.88-4.38,32.62-.2,40.5,35.26,71.88,3.51,144.43-77.5,154-30.98,5.1-119.01-3.85-93.9-47,4.87-11.1,10.4-40.09,7.6-53.9-6.5-12.26-29.84-18.33-40.4-4.2-5,5.4-7.3,10.3-9.6,20.5-4.57,27.63-38.94,64.41-56.8,70.2-45.61,12.51-115.77,23.87-149.1-18-14.22-19.55-31.05-58.07-31.7-75.5-1.3-10.9-3.3-14.9-10.7-21.5-19.08-16.78-30.89-16.96-57.8-29.6-58.8-25.2-84.3-30.9-111.5-24.9-70.33,10.34-87.97,114.82-152,99.9-3-.8-5.6-1.5-5.7-1.5-.04.66-.55,13.69-.3,16.7,57.95,21.62,77.3-46.24,112.8-80.3,21.99-17.7,38.12-24.94,67.2-24.8,25.9-.1,39.5,3.4,79.5,20.4,26.22,11.23,55.3,21.51,67.4,38.7,6.5,24.33,25.9,75.77,45.8,93.3,37.41,40.83,124.85,21.04,166.8,12.8,6.3-2.5,23.5-15.7,34.2-26.5,10.4-10.5,14.7-13.4,17.2-11.8,1.9,1.1,1.2,4.1-3.3,13.1-6.94,12.73-8.12,19.87,6.4,27.1,9.6,4.1,32.1,9.5,51.5,12.5,101.29,14.85,192.33-37.3,154.8-147.1-12.25-31.65-9.82-52.21,10.8-75,8.25-9.28,37.48-16.32,53.3-24.3,31.9-13.15,52.73-21.39,74.6-13.3,19.91,11.47,11.37,34.46-5.5,49.1-10.8,10.7-12,13-10.3,19.1,1.1,4,8.4,14.9,19.2,28.7,91.24,127.79,70.63,162.59,42.6,304.2.14.34,9.62.52,11.5.4-2.17-43.73,20.36-91.66,18.8-141,.57-44.68-8.48-57.51-26.9-99.2-10.6-21.2-16.1-30.5-39-65.5-14.05-21.91-12.18-17.72-12.4-30.3,14.29-13.93,34.34-35.49,32-50.6-2-24.05-18.99-35.21-42-31.7Z"/>
  <path d="m865.87,750.63c-17.53,4.52-36.33,6.54-47.3,19.4-15.38,17.5-18.53,35.47-10.7,59.7,21.64,58.96,2.88,122.35-46.5,150.9-12.79,11.32-89.85,16.66-119,19.5-41.5,4.4-68.8,2.4-100-7.1-10.3-3.2-13-3.6-26.5-4.1-101.52,4.34-141.11,12.54-185.8-86.3-13.35-31.48-9.45-33.54-42.2-52-53.15-25.33-119.46-53.6-166.6-8.2-9.4,8.8-14.4,16.2-23.4,34.2-22.84,49-52.79,69.95-95.7,56.5-3.54-4.26-1.06,32.31-1.8,38.4,21.76,6.83,50.75,9.05,71-1.6,25.41-14.36,49.7-49.16,56-75,21.43-77.01,113.12-43.65,158.8-15.9,11.2,7.5,17.3,14.5,25,29.1,22.88,40.99,47.46,86.3,93.9,98,35.66,9.72,86.5,3.89,124.1,19.9,35.07,10.1,91.13,28.71,129.7,19.7,11.1-2.9,18.3-5.8,29.6-12.2,18.16-11.66,59.25-17.35,76.9-27.4,39.44-18.4,59.01-57.38,63.5-97.5,5.3-24.1,6.5-54.8,3-76-3.77-22.33-1.95-32.41,15.4-39.7,10.3-3.2,22.5,1.5,41.6,15.9,70.67,50.26,103.13,137.49,87.3,215.8-8.94,32.76-17.05,72.71-35.9,101h28.7c11.29-26.94,13.44-45.1,21.3-75.5,28.45-100.55-8.23-176.16-80.6-252.8-14.3-15-15.6-19-10.2-30.3,11.46-23.79-17.32-20.53-33.6-16.4Z"/>
  <path d="m1069.87,758.83c-4.83,1.08-10.59.22-12.8,2,.72,1.82-5.62.42-5.3,1.5-3.96,3.77-15.54,8.6-21.8,13.5-6.8,4.5-9.1,5.6-9.8,4.6-.6-.9-.8-.8-.6.6.83,1.6-2.7,3.82-1.7,1.6,1.19-2.07-1.86.18-1,.9.6,1.1-8.5,8.2-9.6,7.5-.5-.3-.9.1-.9.9-.62,2.99-10.33,9.32-11.8,12-1.3,1.5-2.9,2.4-3.4,2-.6-.3-.8-.1-.5.5.4.5-.2,3.2-1.4,5.9-3.53,10.41-2.34,17.99,4.1,30.3,5.25,9.82,3.22,8.18,6.7,13.6,6.48,10.36,12.24,22.54,19,32.6,2.05,1.49-.29,4.36.8,3.6,1.1-1.1,6.8,7.9,5.9,9.4-.4.7-.4,1,.1.6,1.1-1.1,3.7,2,2.9,3.4-.4.7-.4,1,.1.6,1.1-1.1,5.8,6,4.9,7.4-.5.7-.3.8.6.3,1-.6,1.2-.4.7.9-.4.9-.3,1.5.2,1.2,1.2-.8,9.4,16.1,8.5,17.6-1.04,1.66,1.71-.72,1.6.3.01.23,7.37,28.54,6.3,28.9-.3.6-.3.8.1.4.5-.4,2,1.6,3.4,4.4,5.98,13.75,19.88,9.91,28.9,2.6,1.2-1.1,2.6-1.7,3.2-1.4.7.4.9.1.5-.8-.6-1.6,2.9-4,4.1-2.8.3.4.5.2.3-.4-.4-1.5,6-8.6,7.2-7.9.5.3,1.2,0,1.6-.6,1.33-2.21-3.67,1.85,1.9-3.6,2.2-2.2,4.4-3.7,4.9-3.5.5.3.6,0,.3-.5-.8-1.3,2.7-4.6,3.8-3.6.4.5.6.3.3-.2-1.28.02,7.01-9.17,6.6-7.6-1.12,2.15,1.98.02,1.1-.9-.8-1.3,5.5-8.1,6.8-7.3.6.3.7.1.3-.5-.8-1.3,7.2-11.8,8.6-11.4.5.1.7-.2.4-.7-.96-1.21,4.69-8.36,4.4-9.5,0-.6.5-.4,1.1.4.9,1.3,1,1.3.6-.2-.6-1.7,5.6-14.2,6.5-13.2.3.3.6-.5.6-1.8,4.18-14.11,10.42-41.32,13.8-56.7,5.07-17.41.89-26.38-5.4-36.7-1.2.7-7.4-5.8-6.5-6.9.5-.4.2-.5-.6,0-2.5.83-2.9-1.91-6.4-3.4-5.96-3.2-.17-3.28-3.2-4.4-3.39-1.4,4.15,5.14-9.3-3.4-16.4-9.9-20.2-12.5-19.5-13.5.3-.7.1-.8-.5-.4-1.1.7-8.6-3.7-7.8-4.5-9.66-2.47-22.43-5.6-33.9-3.7Zm11.1,31.8c29.72,8.55,55.42,22.39,53.9,51.4-.4,3.9-.9,13-1.1,20.1.05,27.48-10.27,44.27-31.4,64.5-12.4,11-18.9,15.2-24.9,15.8-6.6,1.59-11.96-5.7-14.1-10.9-2.1-6.2-8-14.9-19-27.9-21.34-29.05-47.89-54.35-42-85.9,13.84-20.8,60.76-33.95,78.6-27.1Z"/>
  <path d="m1036.97,837.93c-5.97,12.93,18.84,33.31,33.2,25.1,4.6-3.2,2-13.4-5.1-19.6-4.4-3.8-12.8-7.1-19.7-7.6-6.4-.4-6.9-.3-8.4,2.1Z"/>
  <path d="m1526.37,773.03c-27.12,11.5-43.04,26.94-80.6,25.9-68.13-2.03-183.84-7.84-221.5,46.41-13.58,15.07-33.01,74.17-46.6,91.8-10.04,17-41.64,43.65-49.3,63.5-33.42,54.29-27.52,92.91-83.4,125h17c27.4-16.35,48.51-50.8,60.5-81.2,24.9-63.65,57.9-76.79,83.9-142.8,16.1-37.6,22.6-48.7,35.2-60.6,52.84-51.41,172-30.19,234.6-38.2,33.89-4.54,63.63-24.5,95.5-3.2,9.58,6.5,152.19,82.07,161.4,90.1,33.98,22.71,64.63,30.24,108.3,20.8,23.54-5.87,57.36-3.67,79,1.4-.09-2.76.19-14.67-.3-15.3-26.77-4.24-53.08-5.36-82.4.2-11.15,2.33-55.15,4.18-63.8-.5-18.7-6.07-41.4-21.36-60-30.4-26.12-11.67-65.49-33.52-92.5-48.5-37.73-16.37-58.24-56.99-95-44.4Z"/>
  <path d="m1499.47,810.23c-137.42,24.75-246.23-43.02-295.5,141.9-8.79,31.35-21.69,41.55-37,60.3-11.2,33.48-24.08,71.09-54.1,91.5-6.4,4.9-18.5,15-25,20.8,5.26,1.02,127.38.99,154.5.9,6.37-15.66,15.5-43.9,24.1-63,16.85-39.66,19.25-48.84,2.9-79.1-16.87-28.25-16.79-58.71-2.3-89.9,14.47-26.24,32.85-36.15,68.9-43.4,24.02-7.7,103.61-6.96,137.9-10.1,36.3-4,47.5-4.2,67.3-1,49.55,8.4,141.63,70.89,169.3,87.8,26.31,18.45,61.37,34.76,78.8,52.2,51.55,49.82,20.29,63.89,34.4,97.6,25.98,33.78,36.69-29.4,39.7-51.6,1.4-14.8,3-19.3,9.1-25,17.79-15.57,32.24-12.15,47.9,4.7v-69.8c-34.97-8.55-84.3,6.23-117.5-.3-38.94-5.78-61.5-23.6-99.5-47.7-58.66-34.79-148.29-91.4-203.9-76.8Z"/>
  <path d="m855.97,812.63c-7.9,2.5-10.2,8.3-11.6,29.5-6.23,49.94-5.36,100.42-31.2,135.6-16.9,22.2-35.9,36-65.7,47.6-18.1,7.1-23.4,9.9-32.8,17.4-18.29,15.4-37.41,21.64-58.8,27-33.35,4.31-69.76-2.2-103.5-19.2-36.5-17.2-67.6-25.6-109-29.4-49.57-4.89-70.3-13.62-99.2-47.4-7.5-9.3-23.4-33.4-36.7-55.6-11.5-19.1-13.7-21.8-23.6-28.4-29.85-21.14-94.86-42.03-120.4-22.4-10.4,6.2-16.8,15-23.9,32.8-31.41,79.42-54.06,111.12-139.3,86.8l.6,10c27.62,10.7,68.98,12.58,89,3.6,17.5-7.7,22.5-14.8,40.7-58.4,3.95-8.86,5.26-12.56,7.3-16.5.4-2.8,3.1-7.8,3.8-7.3.6.3.7.1.4-.4-.9-1.5,3.7-11.6,4.7-10.6.5.4.6.2.2-.4-.4-.7.1-3,1-5,3.17-5.77,11.02-21.64,15.7-20.8,1.7.5,1.9.4.7-.4-1.3-.9-1.2-1.2.5-2.6,11.59-7.4,25.99-12.16,41.6-9.6,13,1.7,26.4,5.1,24.7,6.3-.9.7-.7.8.6.4,2.2-.8,17.8,4.3,17.1,5.5-.3.4.5.5,1.7.2,1.6-.3,1.9-.2,1,.4-.9.7-.5,1,1.5,1,1.5,0,6.4,1.7,10.8,3.7,6.3,2.9,7.7,3.9,6.5,4.7-1.2.8-1.1.9.6.5,2.3-.7,11.9,5.5,10.7,6.9-.5.4-.3.5.4.1s3.4,1.4,6.5,4.3c4.8,4.5,5.1,5.1,3.8,6.8-1.4,1.6-1.3,1.7.1.6,3.53-4.64,16.31,23.68,15.4,22.8-.4.5-.1.8.7.7.7-.2,1.2.5,1.2,1.4-.1,1,.3,1.5.9,1.1,1.73-1.07-.8,2.99.6,2.3.87-.81,3.51,2.03,2.5,2.4-.5,0-.4.4.2.8,3.87,3.31,9.88,14.36,12.4,17.5,2.32,2.32,11.09,15.72,13.3,18,1,1,1.5,2.3,1.1,2.9s-.3.8.4.4c1.5-.9,5.4,4.8,4.2,6.2-.7.8-.7.9.1.3.55-2.48,16.29,13.49,15.3,14-.2.4.1,1.1.7,1.5.8.4.9.3.5-.4-2.54-4.2,7.44,4.05,6.6,5-.1.5.2.7.7.4.6-.4,3.8,1.1,7.3,3.2,14.25,9.14,34.25,13,50.3,15.7,32.4,3.05,66.91,9.68,96.5,23,10.6,4.5,13.3,6.2,12.3,7.8-.5.9-.3.9.8,0s2.6-.4,6.9,2.2c6.6,4,17.7,9.5,24.3,12,2.6,1,4.3,2.1,3.8,2.5-.6.3.6.6,2.6.6s3.8.5,4.1,1.2c6.29,2.13,13.06,3.67,24.2,6.2,21.56,5.03,54.82,3.17,75.5-4.5,14-4.8,30.3-13.3,39.5-20.6,3.2-2.5,5.5-3.7,6.7-3.3s1.4.3.6-.3c-.9-.6,0-2,3.2-5,6.3-6,14.4-11.5,15.7-10.7.6.4.9.3.5-.2-.3-.5,1.8-2,4.6-3.3,17.6-8.2,28.2-13.8,33.6-17.7,3.9-2.8,6.6-4.2,7.8-3.8,1.3.4,1.4.3.5-.3-1-.7,0-2,4-5.1,4.55-2.67,8.34-8.71,12-9.6.5.3.7.2.6-.3-.5-1.3,6.4-9.3,7.4-8.7.5.3.7.1.6-.4-.5-1.6,6.3-10.3,7.4-9.6.7.4.8.2.4-.4-1-1.6,1.2-5.4,2.6-4.6.6.4.8.3.5-.3-.11-4.75,8.48-18.41,9.6-24,1.3-4,2.8-6.9,3.2-6.5.5.4.5.1.1-.6-.4-.7,0-4.4.8-8.1,2.04-5.21,2.94-32.45,4.1-37.1,2.89-16.12,6.65-39.89,11.1-56.5,1.74-4.52,8.11-14.68,7.8-10.3-.4.7-.3.8.5.4.6-.4.9-1.1.6-1.6-.9-1.5,4.2-2.3,10-1.7,6.96.66,15.74,5.66,20,9.7,1.8.1,3.4,1.4,2.8,2.4-.3.6-.3.8.2.4.4-.4,2.6.6,4.9,2.3,5.1,3.7,16.6,14.9,16.6,16.1,0,.5.5.6,1.2.2.8-.5.9-.2.5.9-1.21,2.38,2.05.52,1.5,2.5-.1.8.2,1.1.7.8,1.2-.8,3.4,2,2.6,3.3-.3.7,0,.8.9.5,1.5-.6,2.1.6,1.7,2.9-.1.5.3.6.7.3,1.3-.8,9.5,11.2,8.6,12.6-.4.7-.3.8.4.4.7-.4,2,1,3.3,3.6,5.6,11,7.1,14.2,7.3,15.3,3.36,3.47,9.79,27.13,10.2,30.8-.2.9-.1,1.5.3,1.2,1-.6,4.9,17.9,6.8,32.5,3.2,8.97-.01,54.67-3,55.4.25,5.41-2.89,13.49-5.3,22.3-1.6,5.6-3.3,9.9-3.8,9.6.62.82-7.87,31.34-9.9,32.9-.7.4-.9.8-.5.8,1.1,0-1.3,6-2.4,6-.5,0-.7.4-.4.8,1,1.6-7.7,17.6-8.9,16.4-.5-.4-.5-.2-.2.5.4.6-1.3,4.2-3.8,7.8-2.5,3.7-4.5,6.9-4.5,7.1,0,.2,1.6.4,3.5.4,3.3,0,3.9-.5,8.1-7,55.34-99.35,51.63-212.87-26.1-281.6-22-19.4-40.5-28.1-51.9-24.4Z"/>
  <path d="m721.97,849.13c-16.73,8.74-2.17,47.38,4.3,60.9,10.66,7.34,22.74-2.3,26.9-13,3.1-10.5,2-22.8-2.9-32.5-4.57-7.83-19.21-20.78-28.3-15.4Z"/>
  <path d="m871.87,849.83c-2.64,1.58-3.1,4.09-4.8,3.1-.7-.3-.9-.3-.5.1-6.74,16.23-12.26,27.2-13.2,50.1.12,24.94-10.57,59.27-20.6,71.3-.07,5.36-17.9,28.77-19.6,26-.7-1-.8-.8-.4.5,1.47,1.54-7.33,9.26-8.6,8.9-.5-.1-.7.2-.4.7.4.5-.7,1.8-2.4,2.7-1.6,1-3,2.3-3,2.8,0,.5-.3.6-.7.3-.3-.4-1.2.2-2,1.3-7.09,4.95-8.92,6.24-22.9,14.6-14.52,8.14-24.27,16.76-32,23.3.9,1.5-5.4,8.3-7.1,7.7-.8-.3-1.2-.2-.9.3-1.5,6.92-43.24,30.85-57.2,33.9-2.1-.1-6.77,2.74-9.2,2.7-1.4.1-3.4.6-4.4,1.1-.4.8-11.71.62-12,1.5-5.48,4.25-67.19-2.31-68.2-7-3.16-.67-23.4-8.76-23.7-10.9.2-.6-.4-.9-1.2-.6-1.5.6-7.5-2.5-7.5-3.8,0-.4-.3-.7-.7-.6-1.6.5-12.3-5.5-11.6-6.5.3-.5.1-.7-.5-.4-1.5,1-4.3-.3-3.5-1.6.3-.6.1-.7-.5-.3-1.6,1-5.4-1.2-4.6-2.6.4-.6.3-.8-.3-.5-10.35-3.71-57.02-26.8-62.6-25.3-1,0-1.6-.3-1.4-.8-2.99-1.67-8.75-1.26-17.3-3.6-20.04-3.89-57.8-8.87-69.3-18.4-1-.9-2.4-1.7-3.2-1.8-2.5-.4-7.5-4.5-6.9-5.6.4-.7.2-.8-.5-.4-1.3.9-7.3-3.8-6.3-4.9.4-.5.2-.5-.4-.2-1.4.8-7.7-5.6-6.7-6.8.5-.4.3-.5-.3-.2-.7.4-3.3-1.7-6-4.9-4.61-5.24-9.96-10.66-12.1-15.4-1.91-1.23-6.09-8.27-8.2-10.2-1.4-1.6-2.1-2.8-1.6-2.8s.2-.6-.6-1.3c-3-1.97-11.85-16.84-12.9-17.7-.5,0-.6-.7-.3-1.7.4-.9.2-1.4-.3-1-1.4.8-8.7-10-7.8-11.5.4-.7.4-1-.1-.6-1.1,1-5.6-5.2-4.8-6.5.3-.6.2-.7-.3-.4-.6.3-2.5-2-4.4-5.1-2.36-5-7.51-8.55-8.7-12.4.2-.7.2-1,0-.6-.9,1.5-2.5.8-1.9-.8.3-.8.2-1.2-.4-.9-.5.3-3.6-1.2-6.8-3.4-5.08-3.75-12.84-7.18-17.2-9.6-1.6-1-2.1-1.2-4.6-1.4-.9,0-1.2-.6-.8-1.3.4-.6.3-.8-.3-.5-1.1.7-17.1-3.9-18.9-5.4-.6-.5-1.3-.7-1.6-.4-21.9-4.42-48.43-6.35-61.9,9.2-2.8,2.6-4.9,4-5.2,3.4-.3-.7-.4-.6-.3.1.2.7-1.6,4.1-4,7.4-6.79,7.72-9.64,20.68-14.6,28.4-.83,7.44-9.03,25.84-11.4,36.2-2.1,7-4.2,12.4-4.6,12.2-.4-.3-.5.1-.3.8-.55,13.81-12.88,35.07-20.9,36.8-13.39,6.31-49.07,8.1-77.8,1.1.5-.3-1.1-.6-3.6-.7-4.25.58-23.27-5.87-26.6-6.4-.51.49-.77,10.23-.6,12.5,29.47,8.95,56.87,14.99,83.1,13.2,43-1.9,47.1-5.3,56.3-46.2,8.1-35.6,14.6-57.8,20.9-71,6.7-13.8,17.6-24.1,30.5-28.7,27.92-6.79,81.84,4.54,100.3,36.4,89.47,138.85,90.06,89.21,201.4,134.9,63.8,34.14,129.03,78.05,204.3,37.9,22.3-10.7,39.2-23.2,53-39.3,31.84-36.47,69.32-37.75,92.9-90.2,9.9-19.6,13.8-32.6,18.4-60.5,5.1-31.5,7.5-39,14.6-44.3,3-2.3,4.6-2.7,9.8-2.7,34.5,5.24,52.32,41.82,62,82.5,9.46,39.99,8.69,49.89-2.1,89.4-15.1,51.53-21.26,64.84-41.6,89.2,1.72-.15,9.74-.09,9.7-1.2-.5-.7,3.4-6.1,4.7-6.7.5-.2.8-.8.8-1.3,0-1.7,5.2-8.9,6.1-8.4.4.3.7-.3.7-1.2-.1-2.4,6.7-13.4,7.7-12.5.5.4.5.2.1-.5,12.21-41.64,35.46-91.97,21.9-140.8-3.37-16.97-9.58-35.69-12.2-44.5-1.5,0-3.6-5.6-2.7-7.1.87-1.89-.93,1.24-3.1-3.7-1.35-3.26-5.54-7.41-4.9-10.4.4-.7.4-1-.1-.6-.4.4-2.1-1.3-3.7-3.7-1.66-3.63-14.9-16.5-16-19.7.1-.5-.2-.7-.8-.3-1.6,1-4-1.4-3.3-3.3.4-1.3.3-1.4-.5-.4-2.24,2.07-12.91-7.57-16.3-8.3-2.7-1.2-4.7-2.4-4.5-2.6-1.44-.57-14.74-1.57-15.9,1.3Z"/>
  <path d="m1479.87,852.73c-62.58,10.46-191.76-12.61-198.6,74.6-3.54,15.24,33.49,67.99,32.7,81.6,2.5,12.6,1.2,19.5-7.2,40.1-13.27,32.35-19,52.05-22.6,76.6h21.2c-.58-13.61,7.25-41.22,13.4-51.4-.38-2.6,3.39-10.26,4-12.9.4-1.7,1.1-2.5,1.8-2.1.7.4.8.3.4-.5-.4-.6,1.2-6.4,3.7-12.9,5.7-15.2,7.1-21.2,6.3-27.7-1.11-11.94-8.59-33.84-13-44-.11-1.31-4.94-6.61-4.1-8.2.3-.9,0-1.1-.7-.7-.8.5-.9.2-.5-1,.4-.9.3-1.4-.2-1.1-1.2.7-12.5-22.3-14.7-29.9-10.2-74.71,114.54-61.56,167.6-69.3,31.39-2.53,57.19-3.03,82.8,4.8,10.9,3.1,32.4,12.7,31.6,14-.67.76,2.07,2.69,1.2,1.1-1.1-1.8-.3-1.5,7.8,2.5,4.1,2,7.3,4,7,4.5,1.9-.73,36.61,14.79,36,17-.4.7-.2.8.5.4,1.4-.9,7.5,2.4,28.8,15.7,10,6.13,15.61,10.52,16.1,11.5.9-.3,7.2,3.8,23.8,15.5,3,2.1,5.2,4.2,4.9,4.7-.3.4.3.7,1.3.6.9,0,1.6.5,1.4,1.2-.1.8.2,1.1.7.7,4.3,1.04,16.46,11.32,21,14.2,4.5,3.2,5.9,4.7,5.5,6-.5,1.4-.4,1.5.4.4.72-2.55,5.75,3.11,4.2,2.4-.9-.5-1.2-.4-.7.1,1.01,1.29,4.22.23,4.1,2.6-.1,1,.2,1.5.7,1.3,1-.7,7,4.5,6.4,5.5-.65,1.21,2.96,1.6,1.9,3.1-.4.7-.3.9.3.6,1.3-.8,5.4,5.3,8.7,12.6,4.2,9.6,4.8,14.2,4,31.8-1.19,33.47-1.49,43.8,2.5,51.8.7,4.3,4.73,9.86,4.5,13.3-.4.6-.3.8.3.5,1.4-.9,4.7,2.9,3.7,4.4-.4.8-.3,1,.5.5.6-.4,2.5.4,4.3,1.9,4.1,3.5,13.5,8.2,18.1,9,13.18,4.79,31.99,4.5,49.8,1.7,24.86-4.84,32.81-18.04,39.5-37,.13-9.09.57-5.34,3-7.3.4-.8.3-.9-.4-.5-3.5,2.1,1.5-10.5,6-15.1,5.3-5.5,9-6.1,17.1-2.8,2.84,3.63,1.34-19.8,1.7-23.3-36.24-23.81-38.86,26.69-49.6,52.5-11.54,27.08-54.24,30.05-73.4,11.7-30.99-32.22,10.23-80.51-30.4-115.8-68.76-55.35-137.82-92.99-200.1-122.7-24.74-10.73-60-10.95-87-8.8Z"/>
  <path d="m439.07,863.73c-18.32,4.02-44.62,31.77-28.1,48.8,5.4,6,12.1,8.4,21.9,7.9,33.13,2.66,44.15-62.85,6.2-56.7Z"/>
  <path d="m1478.87,880.53c-18.27,4.11-55.24,5.34-75,7.2-29.86,4.16-68.52,14.86-63.3,50.3.5-.3.8.3.8,1.3,0,1.9,1.7,6.7,6.8,19.3,3,7.6,7.2,20.4,7.2,22.2.09,1.39-2.64-1.11-1.6.7,3.08-.49,8.72,23.48,10.7,34.3.8,5.1.7,8.5-.4,15-1.5,8.7-5.7,19.4-7.2,18.1-.4-.5-.5-.2-.1.4-.3,6.28-6.53,16.83-8.9,25-2.1,5.7-4.2,10.3-4.7,10.3s-.7.4-.3.9c.3.5-.4,3.2-1.5,6-3.77,9.68-6.56,23.61-7.3,34.1h18c2.49-22.21,7.89-36.53,23.8-73,21.7-28.7-16.74-111.74-3.9-125.8,7.32-22.73,62.03-22.86,89.9-26.8,17.7-3.4,26.5-3.9,44.1-2.5,82.25,5.26,134.29,30.99,194.5,79.7,23.2,19.6,31.2,31.8,35.5,54,1.8,9.1,2.2,25,1.5,56.9-.42,19.61,1.77,25.8,9.9,37.5h20.3c-20.38-18.8-16.24-31.5-17.7-64.5-1.06-36.45.29-40.98-15-64.8-2-2.6-3.4-5.3-3-5.9s.3-.8-.3-.5c-1,.7-4.2-2.1-4.1-3.6.15-.74-1.79-2.81-.7-.7,1.18,2.28-4.18-2.82-2.8-3.3.3-.5.1-.7-.5-.3-1.4.8-4.4-2.2-3.6-3.6.4-.7.2-.8-.5-.4-1.3.8-7.8-4.2-7.3-5.6.1-.5-.2-.7-.7-.4-1.2.8-3.3-1.8-2.3-2.9.4-.5.1-.5-.7,0-2.53,1.04-3.83-2.61-8.3-5.4-3.2-2.4-5.5-4.8-5.1-5.4.3-.6.1-.7-.5-.3-1.5.9-8.4-4.3-7.5-5.7.3-.6.1-.7-.5-.3-1.5.9-7.3-3.4-6.5-4.7.3-.6.1-.7-.5-.3-2.61.6-17.41-10.5-19.4-11.6-5.08-3.05-4.07-1.81-11.8-6.7-4.57-3.57-11.57-5.2-11.4-7.3.4-.6.2-.8-.4-.5-1.2.8-4.4-.2-3.7-1.2-9.28-5.34-40.29-17.03-50.3-22.4-2.51-.58-5.4-.44-13.3-3-6.1-1.9-10.6-3.7-9.8-4.1.8-.3.5-.4-.7-.1s-8.6-1-16.5-2.9c-26.09-6.84-43.76-7.6-63.4-6.7Z"/>
  <path d="m889.87,896.53c-7.1,4.4-9.8,9.3-17.8,32.1-22.49,62.81-33.5,81.45-73.3,110.5-14.8,9.7-17.5,12.2-22.6,21-10.59,21.04-37.19,44.12-65.9,65.5h27.4c19.53-19.85,42.76-45.52,49.1-60.8,4.6-9,8.8-13.8,18.5-20.6,34.43-25.87,44.77-42.48,64.3-86.1,14.1-31.5,19.5-39.9,27.4-42.5,7.6-2.5,15.3,3,25.1,17.7,12.7,19.4,19.3,46.9,16.5,69.7-7.66,37.56-22.73,97.91-55.7,122.5,7.61-.17,8.26,1.98,15.6-6.8,24.48-23.45,40.29-85.49,46-113.1,6.11-29.23-17.66-124.21-54.6-109.1Z"/>
  <path d="m202.17,904.73c-26.66,8.05-34.52,29.1-39.9,58.4-4.22,15.46-.09,79.41-11.7,90-2.5,4.9-5.7,12.1-7.1,15.9-3.3,8.8-5.5,10.5-15.7,11.8-38.84,5.46-80.63-15.1-126.1-30-1-.3-1.3,3-1.3,14.7,0,8.3.4,15.1.9,15.1,11.63,7.61,22.53,28.81,29.4,45h81.7c.75-5.78,6.25-17.3,8.8-18.9,4.9-2.6,21.8-.4,30.5,4,4.32,2.17,17.17,11.02,23,14.9,10.44-.08,31.46-.33,41.9-.5-8.61-5.6-19.43-12.85-27.2-19.7-16.2-14.1-15.8-12.4-14.8-68.3-.67-33.22-7.83-74.06,4.8-100.2,13.57-35.01,71.54-27.5,93-6.7,16.41,21.31,73.82,85.02,73,117.6,0,11.2,1.6,15.3,6.7,17.6,3.2,1.4,7.9,1.7,31.8,1.8,65.82-1.27,101.21,20.15,155.7,58.4h25.2c-46.91-30.3-100.09-63.96-150.9-69-25.3-3.5-31-4.7-36.9-7.6-8.2-4-11.8-7.4-26.6-25.5-12.6-15.3-19-24.1-53.3-71.9-7.6-10.7-16.2-21.9-19.1-24.8-14.86-17.34-53.16-26.62-75.8-22.1Z"/>
  <path d="m1498.87,922.33c-14.9,1.9-59.1,14.2-70.2,19.4-19.58,12.01-15.46,29.06-13.9,58.8,2,18.2,2,28.3,0,35.2-10.3,25.2-33.77,74-32.6,89.9h19.1c2.12-19.21,7.81-33.72,23.2-66,13.1-27.1,14.4-31.7,13.5-49.5-.9-17.8.7-31.5,4.4-39.2,16.35-26.49,65.12-37.14,95.9-33.5,59.06,3.14,109.11,27.72,144.7,62.3,40.1,39.46,15.61,76.4,19.5,125.9,2.86-.07,15.21.17,15.9-.3,0-.1-.7-3.7-1.5-8-5.35-30.11,11.76-68.79-7.6-102.8-47.44-67.43-131.99-96.35-210.4-92.2Z"/>
  <path d="m219.47,929.73c-56.9,10.91-16.84,128.06,12.3,140.1,8.1,5.2,12.1,5.2,25.8-.6,18.58-7.11,56.14-20.25,61.9-34.8,9.24-22.17-25-60.21-42.2-82.3-16.81-21.18-34.65-24.79-57.8-22.4Z"/>
  <path d="m896.57,953.33c-4.6,2.2-11.1,10.5-17.8,22.6-22.5,40.5-35.4,56.9-58.8,74.9-7.3,5.6-8.4,7.2-15.6,23.3-3.61,9.05-23.3,42.73-25.2,51.5h83.5c19.53-13.84,38.75-33.99,46.2-57,9.6-34.62,28.55-81.42,5.9-110.7-4.7-6.2-11.6-7.9-18.2-4.6Z"/>
  <path d="m1530.87,967.03c-29.23,4.95-39.51,24.77-49,52.7-3.1,10.9-3.2,11.1-12.8,26.2-19.17,30.53-29.66,55.53-31.3,79.7h237.2c1.02-12.1,2.59-26.13,5.6-38.6,3.9-14.95,5.12-38.97.5-51.4-5.1-13.9-14-24.8-28.7-34.7-44.49-31.33-74.72-38.55-121.5-33.9Z"/>
  <path d="m401.67,1092.63c-19.64,3.22-34.08,15.56-21.1,33h57.5c65.8,0,60.8,1,46.5-9.2-21.65-16.02-55.95-27.43-82.9-23.8Z"/>
</svg>