<?xml version="1.0" encoding="utf-8"?>
<!-- Generator: Adobe Illustrator 27.6.1, SVG Export Plug-In . SVG Version: 6.00 Build 0)  -->
<svg version="1.1" id="Layer_1" xmlns="http://www.w3.org/2000/svg" xmlns:xlink="http://www.w3.org/1999/xlink" x="0px" y="0px"
	 viewBox="0 0 69.8 82" style="enable-background:new 0 0 69.8 82;" xml:space="preserve">
<style type="text/css">
	.st0{fill:#48CAE4;}
	.st1{fill:none;stroke:#28A735;}
	.st2{fill:none;stroke:#028216;}
	.st3{fill:none;stroke:#158420;}
	.st4{fill:#7ABA46;}
	.st5{fill:#5BA645;}
	.st6{fill:#EFF321;}
	.st7{fill:#F5A57A;}
	.st8{fill:#F063D5;}
	.st9{fill:#CFE0D7;}
	.st10{fill:#FBE6C1;}
	.st11{fill:#B87C7C;}
	.st12{fill:#7AC2A7;}
	.st13{fill:#FF6B6B;fill-opacity:0.94;}
	.st14{fill:#4DC698;}
	.st15{fill:#FBDBA3;}
	.st16{fill:#F35049;}
	.st17{fill:#C5413F;}
	.st18{fill:#FF5659;}
	.st19{fill:none;stroke:#168134;}
	.st20{fill:#FFF737;}
	.st21{fill:#24DD78;}
	.st22{fill:none;stroke:#04B900;}
	.st23{fill:#48CAE4;fill-opacity:0.66;}
	.st24{fill:#FF5C60;}
</style>
<rect x="15.9" y="51.9" class="st0" width="26.7" height="24"/>
<path class="st1" d="M13.6,25.9c4.1,6.8,11.9,26,10.2,48.8"/>
<path class="st1" d="M13.6,25.9c4.1,6.8,11.9,26,10.2,48.8"/>
<path class="st1" d="M13.6,25.9c4.1,6.8,11.9,26,10.2,48.8"/>
<path class="st1" d="M13.6,25.9c4.1,6.8,11.9,26,10.2,48.8"/>
<path class="st2" d="M7,39.6c8-0.9,21.6,5.1,12,36.2"/>
<path class="st1" d="M45.3,28.3c-4.1,6.9-11.9,26.4-10.2,49.6"/>
<path class="st3" d="M24.8,22.8c2.3,7.2,6.6,27.6,5.7,51.9"/>
<path class="st1" d="M46.5,7C36,16.5,16.1,43.4,20.3,75.5"/>
<path class="st4" d="M33.3,10.4C33.3,10.4,33.3,10.4,33.3,10.4c-0.1-0.2-0.2-0.2-0.3-0.3C33,10.1,32.9,10,32.9,10
	c-0.1-0.1-0.1-0.2,0-0.3c0,0,0.1-0.1,0.1-0.1c0.2-0.2,0.4-0.3,0.7-0.3c0.1,0,0.2,0,0.3,0c0.1,0,0.2,0.1,0.3,0.2
	c0,0.1,0.1,0.1,0.1,0.2c0.1,0.1,0.1,0.2,0.2,0.3c0,0.1,0.1,0.1,0.1,0.2c0,0,0,0,0.1,0.1c0,0,0,0,0-0.1c0-0.1,0-0.1,0-0.2
	c0-0.1-0.1-0.1-0.1-0.2c0-0.1-0.1-0.2-0.1-0.2c0,0,0-0.1,0-0.1c0-0.1,0-0.2,0.1-0.2c0,0,0.1,0,0.1-0.1c0.2,0,0.4,0,0.5,0
	c0.3,0,0.5,0.1,0.7,0.1c0,0,0.1,0,0.1,0c0.1,0,0.2,0.1,0.3,0.2c0,0.1,0,0.2,0.1,0.2c0,0.1,0,0.3,0,0.4c0,0.1,0,0.2,0,0.3
	c0,0.1,0,0.1,0.1,0.2c0.1,0.1,0.1,0.1,0.2,0.1c0.1,0,0.1,0,0.1-0.1c0,0,0-0.1,0-0.1c0-0.1,0-0.1-0.1-0.2c0-0.1-0.1-0.2-0.1-0.4
	c0,0,0-0.1,0-0.1c0-0.1,0.1-0.2,0.2-0.2c0.1,0,0.2,0,0.3,0c0.4,0.1,0.8,0.3,1.2,0.5c0.2,0.2,0.5,0.4,0.7,0.6c0.3,0.3,0.6,0.6,0.9,1
	c0.1,0.1,0.2,0.2,0.2,0.4c0,0.1,0.1,0.1,0.1,0.2c0.1,0.1,0.2,0.3,0.4,0.3c0.1,0,0.1,0.1,0.1,0.1c0,0.1,0,0.1,0,0.1
	c0,0.1-0.1,0.1-0.2,0.1c-0.1,0-0.1-0.1-0.2-0.1c-0.1,0-0.1-0.1-0.2-0.1c-0.1,0-0.1,0-0.2,0c-0.1,0-0.1,0-0.2,0.1
	c-0.2,0.1-0.3,0.2-0.5,0.3c-0.2,0.1-0.5,0.2-0.8,0.2c-0.1,0-0.2,0-0.3,0c-0.1,0-0.2,0-0.3-0.1c-0.1-0.1-0.1-0.1-0.1-0.2
	c0,0,0-0.1,0-0.1c0-0.1,0.1-0.1,0.1-0.2c0,0,0.1-0.1,0.1-0.2s0.1-0.1,0.1-0.2c0,0,0-0.1,0-0.1c0-0.1,0-0.1-0.1,0c0,0-0.1,0-0.1,0.1
	c0,0.1-0.1,0.1-0.1,0.2c0,0.1-0.1,0.2-0.1,0.3c0,0,0,0,0,0.1c0,0.1-0.1,0.2-0.2,0.2c-0.1,0-0.3,0.1-0.4,0.1c-0.2,0-0.4,0-0.6,0
	c-0.1,0-0.1,0-0.2,0c-0.1-0.1-0.2-0.1-0.2-0.3c0-0.1,0-0.2,0-0.3c0-0.1,0-0.1,0-0.2c0-0.1,0-0.1,0-0.2c0,0,0-0.1,0-0.1
	c0,0-0.1,0-0.1,0c0,0-0.1,0.1-0.1,0.1c0,0,0,0.1,0,0.1c0,0.1,0,0.2,0,0.3c0,0,0,0.1,0,0.1c0,0.1-0.1,0.2-0.2,0.2c-0.1,0-0.2,0-0.3,0
	c-0.1,0-0.2,0-0.4,0c-0.3,0-0.5-0.1-0.8-0.1c-0.1,0-0.3-0.1-0.4-0.1c-0.1,0-0.2-0.1-0.3-0.1c-0.1,0-0.2-0.1-0.3-0.2
	c0,0-0.1-0.1-0.1-0.1c-0.1-0.1-0.1-0.2-0.1-0.3c0-0.1,0.1-0.1,0.1-0.1c0,0,0.1-0.1,0.1-0.1c0.1,0,0.1-0.1,0.1-0.2c0,0,0-0.1,0-0.1
	c0,0,0-0.1,0-0.1c0,0-0.1-0.1-0.1-0.1c0,0-0.1,0-0.1,0c-0.1,0-0.1,0.1-0.1,0.1c0,0.1-0.1,0.1-0.1,0.2c0,0.1-0.1,0.2-0.1,0.2
	c-0.1,0.1-0.2,0.2-0.4,0.2c-0.1,0-0.2,0-0.3,0c-0.3,0-0.5-0.1-0.8-0.1c-0.1,0-0.1,0-0.2,0c-0.1,0-0.2-0.1-0.2-0.2
	c0-0.1,0-0.2,0.1-0.3c0.1-0.3,0.2-0.5,0.4-0.8c0-0.1,0.1-0.1,0.1-0.2c0.1-0.2,0.2-0.3,0.4-0.5c0,0,0,0,0.1-0.1
	c0.1-0.1,0.2-0.1,0.4-0.1c0.2,0.1,0.4,0.1,0.5,0.2C33.1,10.3,33.1,10.4,33.3,10.4C33.2,10.4,33.3,10.4,33.3,10.4z"/>
<path class="st4" d="M14,37.9C14,37.9,14,37.9,14,37.9c-0.1-0.1-0.1-0.2-0.2-0.2c0,0-0.1-0.1-0.1-0.1c-0.1-0.1-0.1-0.1,0-0.2
	c0,0,0-0.1,0.1-0.1c0.1-0.1,0.3-0.2,0.5-0.2c0.1,0,0.1,0,0.2,0c0.1,0,0.2,0.1,0.2,0.1c0,0,0.1,0.1,0.1,0.1c0,0.1,0.1,0.1,0.1,0.2
	c0,0.1,0.1,0.1,0.1,0.2c0,0,0,0,0,0.1c0,0,0,0,0,0c0,0,0-0.1,0-0.1c0,0,0-0.1-0.1-0.1c0-0.1,0-0.1-0.1-0.2c0,0,0-0.1,0-0.1
	c0-0.1,0-0.1,0.1-0.2c0,0,0.1,0,0.1,0c0.1,0,0.2,0,0.4,0c0.2,0,0.3,0,0.5,0.1c0,0,0,0,0.1,0c0.1,0,0.1,0.1,0.2,0.1
	c0,0.1,0,0.1,0,0.2c0,0.1,0,0.2,0,0.3c0,0.1,0,0.1,0,0.2c0,0,0,0.1,0.1,0.2c0,0,0.1,0.1,0.1,0.1c0.1,0,0.1,0,0.1-0.1
	c0,0,0-0.1,0-0.1c0,0,0-0.1-0.1-0.2c0-0.1-0.1-0.2-0.1-0.3c0,0,0-0.1,0-0.1c0-0.1,0.1-0.1,0.1-0.1c0.1,0,0.1,0,0.2,0
	c0.3,0.1,0.6,0.2,0.8,0.4c0.2,0.1,0.3,0.2,0.5,0.4c0.2,0.2,0.4,0.4,0.6,0.7c0.1,0.1,0.1,0.2,0.2,0.3c0,0,0.1,0.1,0.1,0.1
	c0.1,0.1,0.2,0.2,0.3,0.2c0,0,0.1,0,0.1,0.1c0,0,0,0.1,0,0.1c0,0.1-0.1,0.1-0.1,0c0,0-0.1-0.1-0.1-0.1c0,0-0.1,0-0.1-0.1
	c0,0-0.1,0-0.1,0c0,0-0.1,0-0.1,0.1c-0.1,0.1-0.2,0.1-0.3,0.2c-0.2,0.1-0.3,0.1-0.5,0.2c-0.1,0-0.2,0-0.2,0c-0.1,0-0.1,0-0.2-0.1
	c-0.1,0-0.1-0.1-0.1-0.1c0,0,0,0,0-0.1c0,0,0-0.1,0.1-0.1c0,0,0.1-0.1,0.1-0.1c0,0,0-0.1,0-0.1c0,0,0,0,0-0.1c0,0,0-0.1-0.1,0
	c0,0,0,0-0.1,0c0,0-0.1,0.1-0.1,0.1c0,0.1-0.1,0.1-0.1,0.2c0,0,0,0,0,0c0,0.1-0.1,0.1-0.2,0.1c-0.1,0-0.2,0-0.3,0.1
	c-0.1,0-0.3,0-0.4,0c0,0-0.1,0-0.1,0c-0.1,0-0.1-0.1-0.1-0.2c0-0.1,0-0.1,0-0.2c0,0,0-0.1,0-0.1c0,0,0-0.1,0-0.1c0,0,0,0,0-0.1
	c0,0,0,0-0.1,0c0,0-0.1,0-0.1,0.1c0,0,0,0.1,0,0.1c0,0.1,0,0.2,0,0.2c0,0,0,0.1,0,0.1c0,0.1-0.1,0.1-0.1,0.1c-0.1,0-0.1,0-0.2,0
	c-0.1,0-0.2,0-0.2,0c-0.2,0-0.4-0.1-0.6-0.1c-0.1,0-0.2,0-0.3-0.1c-0.1,0-0.2,0-0.2-0.1c-0.1,0-0.2-0.1-0.2-0.1c0,0-0.1,0-0.1-0.1
	c-0.1-0.1-0.1-0.1,0-0.2c0,0,0-0.1,0.1-0.1c0,0,0.1-0.1,0.1-0.1c0,0,0.1-0.1,0.1-0.1c0,0,0-0.1,0-0.1c0,0,0,0,0-0.1c0,0,0,0-0.1,0
	c0,0-0.1,0-0.1,0c0,0-0.1,0.1-0.1,0.1c0,0-0.1,0.1-0.1,0.1c0,0.1-0.1,0.1-0.1,0.2c0,0.1-0.1,0.2-0.3,0.2c-0.1,0-0.1,0-0.2,0
	c-0.2,0-0.4,0-0.6,0c0,0-0.1,0-0.1,0c-0.1,0-0.2-0.1-0.2-0.1c0-0.1,0-0.1,0-0.2c0.1-0.2,0.2-0.4,0.3-0.5c0-0.1,0.1-0.1,0.1-0.2
	c0.1-0.1,0.2-0.2,0.3-0.3c0,0,0,0,0-0.1c0.1-0.1,0.2-0.1,0.3-0.1c0.1,0,0.2,0.1,0.4,0.2C13.9,37.8,13.9,37.9,14,37.9
	C14,37.9,14,37.9,14,37.9z"/>
<path class="st5" d="M36,29C36,28.9,36,28.9,36,29c-0.1-0.2-0.1-0.2-0.2-0.3c-0.1-0.1-0.1-0.2,0.1-0.3c0,0,0.1-0.1,0.1-0.1
	c0.2-0.1,0.4-0.2,0.6-0.2c0.1,0,0.3,0,0.4,0.1c0.2,0.2,0.4,0.4,0.5,0.6c0.1,0.1,0.1,0.2,0.2,0.3c0,0,0,0,0,0.1l0,0c0,0,0,0,0-0.1
	c0-0.3-0.1-0.5-0.1-0.8c0,0,0-0.1,0-0.1c0-0.1,0-0.2,0.1-0.2c0,0,0.1,0,0.2,0c0.1,0,0.3,0,0.4,0c0.3,0.1,0.6,0.1,1,0.2
	c0.2,0.1,0.4,0.1,0.7,0.2c0.1,0,0.3,0.1,0.4,0.1c0.1,0,0.2,0.1,0.2,0.2c0,0.1,0,0.2,0,0.3c0,0.1,0,0.3,0,0.4c0,0,0,0,0,0
	c0,0,0,0,0,0c0-0.1,0.1-0.2,0.1-0.4c0,0,0,0,0,0c0.1-0.1,0.1-0.2,0.3-0.1c0.1,0,0.2,0.1,0.3,0.1c0.2,0.1,0.4,0.3,0.5,0.5
	c0.5,0.4,0.8,1,1.1,1.6c0.1,0.2,0.2,0.4,0.2,0.7c0,0,0,0,0.1,0.1c0.2,0.1,0.3,0.2,0.5,0.4c0,0,0,0,0.1,0.1c0,0,0,0.1-0.1,0.1
	c0,0,0,0-0.1,0c-0.1,0-0.1-0.1-0.2-0.1c-0.1-0.1-0.2-0.1-0.2-0.2c0,0,0,0-0.1,0c-0.3,0.1-0.5,0.3-0.8,0.3c-0.4,0.1-0.8,0.2-1.2,0.2
	c0,0-0.1,0-0.1,0c0,0,0,0-0.1,0c-0.1,0-0.1-0.1-0.1-0.2c0-0.1,0.1-0.1,0.1-0.2c0.1-0.1,0.1-0.2,0.2-0.4c0,0,0,0,0,0
	c-0.2,0.2-0.3,0.3-0.5,0.5c0,0-0.1,0.1-0.2,0.1c-0.1,0.1-0.2,0.1-0.3,0.1c-0.3,0-0.5-0.1-0.8-0.1c-0.1,0-0.1,0-0.2,0
	c-0.1,0-0.2-0.1-0.1-0.2c0,0,0-0.1,0-0.1c0.1-0.2,0.1-0.4,0.2-0.5c0,0,0,0,0-0.1c0,0,0,0.1-0.1,0.1c-0.1,0.2-0.2,0.3-0.3,0.5
	c0,0.1-0.1,0.1-0.2,0.2c0,0-0.1,0.1-0.1,0.1c-0.1,0-0.1,0.1-0.2,0c0,0-0.1,0-0.1,0c-0.3-0.1-0.5-0.2-0.8-0.3c-0.1,0-0.2-0.1-0.3-0.1
	c0,0,0,0,0,0c-0.1-0.1-0.1-0.2-0.1-0.3c0-0.1,0.1-0.2,0.1-0.2c0.1-0.1,0.2-0.3,0.2-0.4c0,0,0,0,0,0c0,0,0,0,0,0
	c-0.2,0.1-0.3,0.3-0.4,0.5c-0.1,0.1-0.1,0.1-0.2,0.2c0,0-0.1,0.1-0.1,0.1c-0.1,0.1-0.2,0.1-0.3,0c-0.2-0.1-0.3-0.1-0.5-0.2
	c-0.1,0-0.2-0.1-0.2-0.1c0,0-0.1,0-0.1-0.1c-0.1-0.1-0.1-0.1,0-0.2c0-0.1,0.1-0.2,0.1-0.3c0,0,0-0.1,0-0.1c0,0,0,0,0,0
	c-0.1,0.1-0.3,0.2-0.4,0.4c0,0-0.1,0.1-0.1,0.1c-0.1,0.1-0.2,0.1-0.2,0c0,0,0,0-0.1,0c-0.3-0.2-0.5-0.4-0.8-0.5c0,0-0.1,0-0.1-0.1
	c0,0-0.1-0.1-0.1-0.1c0-0.1,0-0.2,0.1-0.3c0.2-0.3,0.4-0.5,0.6-0.8c0.2-0.2,0.4-0.4,0.6-0.5c0.1,0,0.1-0.1,0.2-0.1
	c0.1,0,0.2,0.1,0.3,0.1C35.7,28.9,35.8,29,36,29C36,29,36,29,36,29z M35.9,28.5c0,0.1,0.1,0.1,0.1,0.2c0.1,0.1,0.2,0.3,0.2,0.5
	c0,0,0,0,0,0.1c0,0,0,0.1-0.1,0.1c0,0-0.1,0-0.1,0c0,0-0.1-0.1-0.1-0.1c-0.1-0.1-0.2-0.2-0.4-0.3c-0.1-0.1-0.2-0.1-0.3-0.1
	c0,0-0.1,0-0.1,0c-0.1,0-0.1,0.1-0.2,0.1c-0.4,0.3-0.7,0.6-0.9,1c0,0,0,0,0,0.1c0,0,0,0,0,0c0.2-0.1,0.4-0.1,0.6-0.2
	c0.8-0.1,1.6-0.1,2.3-0.1c0.4,0,0.7,0.1,1.1,0.2c0.3,0.1,0.6,0.1,0.8,0.2c0.2,0,0.4,0.1,0.6,0.2c0.4,0.1,0.7,0.2,1,0.3
	c0.3,0.1,0.6,0.2,0.9,0.4c0.1,0.1,0.3,0.1,0.4,0.2c0.2,0.1,0.5,0.3,0.7,0.4c0,0,0,0,0,0c0,0,0-0.1,0-0.1c-0.1-0.3-0.2-0.6-0.4-0.8
	c-0.3-0.5-0.6-0.9-1-1.2c-0.1-0.1-0.2-0.2-0.3-0.2c0,0-0.1-0.1-0.2-0.1c0,0,0,0.1,0,0.1c-0.1,0.2-0.2,0.4-0.3,0.6c0,0,0,0.1-0.1,0.1
	c0,0,0,0-0.1,0.1c-0.1,0.1-0.2,0-0.2-0.1c0-0.1,0-0.1,0-0.2c0-0.1,0-0.3,0.1-0.4c0-0.1,0-0.3,0-0.5c0-0.1,0-0.1-0.1-0.1
	c-0.2-0.1-0.4-0.1-0.7-0.2c-0.4-0.1-0.8-0.2-1.1-0.3c-0.2,0-0.3,0-0.5-0.1c0,0-0.1,0-0.1,0c0,0.1,0,0.2,0.1,0.2
	c0.1,0.3,0.1,0.5,0.1,0.8c0,0.1,0,0.1,0,0.2c-0.1,0.1-0.2,0.1-0.2,0c0,0,0-0.1-0.1-0.1c-0.1-0.1-0.1-0.3-0.2-0.4
	c-0.1-0.2-0.2-0.4-0.4-0.5c0,0-0.1-0.1-0.1-0.1c0,0-0.1,0-0.1,0C36.5,28.3,36.2,28.4,35.9,28.5C36,28.5,36,28.5,35.9,28.5z
	 M42.8,31.9C42.8,31.9,42.8,31.8,42.8,31.9c-0.2-0.1-0.3-0.2-0.4-0.2c-0.2-0.1-0.4-0.2-0.6-0.3c-0.2-0.1-0.5-0.2-0.7-0.3
	c-0.4-0.2-0.9-0.3-1.3-0.4c-0.5-0.2-1.1-0.3-1.6-0.4c-0.5-0.1-0.9-0.2-1.4-0.2c-0.7-0.1-1.4,0-2,0.1c-0.2,0-0.3,0.1-0.5,0.1
	c0,0,0,0-0.1,0c0.3,0.2,0.6,0.4,0.9,0.6c0,0,0.1-0.1,0.1-0.1c0.2-0.2,0.4-0.3,0.6-0.5c0,0,0.1-0.1,0.2,0c0.1,0,0.1,0.1,0.1,0.2
	c0,0.1,0,0.2-0.1,0.2c0,0.1-0.1,0.2-0.1,0.3c0,0,0,0.1-0.1,0.1c0,0,0.1,0,0.1,0c0.2,0.1,0.5,0.2,0.7,0.3c0,0,0.1,0,0.1,0
	c0,0,0,0,0.1-0.1c0.1-0.1,0.1-0.1,0.2-0.2c0.2-0.2,0.4-0.5,0.7-0.7c0,0,0.1-0.1,0.1-0.1c0.1,0,0.1,0,0.2,0.1c0,0,0,0.1,0,0.1
	c0,0.1,0,0.1-0.1,0.2c0,0.1-0.1,0.2-0.1,0.2c-0.1,0.1-0.2,0.3-0.3,0.4c0,0,0,0,0,0.1c0,0,0.1,0,0.1,0.1c0.2,0.1,0.4,0.1,0.6,0.2
	c0.1,0.1,0.3,0.1,0.4,0.2c0.1,0,0.1,0,0.1,0c0,0,0.1-0.1,0.1-0.1c0.1-0.1,0.1-0.2,0.2-0.3c0.1-0.2,0.3-0.4,0.4-0.6
	c0,0,0.1-0.1,0.1-0.1c0.1,0,0.1,0,0.2,0.1c0,0,0,0.1,0,0.1c0,0.1,0,0.1,0,0.2c-0.1,0.2-0.1,0.5-0.2,0.7c0,0,0,0,0,0.1
	c0.1,0,0.1,0,0.1,0c0.3,0.1,0.5,0.1,0.8,0.1c0.1,0,0.1,0,0.1,0c0,0,0.1-0.1,0.1-0.1c0.2-0.2,0.4-0.4,0.7-0.6c0,0,0,0,0,0
	c0,0,0.1,0,0.1,0s0.1,0.1,0.1,0.1c0,0,0,0.1,0,0.1c-0.1,0.2-0.2,0.4-0.3,0.6c0,0,0,0,0,0.1C41.3,32.4,42.5,32.1,42.8,31.9z"/>
<path class="st5" d="M24.8,30.2C24.8,30.2,24.9,30.2,24.8,30.2c0.2,0,0.3,0,0.3,0.1c0.1,0,0.2,0.1,0.2,0.3c0,0.1,0,0.1,0,0.2
	c-0.1,0.2-0.2,0.4-0.2,0.6c-0.1,0.1-0.2,0.2-0.3,0.2c-0.3,0-0.5,0-0.8,0c-0.1,0-0.2-0.1-0.4-0.1c0,0,0,0-0.1,0l0,0c0,0,0,0,0,0
	c0.2,0.2,0.4,0.3,0.7,0.4c0,0,0.1,0,0.1,0c0.1,0,0.1,0.1,0.1,0.2c0,0.1,0,0.1-0.1,0.1c-0.1,0.1-0.2,0.2-0.3,0.3
	c-0.3,0.2-0.5,0.4-0.8,0.6c-0.2,0.1-0.4,0.3-0.6,0.4c-0.1,0.1-0.2,0.1-0.4,0.2c-0.1,0-0.2,0-0.3,0c-0.1-0.1-0.1-0.1-0.2-0.2
	c-0.1-0.1-0.2-0.2-0.3-0.3c0,0,0,0,0,0c0,0,0,0,0,0c0.1,0.1,0.1,0.2,0.2,0.3c0,0,0,0,0,0c0,0.1,0,0.2-0.1,0.3
	c-0.1,0.1-0.2,0.1-0.3,0.1c-0.2,0.1-0.5,0.1-0.7,0.1c-0.6,0-1.3,0-1.9-0.3c-0.2-0.1-0.4-0.2-0.6-0.3c0,0-0.1,0-0.1,0
	c-0.2,0-0.4,0.1-0.6,0.1c0,0-0.1,0-0.1,0c-0.1,0-0.1-0.1,0-0.1c0,0,0,0,0,0c0.1,0,0.1,0,0.2-0.1c0.1,0,0.2,0,0.3-0.1c0,0,0,0,0,0
	c0.1-0.3,0.2-0.6,0.3-0.8c0.2-0.4,0.4-0.7,0.7-1c0,0,0.1-0.1,0.1-0.1c0,0,0,0,0,0c0.1-0.1,0.2,0,0.2,0.1c0,0.1,0,0.2,0.1,0.3
	c0,0.1,0.1,0.3,0.2,0.4c0,0,0,0,0-0.1c0-0.2,0-0.4,0-0.7c0-0.1,0-0.1,0-0.2c0-0.1,0.1-0.2,0.1-0.3c0.2-0.2,0.4-0.3,0.6-0.5
	c0,0,0.1-0.1,0.1-0.1c0.1-0.1,0.2,0,0.3,0.1c0,0,0,0.1,0.1,0.1c0.1,0.2,0.2,0.3,0.3,0.5c0,0,0,0,0,0c0,0,0-0.1,0-0.1
	c-0.1-0.2-0.1-0.4-0.2-0.6c0-0.1,0-0.2,0-0.2c0,0,0-0.1,0-0.1c0-0.1,0.1-0.1,0.1-0.2c0,0,0.1,0,0.1-0.1c0.2-0.1,0.5-0.3,0.7-0.4
	c0.1,0,0.2-0.1,0.3-0.1c0,0,0,0,0,0c0.1,0,0.2,0,0.2,0.1c0,0.1,0.1,0.2,0.1,0.3c0,0.1,0.1,0.3,0.1,0.4c0,0,0,0,0,0c0,0,0,0,0,0
	c0-0.2,0-0.4-0.1-0.6c0-0.1,0-0.2,0-0.3c0,0,0-0.1,0-0.1c0-0.1,0.1-0.2,0.1-0.2c0.2-0.1,0.3-0.2,0.5-0.3c0.1,0,0.2-0.1,0.2-0.1
	c0,0,0.1,0,0.1,0c0.1,0,0.2,0,0.2,0.1c0.1,0.1,0.1,0.2,0.2,0.3c0,0,0,0.1,0.1,0.1c0,0,0,0,0,0c0-0.2,0-0.4,0-0.5c0-0.1,0-0.1,0-0.2
	c0-0.1,0.1-0.2,0.2-0.2c0,0,0.1,0,0.1,0c0.3-0.1,0.7-0.2,1-0.3c0,0,0.1,0,0.1,0c0.1,0,0.1,0,0.1,0c0.1,0.1,0.1,0.2,0.1,0.3
	c0.1,0.3,0.2,0.6,0.2,0.9c0,0.3,0,0.5,0,0.8c0,0.1,0,0.1-0.1,0.2c-0.1,0.1-0.2,0.1-0.3,0.2C25,30.1,24.9,30.1,24.8,30.2
	C24.8,30.2,24.8,30.2,24.8,30.2z M25.1,30.5c-0.1,0-0.2,0-0.2,0c-0.2,0-0.3-0.1-0.5-0.2c0,0,0,0-0.1,0c0,0-0.1-0.1,0-0.1
	c0-0.1,0-0.1,0.1-0.1c0.1,0,0.1,0,0.1,0c0.2,0,0.3,0,0.5-0.1c0.1,0,0.2-0.1,0.3-0.1c0,0,0-0.1,0.1-0.1c0-0.1,0-0.1,0-0.2
	c0-0.5,0-0.9-0.2-1.4c0,0,0,0,0-0.1c0,0,0,0,0,0c-0.1,0.2-0.2,0.4-0.3,0.6c-0.4,0.7-0.9,1.3-1.5,1.8c-0.3,0.2-0.6,0.5-0.8,0.7
	c-0.2,0.2-0.5,0.3-0.7,0.5c-0.2,0.1-0.3,0.2-0.5,0.3c-0.3,0.2-0.6,0.4-0.9,0.6c-0.3,0.2-0.6,0.3-0.9,0.5c-0.1,0.1-0.3,0.1-0.4,0.2
	c-0.2,0.1-0.5,0.2-0.7,0.3c0,0,0,0,0,0c0,0,0.1,0,0.1,0c0.3,0.1,0.6,0.2,0.9,0.3c0.5,0.1,1.1,0.1,1.6,0.1c0.1,0,0.3-0.1,0.4-0.1
	c0.1,0,0.1,0,0.2-0.1c0,0,0-0.1,0-0.1c-0.1-0.2-0.2-0.4-0.3-0.6c0,0,0-0.1,0-0.1c0,0,0-0.1,0-0.1c0-0.1,0.1-0.2,0.2-0.1
	c0,0,0.1,0.1,0.1,0.1c0.1,0.1,0.2,0.2,0.3,0.3c0.1,0.1,0.2,0.2,0.3,0.3c0.1,0,0.1,0,0.2,0c0.2-0.1,0.4-0.2,0.6-0.4
	c0.3-0.2,0.7-0.4,1-0.7c0.1-0.1,0.2-0.2,0.4-0.3c0,0,0,0,0.1-0.1c-0.1,0-0.1-0.1-0.2-0.1c-0.2-0.1-0.5-0.3-0.6-0.5
	c0,0-0.1-0.1-0.1-0.1c0-0.1,0-0.2,0.1-0.2c0,0,0.1,0,0.1,0c0.2,0,0.3,0.1,0.4,0.1c0.2,0.1,0.4,0.1,0.6,0.1c0.1,0,0.1,0,0.2,0
	c0.1,0,0.1,0,0.1-0.1C25,31,25.1,30.8,25.1,30.5C25.1,30.6,25.1,30.5,25.1,30.5z M18.1,33.4C18.1,33.4,18.1,33.4,18.1,33.4
	c0.2,0,0.3-0.1,0.4-0.1c0.2-0.1,0.4-0.2,0.6-0.2c0.2-0.1,0.5-0.2,0.7-0.3c0.4-0.2,0.8-0.4,1.2-0.7c0.5-0.3,0.9-0.6,1.4-1
	c0.4-0.3,0.7-0.6,1.1-0.9c0.5-0.5,0.9-1,1.3-1.6c0.1-0.1,0.2-0.3,0.2-0.5c0,0,0,0,0-0.1c-0.3,0.1-0.7,0.2-1,0.3c0,0,0,0.1,0,0.1
	c0,0.2,0,0.5,0,0.8c0,0.1,0,0.1-0.1,0.1c-0.1,0-0.1,0-0.2-0.1c0-0.1-0.1-0.1-0.1-0.2c0-0.1-0.1-0.2-0.1-0.3c0,0,0-0.1-0.1-0.1
	c0,0-0.1,0-0.1,0c-0.2,0.1-0.5,0.2-0.7,0.3c0,0,0,0,0,0.1c0,0,0,0.1,0,0.1c0,0.1,0,0.2,0,0.3c0.1,0.3,0.1,0.6,0.1,0.9
	c0,0,0,0.1,0,0.1c0,0.1-0.1,0.1-0.2,0.1c0,0,0,0-0.1,0c-0.1,0-0.1-0.1-0.1-0.2c0-0.1-0.1-0.2-0.1-0.3c-0.1-0.2-0.1-0.3-0.1-0.5
	c0,0,0,0,0-0.1c0,0-0.1,0-0.1,0.1c-0.2,0.1-0.3,0.2-0.5,0.3c-0.1,0.1-0.3,0.1-0.4,0.2C21,30,21,30,21,30.1c0,0,0,0.1,0,0.1
	c0,0.1,0,0.2,0.1,0.3c0.1,0.2,0.1,0.5,0.2,0.7c0,0,0,0.1,0,0.1c0,0.1-0.1,0.1-0.2,0.1c0,0-0.1,0-0.1-0.1c0-0.1-0.1-0.1-0.1-0.2
	c-0.1-0.2-0.3-0.4-0.4-0.6c0,0,0,0,0,0c0,0-0.1,0-0.1,0.1c-0.2,0.2-0.4,0.3-0.6,0.5c0,0-0.1,0.1-0.1,0.1c0,0.1,0,0.1,0,0.2
	c0,0.3,0,0.6,0,0.9c0,0,0,0,0,0c0,0,0,0.1-0.1,0.1s-0.1,0-0.1,0c0,0-0.1-0.1-0.1-0.1c-0.1-0.2-0.2-0.4-0.3-0.6c0,0,0,0,0-0.1
	C18.7,32,18.1,33,18.1,33.4z"/>
<path class="st6" d="M26.8,8.5C26.8,8.5,26.8,8.5,26.8,8.5C26.8,8.6,26.8,8.6,26.8,8.5c-0.1,0.3-0.2,0.6-0.3,0.8
	c-0.2,0.4-0.5,0.8-0.8,1.1c-0.3,0.3-0.6,0.6-0.9,0.9c-0.3,0.3-0.6,0.6-0.9,0.9c0,0-0.1,0.1-0.1,0.1c0,0,0,0,0,0c0,0-0.1,0.1-0.1,0.1
	c-0.1,0.1-0.1,0.2-0.2,0.3c-0.3,0.5-0.4,1-0.4,1.5c0,0.1,0,0.2,0.1,0.3c0,0,0,0,0.1,0c0.2,0,0.4,0.1,0.6,0.2
	c0.2,0.1,0.3,0.2,0.5,0.2c0,0,0.1,0,0.1,0c0.1,0,0.2,0.1,0.4,0.1c0.2,0.1,0.3,0.2,0.4,0.3c0,0,0,0,0.1,0c0.1,0,0.1-0.1,0.2-0.1
	c0.3-0.2,0.5-0.4,0.7-0.6c0.1-0.1,0.1-0.2,0.2-0.3c0.4-0.7,0.7-1.4,0.8-2.2c0-0.2,0-0.5,0-0.7c0-0.2,0-0.5-0.1-0.7
	c0-0.2-0.1-0.5-0.1-0.7c-0.1-0.5-0.2-0.9-0.2-1.4C26.8,8.8,26.8,8.7,26.8,8.5z"/>
<path class="st6" d="M31.4,12.6C31.3,12.6,31.3,12.6,31.4,12.6c-0.5,0.2-1,0.2-1.5,0.3c-0.2,0-0.5,0-0.7,0c-0.3,0-0.6,0-0.9,0.1
	c-0.3,0-0.5,0.1-0.7,0.3c0,0-0.1,0.1-0.1,0.1c-0.2,0.6-0.5,1.1-0.9,1.6c-0.1,0.1-0.2,0.3-0.3,0.4c-0.2,0.2-0.4,0.3-0.7,0.5
	c0,0,0,0,0,0.1c0.2,0.3,0.2,0.6,0.2,1c0,0,0,0,0,0c0.1,0,0.2,0,0.2,0c0.3,0,0.6,0,0.9-0.1c0.7-0.1,1.4-0.4,2-0.7
	c0.2-0.1,0.4-0.3,0.6-0.4c0.2-0.2,0.4-0.4,0.6-0.7c0.2-0.2,0.3-0.5,0.4-0.7C30.7,13.6,31,13.1,31.4,12.6
	C31.3,12.6,31.4,12.6,31.4,12.6z"/>
<path class="st6" d="M15.9,16.4C15.9,16.4,15.9,16.4,15.9,16.4c0,0.1,0.1,0.1,0.1,0.1c0.2,0.2,0.5,0.3,0.7,0.5
	c0.4,0.2,0.8,0.5,1.1,0.7c0.2,0.1,0.4,0.3,0.6,0.4c0.4,0.2,0.8,0.3,1.2,0.3c0.1,0,0.2,0,0.4,0c0.3,0,0.7-0.1,1-0.2
	c0.2-0.1,0.4-0.2,0.6-0.2c0,0,0,0,0-0.1c0-0.1,0-0.2,0-0.3c0-0.2,0-0.4,0-0.6c0-0.1,0-0.2,0-0.3c0-0.2,0.1-0.4,0.2-0.6c0,0,0,0,0,0
	c-0.1,0-0.1,0-0.2,0c-0.1-0.1-0.3-0.1-0.4-0.2c-0.3-0.1-0.6-0.1-0.9-0.1c-0.3,0-0.6,0.1-0.9,0.2c-0.4,0.1-0.7,0.2-1.1,0.3
	c-0.6,0.2-1.3,0.3-2,0.3c-0.2,0-0.3,0-0.4,0C16,16.4,16,16.4,15.9,16.4z"/>
<path class="st6" d="M28.9,23.3C28.9,23.3,28.9,23.2,28.9,23.3c-0.2-0.4-0.3-0.6-0.4-0.9c-0.2-0.5-0.3-0.9-0.4-1.4
	c-0.2-0.7-0.5-1.3-0.9-1.9c-0.2-0.4-0.6-0.8-0.9-1.1c-0.2-0.2-0.5-0.4-0.8-0.6c0,0,0,0,0,0.1c-0.1,0.3-0.4,0.5-0.7,0.6
	c0,0,0,0-0.1,0c0,0,0,0.1-0.1,0.1c0,0,0,0-0.1,0.1c0,0,0,0,0,0c0.1,0.1,0.1,0.2,0.2,0.3c0.1,0.4,0.3,0.7,0.4,1.1
	c0.3,0.7,0.7,1.4,1.2,1.9c0.4,0.4,0.7,0.7,1.2,1C28,22.7,28.5,23,28.9,23.3C28.9,23.3,28.9,23.3,28.9,23.3z"/>
<path class="st6" d="M18.9,9.2c0,0,0,0.1,0,0.1c0,0.2,0,0.4,0,0.5c0,0.4,0,0.9,0.1,1.3c0,0.3,0.1,0.7,0.2,1c0.1,0.5,0.3,1,0.5,1.5
	c0.3,0.5,0.7,1,1.2,1.4c0.3,0.2,0.7,0.5,1,0.6c0,0,0.1,0,0.1,0.1c0,0,0,0,0.1,0c0,0,0.1-0.1,0.2-0.1c0,0,0,0,0.1-0.1
	c0.1-0.3,0.2-0.5,0.4-0.7c0,0,0,0,0,0c0-0.2-0.1-0.3-0.1-0.5c-0.1-0.5-0.3-0.9-0.6-1.2c-0.2-0.2-0.4-0.4-0.6-0.5
	c-0.2-0.2-0.5-0.3-0.7-0.5c-0.2-0.2-0.4-0.5-0.6-0.7c-0.5-0.6-0.9-1.2-1.2-1.9C19,9.3,19,9.3,18.9,9.2z"/>
<path class="st6" d="M23,18.6C23,18.6,22.9,18.6,23,18.6c-0.2,0-0.4,0-0.5,0c-0.3-0.1-0.5-0.2-0.7-0.4c0,0,0,0-0.1,0
	c-0.1,0.1-0.2,0.2-0.3,0.2c-0.3,0.2-0.5,0.4-0.7,0.6c-0.4,0.4-0.6,0.8-0.9,1.2c0,0,0,0.1-0.1,0.1c-0.4,0.7-0.8,1.4-1.4,2
	c0,0,0,0,0,0c0,0,0.1,0,0.2,0c0.2,0,0.3,0,0.4,0c0.3,0,0.6-0.1,0.9-0.1c0.5-0.2,0.9-0.4,1.3-0.7c0.4-0.3,0.7-0.6,1-0.9
	c0.4-0.4,0.6-0.8,0.8-1.3C22.9,19.2,22.9,18.9,23,18.6z"/>
<path class="st6" d="M24.3,18.4c-0.2,0.1-0.4,0.1-0.6,0.1c-0.2,0-0.3,0.1-0.5,0.1c0,0,0,0,0,0c0,0.1,0,0.1,0,0.2c0,0,0,0.1,0,0.1
	c0,0.3-0.1,0.5-0.2,0.8c-0.2,0.4-0.4,0.8-0.7,1.1c-0.1,0.2-0.3,0.3-0.5,0.5c0,0,0,0.1,0,0.1c0,0.2,0,0.3,0.1,0.5
	c0.1,0.2,0.2,0.5,0.3,0.7c0.1,0.3,0.3,0.6,0.4,0.9c0,0.1,0,0.2,0.1,0.3c0,0,0,0,0,0c0,0,0-0.1,0.1-0.1c0.2-0.5,0.5-0.9,0.8-1.3
	c0.2-0.2,0.4-0.4,0.5-0.7c0.1-0.2,0.2-0.4,0.3-0.6c0.1-0.3,0.2-0.7,0.2-1c0-0.3,0-0.6,0-0.9c0-0.2,0-0.4-0.1-0.5
	C24.3,18.6,24.3,18.5,24.3,18.4z"/>
<path class="st6" d="M31.3,20C31.3,20,31.3,20,31.3,20c-0.1-0.2-0.2-0.3-0.3-0.5c-0.1-0.1-0.2-0.2-0.3-0.3c-0.2-0.2-0.5-0.5-0.8-0.7
	c-0.3-0.2-0.5-0.4-0.8-0.7c-0.2-0.2-0.4-0.3-0.5-0.5c-0.3-0.2-0.6-0.4-0.9-0.5c0,0-0.1,0-0.1,0c-0.2,0.1-0.4,0.1-0.6,0.1
	c-0.4,0.1-0.8,0.1-1.3,0.1c0,0,0,0,0.1,0c0.1,0.1,0.2,0.1,0.3,0.2c0,0,0.1,0.1,0.2,0.1c0.3,0.2,0.6,0.5,0.9,0.8
	c0.3,0.3,0.6,0.7,0.8,1.1c0,0.1,0.1,0.1,0.1,0.2c0,0,0,0,0,0c0.1,0,0.3,0,0.4,0.1c0.2,0,0.5,0,0.7,0c0.5,0,1,0.1,1.4,0.2
	C30.8,19.8,31,19.9,31.3,20C31.3,20,31.3,20,31.3,20z"/>
<path class="st6" d="M21.9,8.5c0,0.1,0,0.2-0.1,0.4c-0.1,0.3-0.1,0.5-0.1,0.8c-0.1,0.4-0.2,0.7-0.2,1.1c0,0.2-0.1,0.5,0,0.7
	c0,0.2,0,0.4,0.1,0.6c0,0,0,0.1,0.1,0.1c0.1,0,0.1,0.1,0.2,0.2c0.3,0.2,0.5,0.5,0.7,0.7c0.2,0.3,0.3,0.5,0.4,0.8c0,0,0,0,0,0
	c0,0,0,0,0,0c0-0.4,0.2-0.7,0.4-1c0.1-0.2,0.2-0.3,0.3-0.5c0-0.1,0.1-0.1,0-0.2c0,0,0,0,0,0c0-0.1,0-0.3-0.1-0.4
	c-0.1-0.3-0.2-0.6-0.4-0.9c-0.2-0.3-0.3-0.5-0.5-0.8C22.4,9.6,22.1,9.1,21.9,8.5C21.9,8.5,21.9,8.5,21.9,8.5z"/>
<path class="st6" d="M20.9,18.3C20.9,18.3,20.8,18.3,20.9,18.3c-0.5,0.1-0.9,0.2-1.3,0.2c-0.4,0-0.9-0.1-1.2-0.2c0,0-0.1,0-0.1,0
	c-0.1,0.1-0.2,0.2-0.3,0.2c-0.3,0.3-0.6,0.5-0.8,0.8c-0.2,0.2-0.4,0.5-0.7,0.7c-0.2,0.1-0.3,0.2-0.5,0.3c0,0,0,0,0,0
	c0.1,0,0.1,0,0.2,0c0.2,0,0.5,0,0.7,0c0.2,0,0.4,0,0.6,0c0.2,0,0.4,0,0.7-0.1c0.5-0.1,0.9-0.3,1.4-0.4c0,0,0,0,0.1-0.1
	c0.1-0.1,0.2-0.3,0.3-0.4c0.3-0.4,0.7-0.8,1.1-1.1C20.8,18.4,20.9,18.4,20.9,18.3z"/>
<path class="st6" d="M25.3,24.3C25.3,24.3,25.3,24.3,25.3,24.3C25.3,24.2,25.3,24.2,25.3,24.3c0-0.3,0.1-0.5,0.2-0.7
	c0.1-0.2,0.2-0.4,0.3-0.6c0.1-0.3,0.2-0.6,0.3-1c0,0,0-0.1,0-0.1c-0.1-0.1-0.2-0.2-0.2-0.3c-0.2-0.3-0.3-0.5-0.5-0.8
	c-0.2-0.4-0.3-0.7-0.5-1.1c0,0,0,0,0-0.1c0,0,0,0,0,0c0,0.2,0,0.5,0,0.7c-0.1,0.5-0.2,0.9-0.5,1.4c0,0.1,0,0.1,0,0.2
	c0.1,0.3,0.2,0.6,0.4,0.9c0.1,0.1,0.2,0.2,0.2,0.4c0.2,0.3,0.3,0.6,0.4,0.8C25.2,24.1,25.2,24.1,25.3,24.3
	C25.3,24.2,25.3,24.3,25.3,24.3z"/>
<path class="st6" d="M16.8,13.7C16.8,13.8,16.8,13.8,16.8,13.7c0.2,0.2,0.4,0.4,0.5,0.6c0.2,0.2,0.3,0.4,0.5,0.6
	c0.2,0.2,0.3,0.3,0.5,0.5c0.1,0.1,0.3,0.1,0.4,0.2c0.1,0,0.1,0,0.2,0c0.4-0.1,0.8-0.3,1.2-0.3c0.2,0,0.4,0,0.6,0c0,0,0,0,0,0
	c0,0,0,0,0,0c-0.4-0.3-0.7-0.6-1-1c0-0.1-0.1-0.1-0.2-0.1C19.5,14,19.3,14,19.2,14c-0.2-0.1-0.4-0.1-0.7-0.1c-0.3,0-0.5,0-0.8,0
	c-0.2,0-0.4,0-0.6-0.1C17.1,13.8,16.9,13.8,16.8,13.7z"/>
<path class="st7" d="M22.8,16.8C22.8,16.8,22.8,16.8,22.8,16.8c-0.2,0.2-0.2,0.4-0.2,0.6c0,0.2,0.1,0.3,0.2,0.4
	c0.2,0.1,0.6,0.1,0.9-0.1c0,0,0,0,0.1-0.1c0.1-0.1,0.2-0.1,0.3-0.2c0.1,0,0.2,0,0.3-0.1c0.1,0,0.3,0,0.4,0c0.1,0,0.2-0.1,0.2-0.2
	C25,17,25,16.9,25,16.8c0-0.1-0.1-0.2-0.2-0.3c-0.1,0-0.2-0.1-0.4-0.1c-0.2-0.1-0.3-0.2-0.5-0.3c0,0-0.1-0.1-0.1-0.1
	c0,0-0.1-0.1-0.1-0.1c-0.1,0-0.2,0-0.4,0c-0.3,0-0.4,0.2-0.4,0.4c0,0.2,0,0.4,0.1,0.5c0,0.1,0.1,0.1,0.2,0.2c0,0,0,0,0.1,0
	c0,0,0,0,0,0c0.1-0.2,0.4-0.2,0.6-0.1c0.1,0.1,0.1,0.2,0,0.4c-0.1,0.1-0.1,0.1-0.2,0.1c-0.4,0.1-0.7-0.1-0.9-0.4
	C22.9,16.8,22.8,16.8,22.8,16.8z"/>
<path class="st7" d="M24.3,17.8c0.1,0,0.3,0,0.4,0c0.3-0.1,0.5-0.2,0.6-0.5c0-0.1,0-0.2,0.1-0.3c0-0.2,0-0.3,0-0.5
	c-0.1-0.2-0.1-0.4-0.2-0.5c0-0.1-0.1-0.2-0.2-0.3c-0.1-0.1-0.2-0.2-0.4-0.3c-0.1,0-0.2,0-0.3-0.1c-0.2,0-0.4-0.1-0.5-0.2
	c0,0-0.1-0.1-0.1-0.1c-0.1-0.1-0.2-0.1-0.3-0.1c0,0,0,0,0,0c-0.2,0-0.3,0.1-0.4,0.2c-0.1,0.1-0.1,0.2-0.1,0.3
	c-0.1,0.2-0.1,0.5,0,0.7c0,0,0,0.1,0,0.1c0,0,0-0.1,0.1-0.1c0.1-0.2,0.2-0.3,0.4-0.4s0.4-0.1,0.6-0.1c0.2,0,0.3,0.1,0.4,0.1
	c0.1,0,0.1,0.1,0.2,0.1c0.1,0.1,0.2,0.2,0.3,0.2c0.1,0.1,0.2,0.1,0.4,0.2c0.1,0.1,0.2,0.2,0.2,0.3c0,0.2,0,0.3,0,0.5
	c0,0.1-0.1,0.2-0.2,0.3c-0.1,0.1-0.2,0.1-0.3,0.2c-0.1,0-0.3,0.1-0.4,0.1C24.4,17.7,24.3,17.7,24.3,17.8z"/>
<path class="st7" d="M24.5,18C24.4,18,24.4,18,24.5,18c-0.2,0-0.4,0-0.6-0.1c0,0,0,0-0.1,0c-0.1,0-0.1,0-0.2,0c-0.1,0-0.3,0-0.4,0
	c-0.3,0-0.5-0.1-0.7-0.3c-0.1-0.1-0.2-0.2-0.2-0.3c0,0,0-0.1,0-0.1c0-0.1,0-0.2,0.1-0.3c0-0.1,0.1-0.2,0.2-0.2c0,0,0-0.1,0-0.1
	c0,0,0,0,0,0c-0.1-0.2-0.1-0.3-0.2-0.5c0,0,0-0.1,0-0.2c0,0,0,0,0,0c-0.2,0.2-0.3,0.5-0.3,0.8c0,0.1,0,0.3,0,0.4c0,0.2,0,0.3,0,0.5
	c0,0.1,0.1,0.3,0.1,0.4c0.1,0.1,0.2,0.2,0.3,0.3c0.2,0.1,0.5,0.1,0.7,0.1c0.2,0,0.3,0,0.4-0.1c0.2,0,0.3-0.1,0.5-0.1
	c0.1,0,0.1-0.1,0.2-0.1C24.4,18.1,24.4,18.1,24.5,18z"/>
<path class="st8" d="M8.9,38.1c1.1-0.7,2.5-1.8,2.4-3.1c-0.1-1.3-2.4-0.3-3.9,1.1c0.2-1.4,0.2-3.2-0.8-3.9c-1.1-0.7-1.7,1.7-1.7,3.9
	c-0.9-1-2.3-2.2-3.4-1.8c-1.2,0.4,0.2,2.5,1.9,3.8c-1.3,0.2-3,0.5-3.4,1.7c-0.4,1.3,2,1.4,4,0.8c-0.7,1.2-1.5,2.8-0.9,3.8
	c0.7,1.1,2.3-0.8,3.1-2.8c0.4,1.3,1.2,3,2.3,3.1c1.3,0.2,0.8-2.4-0.1-4.3c1.3,0.5,2.9,0.9,3.7,0.1C13.1,39.8,10.9,38.5,8.9,38.1z"/>
<path class="st9" d="M8.4,33.4c-0.5,0.7-0.7,1.8-0.7,2c0,0.1,0.1,0.1,0.2,0C9.4,33.5,9.2,32.3,8.4,33.4z"/>
<path class="st9" d="M3.5,33.7c0.2,0.9,0.8,1.7,1.1,1.8c0.1,0,0.2-0.1,0.1-0.2C4.3,32.9,3.2,32.3,3.5,33.7z"/>
<path class="st9" d="M2.7,38.1c0.1-0.1,0.1-0.2,0-0.2c-2.1-1.1-3.2-0.6-2,0C1.5,38.2,2.5,38.2,2.7,38.1z"/>
<path class="st9" d="M3.3,41.1c-2.1,1-2.4,2.2-1.2,1.6c0.8-0.4,1.4-1.2,1.4-1.5C3.5,41.1,3.4,41.1,3.3,41.1z"/>
<path class="st9" d="M6.1,42.7c-0.5,2.4,0.1,3.4,0.4,2.1c0.2-0.9-0.1-1.9-0.2-2.1C6.2,42.5,6.1,42.6,6.1,42.7z"/>
<path class="st9" d="M9,41.1c-0.1,0-0.1,0.1-0.1,0.2c1.4,1.9,2.6,2,1.8,0.9C10.2,41.5,9.3,41.1,9,41.1z"/>
<path class="st9" d="M11.6,37.2c-0.9,0-1.8,0.5-1.9,0.7c-0.1,0.1,0,0.2,0.1,0.2C12.1,38.1,12.9,37.2,11.6,37.2z"/>
<path class="st10" d="M6.2,37.3c-0.7,0-1.5,0.6-1.5,1.4c0,0.8,0.7,1.7,1.5,1.7c0.8,0,1.5-0.8,1.5-1.6C7.7,38,7,37.3,6.2,37.3z"/>
<path class="st11" d="M5.3,38.8c0-0.1-0.1-0.2-0.2-0.2c-0.1,0-0.2,0.1-0.2,0.2C4.9,38.9,5,39,5.1,39C5.3,39,5.4,38.9,5.3,38.8z"/>
<path class="st11" d="M6.8,38.9c0-0.1-0.1-0.2-0.2-0.2c-0.1,0-0.2,0.1-0.2,0.2s0.1,0.2,0.2,0.2C6.7,39.1,6.8,39,6.8,38.9z"/>
<path class="st11" d="M6.1,38.3c0.1,0,0.2-0.2,0.1-0.3c0-0.1-0.1-0.2-0.2-0.2c-0.1,0-0.2,0.2-0.2,0.3C5.8,38.3,6,38.4,6.1,38.3z"/>
<path class="st11" d="M6,39.7c-0.1,0.1-0.1,0.2,0,0.3c0.1,0.1,0.2,0.1,0.3,0c0.1-0.1,0.1-0.2,0.1-0.3C6.3,39.7,6.1,39.6,6,39.7z"/>
<path class="st11" d="M7.3,38.7c-0.1,0-0.2,0.1-0.2,0.2c0,0.1,0.1,0.2,0.2,0.2c0.1,0,0.2-0.1,0.2-0.2C7.5,38.8,7.4,38.7,7.3,38.7z"
	/>
<path class="st11" d="M5.4,38.2c0.1,0,0.2-0.1,0.2-0.2c0-0.1-0.1-0.2-0.2-0.2c-0.1,0-0.2,0.1-0.2,0.2C5.2,38.1,5.3,38.3,5.4,38.2z"
	/>
<path class="st11" d="M6.6,37.8c0-0.1,0-0.2-0.1-0.3c-0.1,0-0.2,0-0.3,0.1c0,0.1,0,0.2,0.1,0.3C6.4,37.9,6.5,37.9,6.6,37.8z"/>
<path class="st11" d="M6.1,38.9c0-0.1-0.1-0.2-0.2-0.2c-0.1,0-0.2,0.1-0.2,0.2c0,0.1,0.1,0.2,0.2,0.2C6.1,39.1,6.2,39,6.1,38.9z"/>
<path class="st11" d="M6.9,39.4c-0.1,0-0.2,0.1-0.2,0.2c0,0.1,0.1,0.2,0.2,0.2c0.1,0,0.2-0.1,0.2-0.2C7.1,39.6,7,39.4,6.9,39.4z"/>
<path class="st11" d="M5.5,39.3c-0.1,0-0.2,0.1-0.2,0.2c0,0.1,0.1,0.2,0.2,0.2c0.1,0,0.2-0.1,0.2-0.2C5.7,39.4,5.6,39.3,5.5,39.3z"
	/>
<path class="st11" d="M7.1,38.4c0.1,0,0.2-0.2,0.1-0.3C7.2,38,7,37.9,6.9,38c-0.1,0-0.2,0.2-0.1,0.3C6.9,38.3,7,38.4,7.1,38.4z"/>
<path class="st12" d="M50.6,5.2c1.1-0.6,2.4-1.6,2.3-2.7c-0.1-1.2-2.3-0.3-3.8,0.9c0.1-1.2,0.2-2.8-0.7-3.4c-1-0.6-1.6,1.5-1.6,3.4
	c-0.9-0.9-2.2-1.9-3.2-1.6c-1.2,0.4,0.2,2.2,1.8,3.3c-1.3,0.1-2.9,0.5-3.3,1.5C41.7,7.9,44,8,45.9,7.5c-0.7,1-1.4,2.5-0.9,3.4
	c0.7,1,2.2-0.7,3-2.4c0.4,1.2,1.1,2.6,2.2,2.7c1.2,0.1,0.8-2.1-0.1-3.8c1.2,0.4,2.8,0.8,3.6,0C54.7,6.7,52.6,5.6,50.6,5.2z M48,0.9
	c0.4,0,0.5,0.8,0.2,2.2c-0.1,0.3-0.2,0.2-0.3,0C47.3,1,48,0.9,48,0.9z M45.2,6.6C43.2,7.6,43,7,43,7c-0.1-0.3,0.7-0.7,2.2-0.7
	C45.4,6.3,45.4,6.5,45.2,6.6z M45.7,4.2c-2-0.9-1.7-1.4-1.7-1.4c0.2-0.3,1,0.2,1.9,1.2C46,4.2,45.9,4.3,45.7,4.2z M46.9,8.4
	c-0.4,2.1-1,1.9-1.1,1.9c-0.3-0.2-0.1-1,0.8-2C46.8,8.1,46.9,8.2,46.9,8.4z M48,7.1c-0.7,0-1.4-0.7-1.4-1.4s0.7-1.1,1.4-1.1
	c0.7,0,1.4,0.6,1.4,1.2S48.7,7.1,48,7.1z M50.3,10.3c-0.3,0.2-0.8-0.6-1.2-1.9c-0.1-0.3,0.1-0.3,0.3-0.1
	C50.8,10,50.3,10.3,50.3,10.3z M50.2,4C51.5,2.3,52,2.7,52,2.8c0.2,0.3-0.4,0.9-1.6,1.5C50.1,4.4,50.1,4.2,50.2,4z M53.1,7
	c-0.1,0.3-1,0.3-2.2-0.3c-0.3-0.1-0.2-0.3,0.1-0.3C53.1,6.3,53.1,6.9,53.1,7z"/>
<path class="st13" d="M12.3,15.1c-0.2,0.1-0.4,0.1-0.6,0.2c0.2-6-4.7-5.5-5.2-0.7c0,0.2,0,0.5,0,0.7c-5.4-2.1-6.5,3-2.2,5
	c0.2,0.1,0.4,0.2,0.6,0.3c-3.5,4.7,0.7,7.3,3.8,3.8C8.8,24,8.9,23.9,9,23.7c3.2,5,6.9,1.6,4.6-2.6c-0.1-0.2-0.2-0.4-0.3-0.6
	C18.8,18.8,16.8,14.1,12.3,15.1z M8.9,21.6c-1.4,0-2.4-1.3-2.4-2.7s1-2.6,2.5-2.6c1.4,0,2.5,0.9,2.5,2.6
	C11.6,20.4,10.6,21.7,8.9,21.6z"/>
<path class="st14" d="M13.6,12c-0.7,0.6-1.1,1.4-1.1,2.5c0.3-0.2,0.7-0.5,1-1C13.7,13,13.8,12.5,13.6,12z"/>
<path class="st14" d="M5.3,13c-0.2-0.2-0.4-0.4-0.7-0.5c-0.2-0.1-0.5-0.2-0.8-0.2c0.1,0.6,0.5,1.1,0.9,1.5c0.4,0.3,0.9,0.6,1.5,0.7
	c0-0.2-0.1-0.5-0.3-0.8C5.7,13.5,5.5,13.2,5.3,13z"/>
<path class="st14" d="M2.1,21.7c0.9,0.1,1.7-0.3,2.2-1.2C3.7,20.5,2.3,20.7,2.1,21.7z"/>
<path class="st14" d="M13.6,20.8c0.2,0.3,0.7,0.7,1.2,0.9c0.5,0.2,1.1,0.2,1.5-0.2C15.6,20.8,14.7,20.5,13.6,20.8z"/>
<path class="st14" d="M9,24.3c-0.1,0.2-0.3,0.7-0.3,1.1c0,0.2,0,0.4,0.1,0.6s0.2,0.4,0.4,0.4c0-0.2,0-0.3,0.1-0.5c0-0.2,0-0.4,0-0.5
	C9.3,25,9.2,24.7,9,24.3z"/>
<path class="st15" d="M11,17.9c-0.5-1.1-1.7-1.7-2.7-1.2c-1,0.5-1.6,2.2-1.1,3.2c0.5,1.1,2,1.6,3,1C11.1,20.5,11.4,19,11,17.9z
	 M9.3,17c0.1-0.1,0.3,0,0.4,0.1c0.1,0.1,0,0.3-0.1,0.4c-0.1,0.1-0.3,0-0.4-0.1C9.1,17.3,9.2,17.1,9.3,17z M7.9,19.7
	c-0.1,0.1-0.3,0.2-0.4,0.1c-0.1-0.1-0.2-0.3-0.1-0.4c0.1-0.1,0.3-0.2,0.4-0.1C7.9,19.3,8,19.6,7.9,19.7z M7.8,18.7
	c-0.1,0.1-0.3,0-0.4-0.1c-0.1-0.1,0-0.4,0.1-0.4c0.1-0.1,0.3,0,0.4,0.2C8,18.4,7.9,18.6,7.8,18.7z M8.2,17.2
	c0.1-0.1,0.3-0.1,0.4,0.1c0.1,0.1,0,0.4-0.1,0.5c-0.1,0.1-0.3,0-0.4-0.1C8,17.5,8,17.3,8.2,17.2z M8.5,20.7
	c-0.1,0.1-0.3-0.1-0.4-0.2c0-0.2,0-0.3,0.2-0.4c0.1-0.1,0.3,0,0.4,0.2C8.8,20.4,8.7,20.6,8.5,20.7z M8.5,18.8
	c-0.1-0.1-0.1-0.3,0-0.4c0.1-0.1,0.3-0.1,0.4,0.1c0.1,0.1,0,0.4-0.1,0.5C8.8,19,8.6,18.9,8.5,18.8z M8.9,19.7
	c-0.1-0.1,0-0.3,0.1-0.4c0.1-0.1,0.3,0,0.4,0.1c0.1,0.1,0,0.4-0.1,0.4C9.2,19.9,9,19.8,8.9,19.7z M9.8,20.8c-0.1,0.1-0.3,0-0.4-0.1
	c-0.1-0.1,0-0.3,0.1-0.4s0.3-0.1,0.4,0.1C10,20.5,9.9,20.7,9.8,20.8z M10,18.4c-0.1,0.1-0.3,0.1-0.4,0c-0.1-0.1-0.1-0.3,0-0.4
	c0.1-0.1,0.3-0.1,0.4,0.1C10.1,18.2,10.1,18.3,10,18.4z M10.6,19.8c-0.1,0.1-0.3,0.1-0.4,0c-0.1-0.1-0.1-0.3,0-0.4
	c0.1-0.1,0.3-0.1,0.4,0C10.7,19.5,10.7,19.7,10.6,19.8z M10.6,18.8c-0.1,0-0.3-0.1-0.3-0.3c0-0.2,0.1-0.3,0.3-0.4
	c0.1,0,0.3,0.1,0.3,0.3C10.9,18.6,10.8,18.7,10.6,18.8z"/>
<path class="st16" d="M55.4,24.6C55.3,24.6,55.3,24.6,55.4,24.6c-0.4,0.4-0.7,0.8-1.1,1c-0.6,0.4-1.2,0.7-1.8,0.9
	c-0.1,0-0.2,0.1-0.2,0.2c-0.2,0.2-0.3,0.4-0.5,0.7c-0.4,0.5-1,0.9-1.6,1.1c-0.2,0.1-0.4,0.1-0.6,0.1c-0.2,0-0.5,0.1-0.7,0
	c-0.4-0.1-0.7-0.2-1-0.4c-0.5-0.4-0.9-0.8-1.4-1.2c0,0-0.1-0.1-0.1-0.1c-0.2-0.1-0.4-0.2-0.5-0.3c-0.1-0.1-0.2-0.1-0.3-0.2
	c0,0.2,0,0.5,0,0.7c0.1,0.7,0.4,1.3,1,1.7c0.3,0.2,0.6,0.3,1,0.4c0.8,0.2,1.5,0.4,2.2,0.6c0.4,0.1,0.7,0.2,1.1,0.3
	c0.6,0.1,1.2,0,1.8-0.3c0.5-0.2,0.9-0.5,1.3-0.9c0.5-0.5,0.9-1.1,1.2-1.8c0.3-0.6,0.4-1.2,0.5-1.9C55.4,25,55.4,24.8,55.4,24.6z"/>
<path class="st17" d="M55.7,25.7c0.1-0.1,0.1-0.1,0.2-0.1c0.3-0.2,0.7-0.5,0.9-0.9c0.3-0.4,0.6-0.8,0.8-1.3c0.4-0.9,0.5-1.8,0.4-2.7
	c-0.1-0.8-0.4-1.6-0.9-2.3c-0.2-0.3-0.4-0.7-0.6-1C56.2,17,56,16.5,55.7,16c-0.1-0.3-0.2-0.5-0.3-0.8c-0.2-0.6-0.6-1-1.2-1.2
	c-0.2-0.1-0.5-0.1-0.7-0.2c-0.3,0-0.6,0-1,0.1c-0.2,0.1-0.4,0.1-0.5,0.2c0.2,0.2,0.4,0.5,0.5,0.8c0.1,0.2,0.2,0.3,0.2,0.5
	c0,0.1,0,0.1,0.1,0.1c0.2,0,0.5,0.1,0.7,0.2c0.9,0.3,1.6,1,2,2c0.1,0.2,0.1,0.3,0.2,0.5c0.2,0.6,0.4,1.2,0.7,1.9
	c0.1,0.2,0.1,0.3,0.2,0.5c0.2,0.7,0.2,1.3,0,1.9c-0.2,0.6-0.5,1.1-0.8,1.5c-0.1,0.1-0.1,0.2,0,0.3c0,0.1,0.1,0.2,0.1,0.3
	c0,0.3,0,0.5,0,0.8C55.8,25.5,55.7,25.5,55.7,25.7z"/>
<path class="st17" d="M52.3,15.5c0-0.1-0.1-0.2-0.1-0.2s-0.1-0.1-0.2-0.2c-0.3-0.4-0.6-0.8-0.9-1.1c-0.1-0.1-0.2-0.2-0.4-0.2
	c-0.5-0.2-1.1-0.3-1.6-0.2c-0.6,0.1-1.3,0.3-1.9,0.6c-0.5,0.2-0.9,0.4-1.4,0.6c-0.2,0.1-0.4,0.1-0.6,0.2c-0.2,0.1-0.4,0.3-0.6,0.5
	c-0.4,0.6-0.6,1.3-0.6,2.1c0,0.4,0,0.8,0.1,1.3c0,0,0,0.1,0,0.1c0,0,0-0.1,0-0.1c0.2-0.3,0.4-0.5,0.6-0.8c0.4-0.4,0.8-0.6,1.3-0.9
	c0.1,0,0.1-0.1,0.1-0.1c0.3-0.4,0.6-0.7,1.1-1c0.3-0.2,0.7-0.3,1-0.4c0.4-0.1,0.8-0.2,1.3-0.3c0.5,0,0.9,0,1.3,0.2
	c0,0,0.1,0.1,0.1,0c0.3-0.1,0.5-0.2,0.8-0.2C52,15.5,52.1,15.5,52.3,15.5z"/>
<path class="st17" d="M46.8,23.2c-0.1,0.1-0.1,0.1-0.2,0.2c-0.2,0.2-0.3,0.4-0.4,0.7c-0.1,0.2-0.1,0.4-0.1,0.7
	c0,0.5,0.1,0.9,0.4,1.3c0.2,0.4,0.5,0.6,0.8,0.9c0.6,0.4,1.2,0.7,1.8,1.1c0.2,0.1,0.4,0.1,0.6,0.1c0.3,0,0.6-0.1,0.8-0.2
	c0.5-0.2,1-0.5,1.3-1c0.1-0.1,0.2-0.2,0.2-0.4c0.3-0.5,0.6-1,1-1.4c0.4-0.4,0.6-0.9,0.8-1.4c0,0,0-0.1,0-0.1
	c-0.3,0.2-0.5,0.4-0.9,0.5c0,0-0.1,0-0.1,0.1c0,0.1-0.1,0.1-0.1,0.2c-0.3,0.3-0.5,0.5-0.9,0.7c-0.2,0.1-0.3,0.1-0.5,0.1
	c-0.3,0.1-0.6,0.1-0.9,0.2c-0.7,0.2-1.4,0.2-2.1,0c-0.6-0.2-1-0.5-1.3-1.1c-0.1-0.2-0.1-0.4-0.2-0.7C46.8,23.5,46.8,23.4,46.8,23.2z
	"/>
<path class="st18" d="M52.8,25.9L52.8,25.9c0.2-0.1,0.5-0.2,0.7-0.3c0.4-0.2,0.7-0.5,1-0.8c0.6-0.6,1.1-1.4,1.4-2.3
	c0.1-0.5,0.2-1,0.1-1.5c0-0.4-0.2-0.7-0.3-1c-0.2-0.4-0.4-0.8-0.5-1.3c-0.1-0.4-0.2-0.8-0.4-1.1c-0.1-0.3-0.3-0.6-0.6-0.9
	c-0.4-0.5-0.9-0.7-1.5-0.8c-0.4,0-0.7,0-1,0.1c-0.1,0-0.1,0-0.2,0.1c0,0,0,0,0,0c0.3,0.3,0.4,0.6,0.5,1c0,0.2,0.1,0.4,0.3,0.6
	c0,0,0.1,0.1,0.1,0.1c0,0.1,0.1,0.1,0.1,0.1c1,0.4,1.6,1.1,1.9,2.1c0.1,0.2,0.1,0.4,0.1,0.6c0,0.2,0.1,0.5,0.1,0.7
	c0,0.5-0.1,0.9-0.3,1.4c0,0.1,0,0.2,0,0.3c0,0.1,0,0.2,0,0.3c0,0.3-0.1,0.7-0.2,0.9c-0.1,0.3-0.3,0.5-0.4,0.7
	c-0.2,0.2-0.4,0.4-0.5,0.6C53,25.7,52.9,25.8,52.8,25.9z"/>
<path class="st16" d="M46.8,22.3c0-0.1,0-0.1,0-0.1c0-0.3,0-0.6,0-0.8c0-0.2,0-0.3,0-0.5c0.1-0.8,0.4-1.4,1-1.9
	c0.1-0.1,0.1-0.1,0.2-0.1c0.1,0,0.1-0.1,0.1-0.2c0.1-0.4,0.2-0.8,0.5-1.1c0.4-0.6,0.9-0.8,1.6-0.6c0.3,0.1,0.6,0.2,0.9,0.4
	c0.2,0.2,0.5,0.3,0.8,0.4c0,0,0,0,0.1,0c0,0,0,0,0-0.1c-0.2-0.3-0.3-0.6-0.5-0.9c-0.3-0.6-0.7-0.8-1.3-0.9c-0.5-0.1-0.9,0.1-1.3,0.2
	c-0.2,0.1-0.3,0.2-0.5,0.3c-0.3,0.2-0.6,0.4-0.9,0.6c-0.2,0.1-0.4,0.3-0.5,0.5c-0.2,0.2-0.4,0.5-0.6,0.8c-0.2,0.3-0.4,0.6-0.5,1
	c-0.2,0.5-0.2,1-0.1,1.5C45.8,21.4,46.3,21.9,46.8,22.3z"/>
<path class="st18" d="M49,21.4C49,21.5,49,21.5,49,21.4c-0.3,0.4-0.4,0.8-0.5,1.2c0,0.4,0.1,0.6,0.4,0.8c0.4,0.2,1.2,0.3,1.7-0.3
	c0-0.1,0.1-0.1,0.1-0.1c0.2-0.2,0.4-0.3,0.6-0.4c0.2-0.1,0.4-0.1,0.5-0.1c0.3,0,0.5,0,0.8-0.1c0.2-0.1,0.3-0.2,0.4-0.4
	c0.1-0.2,0.1-0.4,0.1-0.7c0-0.3-0.1-0.6-0.4-0.7c-0.2-0.1-0.4-0.2-0.7-0.3c-0.4-0.1-0.6-0.4-0.9-0.7c-0.1-0.1-0.1-0.2-0.2-0.3
	c-0.1-0.1-0.2-0.2-0.3-0.2c0,0-0.1,0-0.1,0c-0.3,0-0.5,0-0.8,0.1c-0.2,0.1-0.4,0.3-0.5,0.5c-0.2,0.5-0.1,1,0.2,1.5
	c0.1,0.1,0.2,0.2,0.3,0.3c0,0,0.1,0.1,0.1,0.1c0,0,0.1,0,0.1-0.1c0,0,0,0,0-0.1c0.2-0.5,0.8-0.6,1.1-0.3c0.3,0.2,0.3,0.6,0.1,0.9
	c-0.1,0.1-0.2,0.2-0.4,0.2c-0.7,0.2-1.4-0.2-1.7-0.8C49.1,21.6,49.1,21.5,49,21.4z"/>
<path class="st17" d="M43.5,17.8c-0.2,0.2-0.4,0.4-0.5,0.6c-0.2,0.4-0.3,0.9-0.3,1.4c0,0.8,0,1.6,0.1,2.4c0,0.4,0,0.8,0,1.2
	c0,0.4,0,0.7,0,1.1c0,0.3,0,0.7,0.1,1c0.3,0.8,0.6,1.4,1.3,1.8c0.1,0.1,0.3,0.2,0.4,0.3c0.1,0.1,0.2,0.1,0.3,0.2
	c0-0.1,0-0.1-0.1-0.2c-0.2-0.3-0.3-0.7-0.3-1c0-0.2,0-0.5,0.1-0.7c0-0.1,0-0.1,0-0.1c-0.1-0.1-0.2-0.3-0.3-0.4
	c-0.3-0.5-0.6-1.1-0.8-1.7c-0.1-0.3-0.1-0.7-0.1-1c0-0.3,0-0.5,0.1-0.8c0.1-0.6,0.2-1.2,0.3-1.8c0-0.1,0-0.1,0-0.2
	c-0.1-0.1-0.1-0.2-0.1-0.3c-0.1-0.4-0.2-0.7-0.1-1.1C43.4,18.2,43.4,18,43.5,17.8z"/>
<path class="st18" d="M45.7,18c0,0-0.1,0.1-0.1,0.1c-0.5,0.4-0.8,0.9-0.9,1.5c-0.1,0.7-0.2,1.4-0.3,2.1c0,0.4-0.1,0.8-0.1,1.2
	c-0.1,0.5,0,1.1,0.1,1.6c0.2,0.5,0.4,0.9,0.8,1.2c0.2,0.1,0.4,0.3,0.6,0.4c0,0,0,0,0.1,0c0,0,0-0.1-0.1-0.1
	c-0.3-0.5-0.4-1.1-0.3-1.7c0.1-0.7,0.5-1.1,0.9-1.5c0,0,0.1,0,0.1-0.1c-0.1-0.1-0.3-0.3-0.4-0.4c-0.5-0.4-0.7-1-0.7-1.7
	c0-0.4,0-0.8,0.1-1.1C45.4,19,45.5,18.5,45.7,18C45.7,18.1,45.7,18.1,45.7,18z"/>
<path class="st17" d="M48.8,20.2c0,0,0.1-0.1,0.1-0.1c0-0.1,0-0.1,0.1-0.2c0.1-0.4,0.4-0.7,0.7-0.9c0.4-0.2,0.8-0.2,1.2-0.2
	c0.3,0,0.5,0.1,0.8,0.3c0.1,0.1,0.2,0.2,0.3,0.3c0.2,0.2,0.4,0.4,0.6,0.5c0.2,0.1,0.5,0.3,0.7,0.5c0.2,0.2,0.4,0.5,0.4,0.8
	c0,0.4,0,0.7,0,1.1c0,0.2-0.1,0.4-0.3,0.6c-0.1,0.2-0.3,0.3-0.5,0.4c-0.3,0.1-0.5,0.2-0.8,0.3c-0.1,0-0.1,0-0.2,0.1
	c0.2,0,0.3,0,0.4,0c0.1,0,0.2,0,0.3,0c0.6-0.1,1.1-0.6,1.2-1.2c0-0.2,0.1-0.5,0.1-0.7c0-0.3,0-0.6,0-0.8c0-0.2-0.1-0.5-0.2-0.7
	c-0.2-0.5-0.4-0.9-0.6-1.3c-0.2-0.3-0.5-0.5-0.8-0.6c-0.1,0-0.3-0.1-0.5-0.1c-0.4-0.1-0.8-0.2-1.1-0.5c-0.1-0.1-0.1-0.1-0.2-0.2
	c-0.2-0.1-0.4-0.2-0.6-0.2c0,0-0.1,0-0.1,0c-0.3,0.1-0.5,0.2-0.7,0.5c-0.1,0.1-0.2,0.3-0.2,0.4C48.6,18.9,48.7,19.5,48.8,20.2z"/>
<path class="st16" d="M52.2,24.2L52.2,24.2c-0.4,0-0.8-0.1-1.1-0.2c0,0-0.1,0-0.1,0c-0.1,0-0.2,0.1-0.3,0.1c-0.3,0-0.5,0-0.8,0
	c-0.5,0-1-0.3-1.4-0.6c-0.2-0.2-0.3-0.4-0.4-0.7c0-0.1,0-0.2,0-0.3c0-0.2,0-0.5,0.1-0.7c0.1-0.2,0.2-0.3,0.3-0.5
	c0.1-0.1,0.1-0.2,0-0.3c0-0.1,0-0.1-0.1-0.1c-0.1-0.2-0.1-0.3-0.2-0.5c0-0.2-0.1-0.5-0.1-0.7c0,0,0-0.1,0-0.1c0,0,0,0,0,0
	c-0.4,0.5-0.6,1.1-0.5,1.7c0,0.3,0,0.6,0,0.8c0,0.4,0,0.7,0.1,1c0,0.3,0.1,0.7,0.2,1c0.1,0.3,0.4,0.5,0.6,0.7c0.3,0.1,0.7,0.2,1,0.2
	c0.3,0,0.6-0.1,0.9-0.1c0.4-0.1,0.7-0.1,1.1-0.3C51.8,24.6,52,24.5,52.2,24.2C52.2,24.3,52.2,24.3,52.2,24.2z"/>
<path class="st19" d="M54,40.5c-6.4-5.7-18.5-6.8-15.7,35"/>
<path class="st20" d="M65.3,41.4c-0.5-0.7-0.2-0.6,0-1.3c0.5-1.4-2.3-2.1-4.4,0.2c0,0-0.1,0.1-0.1,0.1c1-1.6,2-3.1,0.5-3.8
	c-0.7-0.3-1.3-0.1-1.7,0c-0.8,0.2-0.7,0-1.2-0.4c-1.2-0.9-2.7,1.3-1.4,3.8c-0.9-1-1.9-1.6-2.8-0.7c-0.6,0.5-0.5,1.2-0.5,1.6
	c0,0.8-0.2,0.6-0.8,1c-1.2,0.9,0.4,2.8,3.2,2.5c-1.5,0.6-2.6,1.3-2,2.5c0.4,0.7,1,0.8,1.4,1c0.8,0.3,0.5,0.4,0.7,1
	c0.5,1.4,3,0.5,3.4-2.4c0.1,1.6,0.4,3,1.9,2.7c0.8-0.1,1.1-0.7,1.4-1c0.5-0.6,0.6-0.4,1.2-0.4c1.5,0,1.4-2.4-1-3.8
	c1.3,0.2,2.4,0.2,2.6-1C66,42.2,65.6,41.8,65.3,41.4z"/>
<path class="st7" d="M59.4,40.9c-1.3,0-2.6,0.7-2.6,2c0,1.3,1.2,2.5,2.6,2.5s2.3-1,2.3-2.3C61.6,41.6,60.7,40.9,59.4,40.9z
	 M61.3,42.3c-0.5,0.1-0.9-0.5-1.1-0.8C60.7,41.6,61.1,41.9,61.3,42.3z M59.8,41.2c-0.1,0.3-0.6,0.3-0.8,0.2
	C59.2,41.2,59.5,41.1,59.8,41.2z M59.2,42.7c-0.1,0.2-0.2,0.5-0.3,0.6c-0.2-0.5-0.1-0.9,0.2-1.3C59.3,42.2,59.3,42.5,59.2,42.7z
	 M58.8,41.6c-0.2,0-0.3-0.3-0.4-0.4C58.7,41.2,58.8,41.4,58.8,41.6z M58.2,41.7c0,0,0-0.1,0-0.1c0,0,0-0.1,0-0.1c0,0,0.1,0,0.1,0.1
	c0,0,0.1,0.1,0.1,0.1c0,0.1,0.1,0.2,0.1,0.3c0,0.2,0,0.4,0,0.6c-0.2-0.1-0.3-0.3-0.3-0.5C58.2,41.9,58.2,41.8,58.2,41.7z M58,42.7
	c0.1,0.2,0.2,0.4,0.2,0.6c-0.4-0.2-0.7-0.5-0.7-1C57.8,42.3,57.9,42.5,58,42.7z M57.8,41.6c0.1,0.3-0.3,0.5-0.5,0.6
	C57.3,41.9,57.5,41.7,57.8,41.6z M57.2,43.1c-0.1-0.1-0.1-0.3-0.1-0.3c0.2,0.1,0.4,0.3,0.4,0.5C57.4,43.3,57.3,43.2,57.2,43.1z
	 M57.6,44.1c-0.2-0.2-0.2-0.4-0.2-0.6c0.2,0.1,0.3,0.2,0.5,0.3s0.2,0.2,0.4,0.4C58.1,44.4,57.8,44.3,57.6,44.1z M58.7,44.2
	c-0.3-0.1-0.4-0.3-0.4-0.6C58.6,43.6,58.7,44,58.7,44.2z M59.2,44.8c-0.1,0-0.2,0.1-0.3,0c-0.2,0-0.4-0.1-0.5-0.2
	c0.2-0.1,0.4-0.1,0.5-0.1c0.2,0,0.3,0,0.4,0C59.4,44.7,59.3,44.8,59.2,44.8z M59.5,43.8c0,0.2-0.1,0.4-0.2,0.5c-0.2-0.3-0.2-0.8,0-1
	C59.5,43.4,59.5,43.6,59.5,43.8z M59.8,41.4c0,0.1,0,0.2-0.1,0.2c-0.1,0.1-0.2,0.1-0.2,0.1C59.6,41.6,59.7,41.5,59.8,41.4z
	 M60.4,42.3c-0.1,0.1-0.3,0.1-0.4,0.1c-0.2,0-0.3-0.2-0.4-0.3C59.9,42,60.1,42.1,60.4,42.3z M60.3,43.3c-0.2,0-0.4-0.1-0.5-0.3
	c-0.1-0.2-0.2-0.4-0.2-0.5C60.1,42.7,60.3,43,60.3,43.3z M60,44.9c-0.2,0.1-0.3,0.1-0.4,0c0.2-0.2,0.4-0.3,0.7-0.4
	C60.3,44.7,60.2,44.8,60,44.9z M60,44.3c-0.2-0.1-0.3-0.3-0.3-0.5c0.4,0.1,0.7,0.3,0.9,0.5C60.5,44.4,60.2,44.4,60,44.3z M60.8,43.9
	c-0.3-0.3,0-0.7,0.1-0.9C61,43.3,61,43.6,60.8,43.9z M60.8,42.7c0.2-0.1,0.4-0.1,0.5,0C61.2,42.8,60.9,42.7,60.8,42.7z M61,44.3
	c-0.1-0.1,0-0.3,0-0.4c0.1-0.1,0.2-0.2,0.2-0.3C61.4,43.9,61.3,44.2,61,44.3z"/>
<path class="st21" d="M62.3,38.7c0.3-0.2,0.7-0.6,0.9-1c0.2-0.5,0.3-1-0.1-1.4C62.5,37,62.3,37.7,62.3,38.7z"/>
<path class="st21" d="M66.1,44.7c-0.4-0.3-1-0.4-1.5-0.2c0.1,0.1,0.3,0.3,0.5,0.4c0.2,0.2,0.3,0.3,0.5,0.5c0.4,0.3,0.9,0.6,1.4,0.4
	C66.8,45.4,66.5,45,66.1,44.7z"/>
<path class="st21" d="M59.5,48.2c-0.1,0.2-0.2,0.3-0.2,0.6c0,0.2,0,0.5,0.1,0.8c0.1,0.2,0.2,0.5,0.4,0.6c0.2,0.2,0.4,0.2,0.7,0.2
	c-0.1-0.4-0.2-0.7-0.3-1.1C60,48.9,59.8,48.6,59.5,48.2z"/>
<path class="st21" d="M53,44.5c-0.5,0.1-1,0.4-1.1,0.9c1,0.1,1.8-0.2,2.6-0.9C54.1,44.5,53.6,44.4,53,44.5z"/>
<path class="st21" d="M56,37.6c-0.2-0.4-0.6-0.7-1.1-0.7c0.1,0.4,0.2,0.8,0.5,1.1c0.1,0.2,0.3,0.3,0.5,0.4c0.2,0.1,0.4,0.2,0.6,0.3
	c0-0.2-0.1-0.4-0.1-0.6C56.2,38,56.1,37.8,56,37.6z"/>
<path class="st22" d="M33.6,45.6c-1.5,4.2-3.3,15.9,1.1,29.5"/>
<path class="st8" d="M36.2,39.8c0.7-0.8,1.5-1.9,1.1-2.7c-0.4-0.9-1.8,0.3-2.7,1.6c-0.2-1-0.5-2.3-1.4-2.6c-1-0.3-0.9,1.6-0.4,3.1
	c-0.9-0.5-2.2-1-2.9-0.5c-0.8,0.6,0.7,1.7,2.2,2.3c-1,0.4-2.1,1-2.2,1.9c0,1,1.8,0.5,3.2-0.3c-0.3,1-0.5,2.3,0.2,2.9
	c0.7,0.7,1.5-1.1,1.7-2.6c0.6,0.8,1.5,1.8,2.4,1.7c1-0.2,0.1-1.9-1-3c1,0,2.4,0,2.8-0.8C39.7,40.1,37.8,39.7,36.2,39.8z"/>
<path class="st9" d="M34.8,36.6c-0.2,0.6-0.2,1.4-0.1,1.6c0,0.1,0.1,0,0.2,0C35.6,36.5,35.2,35.7,34.8,36.6z"/>
<path class="st9" d="M31.2,37.9c0.3,0.6,1,1,1.2,1c0.1,0,0.1-0.1,0.1-0.1C31.6,37.2,30.7,37,31.2,37.9z"/>
<path class="st9" d="M31.6,41.2c0.1-0.1,0-0.1-0.1-0.1c-1.8-0.3-2.5,0.3-1.5,0.4C30.7,41.6,31.4,41.4,31.6,41.2z"/>
<path class="st9" d="M32.6,43.2c-1.3,1.2-1.4,2.1-0.6,1.4c0.5-0.5,0.8-1.2,0.7-1.4C32.8,43.2,32.7,43.2,32.6,43.2z"/>
<path class="st9" d="M35.1,43.7c0.1,1.8,0.8,2.4,0.8,1.4c-0.1-0.7-0.5-1.3-0.6-1.4C35.1,43.6,35.1,43.6,35.1,43.7z"/>
<path class="st9" d="M36.9,41.9c-0.1,0-0.1,0.1,0,0.1c1.5,1,2.4,0.8,1.5,0.3C37.9,42,37.1,41.9,36.9,41.9z"/>
<path class="st9" d="M38,38.6c-0.7,0.2-1.2,0.7-1.3,0.9c0,0.1,0,0.1,0.1,0.1C38.6,39.1,39,38.3,38,38.6z"/>
<path class="st10" d="M34,39.9c-0.6,0.2-1,0.8-0.8,1.3c0.2,0.6,0.9,1,1.5,0.8c0.6-0.2,1-0.9,0.8-1.5C35.3,40,34.6,39.7,34,39.9z"/>
<path class="st11" d="M33.7,41.1c0-0.1-0.2-0.1-0.2-0.1c-0.1,0-0.1,0.1-0.1,0.2c0,0.1,0.1,0.1,0.2,0.1
	C33.7,41.3,33.7,41.2,33.7,41.1z"/>
<path class="st11" d="M34.8,40.9c0-0.1-0.1-0.1-0.2-0.1c-0.1,0-0.1,0.1-0.1,0.2c0,0.1,0.1,0.1,0.2,0.1C34.7,41,34.8,40.9,34.8,40.9z
	"/>
<path class="st11" d="M34.1,40.7c0.1,0,0.1-0.1,0.1-0.2c0-0.1-0.1-0.1-0.2-0.1c-0.1,0-0.1,0.2-0.1,0.2C33.9,40.7,34,40.7,34.1,40.7z
	"/>
<path class="st11" d="M34.4,41.6c0,0.1,0,0.2,0,0.2c0.1,0,0.2,0,0.2,0c0-0.1,0-0.2,0-0.2C34.5,41.5,34.4,41.6,34.4,41.6z"/>
<path class="st11" d="M35.1,40.6c-0.1,0-0.1,0.1-0.1,0.2c0,0.1,0.1,0.1,0.2,0.1c0.1,0,0.1-0.1,0.1-0.2
	C35.3,40.6,35.2,40.6,35.1,40.6z"/>
<path class="st11" d="M33.6,40.7c0.1,0,0.1-0.1,0.1-0.2c0-0.1-0.1-0.1-0.2-0.1c-0.1,0-0.1,0.1-0.1,0.2
	C33.4,40.7,33.5,40.8,33.6,40.7z"/>
<path class="st11" d="M34.4,40.1c0-0.1-0.1-0.2-0.2-0.2c-0.1,0-0.2,0.1-0.2,0.1c0,0.1,0.1,0.2,0.2,0.2
	C34.3,40.3,34.4,40.2,34.4,40.1z"/>
<path class="st11" d="M34.3,41c0-0.1-0.1-0.1-0.2-0.1C34,41,34,41.1,34,41.2c0,0.1,0.1,0.1,0.2,0.1C34.3,41.2,34.3,41.1,34.3,41z"/>
<path class="st11" d="M35,41.2c-0.1,0-0.1,0.1-0.1,0.2c0,0.1,0.1,0.1,0.2,0.1c0.1,0,0.2-0.1,0.1-0.2C35.1,41.3,35,41.2,35,41.2z"/>
<path class="st11" d="M33.9,41.5c-0.1,0-0.1,0.1-0.1,0.2s0.1,0.1,0.2,0.1c0.1,0,0.1-0.1,0.1-0.2C34.1,41.5,34,41.4,33.9,41.5z"/>
<path class="st11" d="M34.9,40.5c0.1,0,0.1-0.2,0-0.2c0-0.1-0.2-0.1-0.2-0.1c-0.1,0-0.1,0.2,0,0.2C34.7,40.5,34.8,40.5,34.9,40.5z"
	/>
<rect x="15.9" y="51.9" class="st23" width="26.7" height="24"/>
<path class="st24" d="M15.6,78.9l-2.5-2.6L12.5,43l5.2-0.2l0.6,31L39,75.3l3-33.5l5.2,0.4L44,78.4l-2.8,2.4L15.6,78.9z"/>
</svg>
